<?xml version="1.0" standalone="no"?>
<!DOCTYPE svg PUBLIC "-//W3C//DTD SVG 1.1//EN" "http://www.w3.org/Graphics/SVG/1.1/DTD/svg11.dtd" >
<svg xmlns="http://www.w3.org/2000/svg" xmlns:xlink="http://www.w3.org/1999/xlink" version="1.1">
<metadata>
Created by FontForge 20150824 at Thu Oct  6 18:00:16 2016
 By Everything Fonts
copyright missing
</metadata>
<defs>
<font id="SackersGothicStdInline" horiz-adv-x="833" >
  <font-face 
    font-family="SackersGothicStdInline"
    font-weight="400"
    font-stretch="normal"
    units-per-em="1000"
    panose-1="0 0 5 0 0 0 0 0 0 0"
    ascent="760"
    descent="-240"
    x-height="745"
    cap-height="745"
    bbox="15 -92 999 767"
    underline-thickness="50"
    underline-position="-150"
    unicode-range="U+0020-007A"
  />
<missing-glyph horiz-adv-x="523" 
d="M20 0v667h483v-667h-483zM44 25h434v618h-434v-618zM262 353l-180 269h358zM66 100v508l182 -274q-23 -34 -64 -97q-88 -137 -107 -149q-10 -3 -11 12zM457 60l-183 274l183 274v-548zM262 397l133 201h-267zM90 100q0 24 10.5 50t21.5 43.5t44.5 64.5t52.5 76l-129 194
v-428zM433 139v389l-130 -194zM82 47l180 267l178 -267h-358zM128 71h267l-133 200z" />
    <glyph glyph-name=".notdef" horiz-adv-x="523" 
d="M20 0v667h483v-667h-483zM44 25h434v618h-434v-618zM262 353l-180 269h358zM66 100v508l182 -274q-23 -34 -64 -97q-88 -137 -107 -149q-10 -3 -11 12zM457 60l-183 274l183 274v-548zM262 397l133 201h-267zM90 100q0 24 10.5 50t21.5 43.5t44.5 64.5t52.5 76l-129 194
v-428zM433 139v389l-130 -194zM82 47l180 267l178 -267h-358zM128 71h267l-133 200z" />
    <glyph glyph-name=".null" horiz-adv-x="0" 
 />
    <glyph glyph-name="nonmarkingreturn" horiz-adv-x="333" 
 />
    <glyph glyph-name="space" unicode=" " horiz-adv-x="370" 
 />
    <glyph glyph-name="A" unicode="A" 
d="M483 745l333 -745h-140l-103 236h-309l-107 -236h-140l338 745h128zM588 260l104 -235h87l-312 696h-96l-317 -696h88l107 234zM449 693l287 -640h-26l-105 235h-375l-107 -235h-26l292 640h26h32h2zM240 310h355l-161 359h-30zM287 342l132 292l132 -292h-264zM323 366
h192l-96 210z" />
    <glyph glyph-name="B" unicode="B" horiz-adv-x="907" 
d="M149 0v747h426q101 0 163 -58t62 -153q0 -91 -55 -144q42 -21 65.5 -69t23.5 -109q0 -102 -71.5 -158t-187.5 -56h-426zM174 25h401q108 0 171 49t63 140q0 63 -26.5 108.5t-78.5 65.5q72 58 72 148q0 85 -54.5 135.5t-146.5 50.5h-401v-697zM575 52l-373 1v641h373
q80 0 126 -42t46 -116q0 -113 -100 -152q62 -9 98.5 -52t36.5 -117q0 -79 -55.5 -121t-151.5 -42zM226 395h349q67 0 107 38t40 102t-39 99.5t-108 35.5h-349v-275zM254 423v219h321q58 0 88.5 -27.5t30.5 -79.5t-32 -82t-87 -30h-321zM278 447h297q45 0 70 23t25 65
q0 82 -95 82h-297v-170zM226 76h359q81 0 127 37t46 109q0 70 -48.5 109.5t-134.5 39.5h-349v-295zM254 104v239h321q74 0 115 -31.5t41 -88.5q0 -58 -40 -88.5t-106 -30.5h-331zM278 128h307q56 0 89 24t33 71t-34 71.5t-98 24.5h-297v-191z" />
    <glyph glyph-name="C" unicode="C" horiz-adv-x="926" 
d="M513 -17q-181 0 -300 111t-119 281q0 166 113.5 277t283.5 111q208 0 366 -161l-96 -82q-130 113 -264 113q-119 0 -197 -74t-78 -186q0 -114 83.5 -187t213.5 -73q80 0 139 27.5t124 94.5l85 -93q-130 -159 -354 -159zM513 7q201 0 322 135l-54 58q-62 -60 -122.5 -85.5
t-139.5 -25.5q-141 0 -231 79.5t-90 204.5q0 123 85 203.5t214 80.5q136 0 264 -105l60 51q-145 136 -330 136q-159 0 -266 -104t-107 -260q0 -160 112 -264t283 -104zM513 36q-160 0 -263.5 95.5t-103.5 243.5q0 144 98.5 240t246.5 96q157 0 287 -107l-18 -16
q-128 98 -263 98q-140 0 -233.5 -89.5t-93.5 -223.5q0 -137 98.5 -225t250.5 -88q78 0 139.5 23.5t120.5 76.5l17 -18q-107 -106 -283 -106z" />
    <glyph glyph-name="D" unicode="D" horiz-adv-x="926" 
d="M151 0v746h360q148 0 250 -107.5t102 -262.5q0 -156 -99.5 -266t-249.5 -110h-363zM175 25h339q141 0 233 103t92 248q0 146 -95 246t-233 100h-336v-697zM514 52l-311 1v641h308q127 0 213.5 -92t85.5 -226q-2 -141 -83 -233t-213 -91zM227 76h287q116 0 194 84t78 208
q0 131 -77.5 216t-196.5 86l-285 1v-595zM255 106v535h257q108 0 176.5 -76.5t68.5 -196.5q0 -112 -69.5 -187t-173.5 -75h-259zM279 130h235q94 0 156.5 68t62.5 170q0 109 -61.5 178.5t-159.5 69.5h-233v-486z" />
    <glyph glyph-name="E" unicode="E" horiz-adv-x="852" 
d="M151 0v746h618v-131h-488v-164h245v-128h-245v-193h506v-130h-636zM175 25h588v81h-506v241h245v80h-245v213h488v82h-570v-697zM203 53v640h514v-24h-489v-270h246v-24h-246v-298h507v-24h-532z" />
    <glyph glyph-name="F" unicode="F" 
d="M153 0v745h614v-128h-486v-176h296v-131h-296v-310h-128zM177 25h80v309h296v83h-296v224h486v80h-566v-696zM205 53v640h510v-24h-486l1 -282h295v-24h-296v-310h-24z" />
    <glyph glyph-name="G" unicode="G" horiz-adv-x="907" 
d="M504 -17q-173 0 -290 112.5t-117 278.5q0 167 117 277.5t292 110.5q98 0 173.5 -33.5t149.5 -110.5l-90 -92q-50 58 -102 82.5t-125 24.5q-126 0 -207.5 -73t-81.5 -187q0 -115 81 -188t206 -73q38 0 80 10q55 14 89 41t34 58v69h-229v129h357v-205q0 -72 -56 -130
t-149 -84q-62 -17 -132 -17zM504 7q70 0 125 16q86 25 137 76.5t51 114.5v181h-309v-81h229v-93q0 -41 -39 -75t-102 -48q-45 -10 -86 -10q-136 0 -223.5 80.5t-87.5 204.5t88.5 204t224.5 80q71 0 125 -22.5t103 -73.5l55 57q-66 64 -133.5 92t-155.5 28
q-165 0 -274.5 -103.5t-110.5 -260.5t109 -262t274 -105zM504 35q-152 0 -254 97t-102 242q0 144 102.5 240t255.5 96q76 0 134.5 -22t114.5 -71l-16 -16q-91 84 -227 84q-148 0 -243.5 -87.5t-95.5 -224.5t95 -225.5t242 -88.5q93 0 174 45t81 117v121h-229v25h253v-153
q0 -54 -42.5 -96t-107 -62.5t-135.5 -20.5z" />
    <glyph glyph-name="H" unicode="H" horiz-adv-x="963" 
d="M155 0v745h128v-291h400v291h130v-745h-130v323h-400v-323h-128zM179 25h80v322h448v-322h82v696h-82v-292h-448v292h-80v-696zM207 53v640h24v-293h504v293h26v-640h-26v323h-504v-323h-24z" />
    <glyph glyph-name="I" unicode="I" horiz-adv-x="389" 
d="M133 0v745h128v-745h-128zM157 25h79v696h-79v-696zM185 53v640h23v-640h-23z" />
    <glyph glyph-name="J" unicode="J" horiz-adv-x="815" 
d="M345 -17q-125 0 -197.5 49.5t-127.5 164.5l117 58q36 -83 79.5 -112.5t125.5 -29.5q100 0 148 44.5t48 139.5v449h128v-464q0 -142 -87.5 -220.5t-233.5 -78.5zM345 8q137 0 217 71t80 203v440h-80v-425q0 -208 -220 -208q-83 0 -131.5 29.5t-85.5 103.5l-72 -37
q47 -95 114.5 -136t177.5 -41zM345 36q-95 0 -154 31.5t-101 106.5l24 11q38 -68 90.5 -96.5t137.5 -28.5q124 0 186 59.5t61 177.5l1 397h24v-412q0 -117 -70 -181.5t-199 -64.5z" />
    <glyph glyph-name="K" unicode="K" 
d="M146 0v746h129v-360l338 360h179l-252 -265l277 -481l-150 1l-218 383l-174 -184v-200h-129zM170 25h81v185l202 215l228 -400h93l-263 460l225 237h-113l-372 -395v395h-81v-697zM697 52l-239 420l-236 -251v-168h-24v641h24v-439l414 439h33l-193 -204l250 -438h-29z
" />
    <glyph glyph-name="L" unicode="L" horiz-adv-x="741" 
d="M153 0v745h129v-615h439v-130h-568zM177 25h520v81h-439v615h-81v-696zM205 53v640h24v-616h440v-24h-464z" />
    <glyph glyph-name="M" unicode="M" horiz-adv-x="1037" 
d="M765 746h123v-746h-129v470l-244 -423l-237 423v-470h-129v746h124l242 -437zM863 25v697h-85l-263 -463l-255 463h-86v-697h80v538l261 -467l268 467v-538h80zM242 693l273 -493l281 493h39v-640h-24v616h-2l-294 -514l-287 514h-2v-616h-24v640h40z" />
    <glyph glyph-name="N" unicode="N" horiz-adv-x="963" 
d="M689 746h128v-746h-117l-420 523v-523h-130v746h118l421 -526v526zM793 25v697h-80v-571l-456 571h-82v-697h81v567l456 -567h81zM736 76h5v618h24v-642h-40l-495 617h-3v-616h-24v640h40z" />
    <glyph glyph-name="O" unicode="O" horiz-adv-x="1000" 
d="M500 -17q-168 0 -285 116.5t-117 278.5q0 164 117.5 276.5t284.5 112.5q168 0 285 -112.5t117 -276.5q0 -162 -118 -278.5t-284 -116.5zM500 7q157 0 267.5 109.5t110.5 261.5q0 155 -109.5 260t-268.5 105q-158 0 -268 -105.5t-110 -259.5q0 -152 110 -261.5t268 -109.5
zM500 37q-147 0 -249 100.5t-102 240.5q-1 142 101.5 239t249.5 97q148 0 249 -96.5t101 -239.5q0 -140 -102.5 -240.5t-247.5 -100.5zM500 61q136 0 231 92.5t95 224.5q-1 132 -94.5 222t-231.5 90q-140 0 -233.5 -90t-93.5 -222t95.5 -224.5t231.5 -92.5zM500 90
q-125 0 -212 83.5t-87 204.5q0 120 85.5 201.5t213.5 81.5q126 0 212 -82t86 -201q0 -121 -86.5 -204.5t-211.5 -83.5zM500 114q114 -1 194 76.5t80 187.5t-78.5 184.5t-195.5 74.5q-118 0 -196 -74.5t-78 -184.5t79.5 -186.5t194.5 -77.5z" />
    <glyph glyph-name="P" unicode="P" horiz-adv-x="870" 
d="M152 0v746h430q102 0 162.5 -59.5t60.5 -159.5t-61 -160t-162 -60h-300v-307h-130zM176 25h82v306h324q91 0 145 53.5t54 142.5q0 91 -53 143t-146 52h-406v-697zM204 53v640h378q81 0 125.5 -43.5t44.5 -122.5q0 -78 -45.5 -122.5t-124.5 -44.5h-352v-307h-26zM230 384
h352q69 0 107.5 38t38.5 105q0 69 -37.5 105.5t-108.5 36.5l-352 1v-286zM258 413v228h324q119 0 119 -114q0 -55 -30.5 -84.5t-88.5 -29.5h-324zM282 438h300q95 0 95 89q0 46 -22.5 67.5t-72.5 21.5h-300v-178z" />
    <glyph glyph-name="Q" unicode="Q" horiz-adv-x="1000" 
d="M741 -92l-97 101q-77 -26 -144 -26q-167 0 -283 113.5t-116 277.5q0 162 118 277.5t284 115.5q169 0 285 -114.5t116 -280.5q0 -176 -145 -296l91 -93zM745 -61l68 48l-90 91q82 62 119.5 133t37.5 161q0 157 -108.5 264t-268.5 107q-157 0 -267.5 -108.5t-110.5 -260.5
q0 -154 108.5 -260t266.5 -106q70 0 150 28zM748 -24l-90 94q-82 -35 -158 -35q-146 0 -246.5 98t-100.5 241q-1 140 102 240t248 100q148 0 248.5 -98.5t100.5 -243.5q0 -91 -39.5 -158t-131.5 -132l89 -91zM507 59q65 0 131 31l-46 50l21 13l50 -52q86 56 125.5 121.5
t39.5 155.5q0 132 -94.5 222t-232.5 90t-232 -91t-94 -223q0 -134 95.5 -225.5t236.5 -91.5zM507 88q-129 0 -216.5 82.5t-87.5 205.5q0 121 86 203t212 82t212 -81.5t86 -201.5q0 -145 -133 -239l-49 48l-71 -42l41 -42q-40 -15 -80 -15zM507 112q18 0 36 3l-34 34l112 69
l47 -47q107 82 107 207q0 110 -78.5 184.5t-195.5 74.5t-195 -75t-78 -186q0 -113 80 -188.5t199 -75.5z" />
    <glyph glyph-name="R" unicode="R" horiz-adv-x="889" 
d="M145 0v746h438q109 0 174.5 -61t65.5 -164q0 -81 -42 -136t-120 -75l152 -310h-146l-145 299h-248v-299h-129zM170 25h80v299h288l145 -299h91l-147 302q83 13 127.5 63.5t44.5 130.5q0 92 -58 146.5t-158 54.5h-413v-697zM198 53v641h385q88 0 138 -46t50 -127
q0 -78 -50.5 -123t-137.5 -45l146 -300h-29l-145 300h-333v-300h-24zM222 377h361q76 0 119.5 40t43.5 110q-1 67 -44 105t-119 38h-361v-293zM250 405v237h333q64 0 99.5 -30t35.5 -85q0 -58 -35.5 -90t-99.5 -32h-333zM274 429h309q111 0 111 98q0 90 -111 90h-309v-188z
" />
    <glyph glyph-name="S" unicode="S" 
d="M422 -17q-226 0 -379 160l93 89q71 -67 134.5 -94.5t166.5 -27.5q33 0 67 6t67.5 19t55 38t21.5 59q0 40 -44 71q-24 17 -54.5 21t-117.5 6l-109 2q-102 2 -164 55.5t-62 140.5q0 73 50.5 132.5t137.5 85.5q63 19 128 19q181 0 316 -108l-72 -103q-79 45 -125 63t-105 18
q-42 0 -83.5 -8t-78.5 -33.5t-37 -64.5q0 -36 26 -52.5t83 -17.5l107 -1q52 -1 79.5 -2.5t68 -12t75.5 -30.5q52 -30 80.5 -80.5t28.5 -109.5q0 -65 -34.5 -114.5t-90 -75.5t-113 -38t-116.5 -12zM422 8q44 0 87.5 6.5t88 22t78 39t54.5 62t21 85.5q0 113 -95 169
q-33 19 -71 28.5t-63 11t-78 2.5l-107 1q-134 2 -134 94q0 37 24 64t61.5 40.5t72.5 19.5t66 6q57 0 105 -17t119 -56l45 65q-124 90 -283 90q-68 0 -121 -18q-80 -27 -125.5 -79t-45.5 -116q0 -77 55.5 -124.5t146.5 -48.5l109 -1q89 -1 124 -5.5t62 -23.5q54 -37 54 -93
q0 -40 -24.5 -70.5t-63 -46t-76 -22.5t-71.5 -7q-101 0 -166.5 26t-134.5 87l-58 -56q138 -135 344 -135zM422 35q-178 0 -305 108l19 17q67 -54 134.5 -77.5t166.5 -23.5q116 0 189 47.5t73 125.5q0 72 -67 116q-33 21 -71.5 26.5t-127.5 7.5l-109 2q-82 1 -128.5 40
t-46.5 104q0 82 78.5 132.5t185.5 50.5q135 0 244 -68l-15 -20q-105 65 -220 65q-104 0 -175.5 -44.5t-71.5 -114.5q0 -118 162 -121l107 -2q57 -1 76.5 -1.5t55.5 -9t66 -26.5q81 -48 81 -146q0 -83 -82.5 -135.5t-218.5 -52.5z" />
    <glyph glyph-name="T" unicode="T" horiz-adv-x="759" 
d="M317 0v617h-257v128h640v-128h-254l-1 -617h-128zM341 25h80l1 617h254l-1 79h-591l1 -79h257zM369 53l1 617h-257l-1 23h535l1 -23h-254l-1 -617h-24z" />
    <glyph glyph-name="U" unicode="U" horiz-adv-x="963" 
d="M681 747h129v-460q0 -57 -8 -98.5t-35 -80.5q-40 -59 -114.5 -90.5t-171.5 -31.5t-171.5 31.5t-114.5 90.5q-27 39 -35 80.5t-8 98.5v460h129v-460q0 -44 7 -71.5t30 -52.5q46 -47 163 -47t163 47q23 25 30 52.5t7 71.5v460zM786 287v436h-81v-436q0 -47 -8 -80.5
t-35 -60.5q-54 -54 -181 -54t-181 54q-27 27 -35 60.5t-8 80.5v436h-81v-436q0 -55 7.5 -92.5t30.5 -72.5q75 -111 267 -111t267 111q23 35 30.5 72.5t7.5 92.5zM481 64q138 0 200 63q52 53 52 160v408h25v-408q0 -57 -7 -89.5t-26 -60.5q-66 -97 -244 -97q-177 0 -244 97
q-19 28 -26 60.5t-7 89.5v408h25v-408q0 -58 11.5 -95t40.5 -65q64 -63 200 -63z" />
    <glyph glyph-name="V" unicode="V" 
d="M673 745h142l-332 -745h-141l-327 745h140l258 -585zM467 25l311 696h-89l-276 -621l-274 621h-87l306 -696h109zM707 694h28l-286 -642h-46h-27l-281 641h26l271 -617h42z" />
    <glyph glyph-name="W" unicode="W" horiz-adv-x="1020" 
d="M858 746h141l-229 -746h-130l-133 478l-133 -478h-130l-229 746h140l150 -491l137 491h130l137 -491zM752 25l214 697h-90l-169 -554l-155 554h-91l-154 -554l-169 554h-90l213 -697h95l151 542l151 -542h94zM900 693h27l-197 -640h-48l-172 616h-6l-172 -616h-48
l-197 640h27l189 -616h12l171 616h38h4l171 -616h12z" />
    <glyph glyph-name="X" unicode="X" horiz-adv-x="809" 
d="M20 0l304 404l-245 342h156l172 -233l175 233h159l-251 -342l296 -404h-163l-216 296l-223 -296h-164zM68 25h105l234 311l228 -311h103l-279 379l234 318h-99l-187 -250l-183 250h-99l230 -318zM124 52l266 351l-210 291h29l198 -268l201 268h29l-213 -290l259 -352h-34
l-241 332l-250 -332h-34z" />
    <glyph glyph-name="Y" unicode="Y" horiz-adv-x="772" 
d="M323 0v321l-304 425h158l210 -298l217 298h157l-309 -425v-321h-129zM348 25h80v303l285 394h-98l-228 -314l-222 314h-100l283 -394v-303zM375 53v284l-255 357h28l239 -335l243 334h28l-258 -356v-284h-25z" />
    <glyph glyph-name="Z" unicode="Z" horiz-adv-x="704" 
d="M227 132h453v-132h-620l-40 87l448 528h-405v130h569l45 -85zM656 25v83h-482l474 555l-31 58h-530v-82h433l-472 -556l28 -58h580zM115 81v-1h513v-27h-534l-13 26l499 586l-1 2h-464v26h485l14 -26z" />
    <glyph glyph-name="a" unicode="a" 
d="M483 745l333 -745h-140l-103 236h-309l-107 -236h-140l338 745h128zM588 260l104 -235h87l-312 696h-96l-317 -696h88l107 234zM449 693l287 -640h-26l-105 235h-375l-107 -235h-26l292 640h26h32h2zM240 310h355l-161 359h-30zM287 342l132 292l132 -292h-264zM323 366
h192l-96 210z" />
    <glyph glyph-name="b" unicode="b" horiz-adv-x="907" 
d="M149 0v747h426q101 0 163 -58t62 -153q0 -91 -55 -144q42 -21 65.5 -69t23.5 -109q0 -102 -71.5 -158t-187.5 -56h-426zM174 25h401q108 0 171 49t63 140q0 63 -26.5 108.5t-78.5 65.5q72 58 72 148q0 85 -54.5 135.5t-146.5 50.5h-401v-697zM575 52l-373 1v641h373
q80 0 126 -42t46 -116q0 -113 -100 -152q62 -9 98.5 -52t36.5 -117q0 -79 -55.5 -121t-151.5 -42zM226 395h349q67 0 107 38t40 102t-39 99.5t-108 35.5h-349v-275zM254 423v219h321q58 0 88.5 -27.5t30.5 -79.5t-32 -82t-87 -30h-321zM278 447h297q45 0 70 23t25 65
q0 82 -95 82h-297v-170zM226 76h359q81 0 127 37t46 109q0 70 -48.5 109.5t-134.5 39.5h-349v-295zM254 104v239h321q74 0 115 -31.5t41 -88.5q0 -58 -40 -88.5t-106 -30.5h-331zM278 128h307q56 0 89 24t33 71t-34 71.5t-98 24.5h-297v-191z" />
    <glyph glyph-name="c" unicode="c" horiz-adv-x="926" 
d="M513 -17q-181 0 -300 111t-119 281q0 166 113.5 277t283.5 111q208 0 366 -161l-96 -82q-130 113 -264 113q-119 0 -197 -74t-78 -186q0 -114 83.5 -187t213.5 -73q80 0 139 27.5t124 94.5l85 -93q-130 -159 -354 -159zM513 7q201 0 322 135l-54 58q-62 -60 -122.5 -85.5
t-139.5 -25.5q-141 0 -231 79.5t-90 204.5q0 123 85 203.5t214 80.5q136 0 264 -105l60 51q-145 136 -330 136q-159 0 -266 -104t-107 -260q0 -160 112 -264t283 -104zM513 36q-160 0 -263.5 95.5t-103.5 243.5q0 144 98.5 240t246.5 96q157 0 287 -107l-18 -16
q-128 98 -263 98q-140 0 -233.5 -89.5t-93.5 -223.5q0 -137 98.5 -225t250.5 -88q78 0 139.5 23.5t120.5 76.5l17 -18q-107 -106 -283 -106z" />
    <glyph glyph-name="d" unicode="d" horiz-adv-x="926" 
d="M151 0v746h360q148 0 250 -107.5t102 -262.5q0 -156 -99.5 -266t-249.5 -110h-363zM175 25h339q141 0 233 103t92 248q0 146 -95 246t-233 100h-336v-697zM514 52l-311 1v641h308q127 0 213.5 -92t85.5 -226q-2 -141 -83 -233t-213 -91zM227 76h287q116 0 194 84t78 208
q0 131 -77.5 216t-196.5 86l-285 1v-595zM255 106v535h257q108 0 176.5 -76.5t68.5 -196.5q0 -112 -69.5 -187t-173.5 -75h-259zM279 130h235q94 0 156.5 68t62.5 170q0 109 -61.5 178.5t-159.5 69.5h-233v-486z" />
    <glyph glyph-name="e" unicode="e" horiz-adv-x="852" 
d="M151 0v746h618v-131h-488v-164h245v-128h-245v-193h506v-130h-636zM175 25h588v81h-506v241h245v80h-245v213h488v82h-570v-697zM203 53v640h514v-24h-489v-270h246v-24h-246v-298h507v-24h-532z" />
    <glyph glyph-name="f" unicode="f" 
d="M153 0v745h614v-128h-486v-176h296v-131h-296v-310h-128zM177 25h80v309h296v83h-296v224h486v80h-566v-696zM205 53v640h510v-24h-486l1 -282h295v-24h-296v-310h-24z" />
    <glyph glyph-name="g" unicode="g" horiz-adv-x="907" 
d="M504 -17q-173 0 -290 112.5t-117 278.5q0 167 117 277.5t292 110.5q98 0 173.5 -33.5t149.5 -110.5l-90 -92q-50 58 -102 82.5t-125 24.5q-126 0 -207.5 -73t-81.5 -187q0 -115 81 -188t206 -73q38 0 80 10q55 14 89 41t34 58v69h-229v129h357v-205q0 -72 -56 -130
t-149 -84q-62 -17 -132 -17zM504 7q70 0 125 16q86 25 137 76.5t51 114.5v181h-309v-81h229v-93q0 -41 -39 -75t-102 -48q-45 -10 -86 -10q-136 0 -223.5 80.5t-87.5 204.5t88.5 204t224.5 80q71 0 125 -22.5t103 -73.5l55 57q-66 64 -133.5 92t-155.5 28
q-165 0 -274.5 -103.5t-110.5 -260.5t109 -262t274 -105zM504 35q-152 0 -254 97t-102 242q0 144 102.5 240t255.5 96q76 0 134.5 -22t114.5 -71l-16 -16q-91 84 -227 84q-148 0 -243.5 -87.5t-95.5 -224.5t95 -225.5t242 -88.5q93 0 174 45t81 117v121h-229v25h253v-153
q0 -54 -42.5 -96t-107 -62.5t-135.5 -20.5z" />
    <glyph glyph-name="h" unicode="h" horiz-adv-x="963" 
d="M155 0v745h128v-291h400v291h130v-745h-130v323h-400v-323h-128zM179 25h80v322h448v-322h82v696h-82v-292h-448v292h-80v-696zM207 53v640h24v-293h504v293h26v-640h-26v323h-504v-323h-24z" />
    <glyph glyph-name="i" unicode="i" horiz-adv-x="389" 
d="M133 0v745h128v-745h-128zM157 25h79v696h-79v-696zM185 53v640h23v-640h-23z" />
    <glyph glyph-name="j" unicode="j" horiz-adv-x="815" 
d="M345 -17q-125 0 -197.5 49.5t-127.5 164.5l117 58q36 -83 79.5 -112.5t125.5 -29.5q100 0 148 44.5t48 139.5v449h128v-464q0 -142 -87.5 -220.5t-233.5 -78.5zM345 8q137 0 217 71t80 203v440h-80v-425q0 -208 -220 -208q-83 0 -131.5 29.5t-85.5 103.5l-72 -37
q47 -95 114.5 -136t177.5 -41zM345 36q-95 0 -154 31.5t-101 106.5l24 11q38 -68 90.5 -96.5t137.5 -28.5q124 0 186 59.5t61 177.5l1 397h24v-412q0 -117 -70 -181.5t-199 -64.5z" />
    <glyph glyph-name="k" unicode="k" 
d="M146 0v746h129v-360l338 360h179l-252 -265l277 -481l-150 1l-218 383l-174 -184v-200h-129zM170 25h81v185l202 215l228 -400h93l-263 460l225 237h-113l-372 -395v395h-81v-697zM697 52l-239 420l-236 -251v-168h-24v641h24v-439l414 439h33l-193 -204l250 -438h-29z
" />
    <glyph glyph-name="l" unicode="l" horiz-adv-x="741" 
d="M153 0v745h129v-615h439v-130h-568zM177 25h520v81h-439v615h-81v-696zM205 53v640h24v-616h440v-24h-464z" />
    <glyph glyph-name="m" unicode="m" horiz-adv-x="1037" 
d="M765 746h123v-746h-129v470l-244 -423l-237 423v-470h-129v746h124l242 -437zM863 25v697h-85l-263 -463l-255 463h-86v-697h80v538l261 -467l268 467v-538h80zM242 693l273 -493l281 493h39v-640h-24v616h-2l-294 -514l-287 514h-2v-616h-24v640h40z" />
    <glyph glyph-name="n" unicode="n" horiz-adv-x="963" 
d="M689 746h128v-746h-117l-420 527v-527h-130v746h118l421 -529v529zM793 25v697h-80v-574l-456 574h-82v-697h81v571l456 -571h81zM736 76h5v618h24v-642h-40l-495 617h-3v-616h-24v640h40z" />
    <glyph glyph-name="o" unicode="o" horiz-adv-x="1000" 
d="M500 -17q-168 0 -285 116.5t-117 278.5q0 164 117.5 276.5t284.5 112.5q168 0 285 -112.5t117 -276.5q0 -162 -118 -278.5t-284 -116.5zM500 7q157 0 267.5 109.5t110.5 261.5q0 155 -109.5 260t-268.5 105q-158 0 -268 -105.5t-110 -259.5q0 -152 110 -261.5t268 -109.5
zM500 37q-147 0 -249 100.5t-102 240.5q-1 142 101.5 239t249.5 97q148 0 249 -96.5t101 -239.5q0 -140 -102.5 -240.5t-247.5 -100.5zM500 61q136 0 231 92.5t95 224.5q-1 132 -94.5 222t-231.5 90q-140 0 -233.5 -90t-93.5 -222t95.5 -224.5t231.5 -92.5zM500 90
q-125 0 -212 83.5t-87 204.5q0 120 85.5 201.5t213.5 81.5q126 0 212 -82t86 -201q0 -121 -86.5 -204.5t-211.5 -83.5zM500 114q114 -1 194 76.5t80 187.5t-78.5 184.5t-195.5 74.5q-118 0 -196 -74.5t-78 -184.5t79.5 -186.5t194.5 -77.5z" />
    <glyph glyph-name="p" unicode="p" horiz-adv-x="870" 
d="M152 0v746h430q102 0 162.5 -59.5t60.5 -159.5t-61 -160t-162 -60h-300v-307h-130zM176 25h82v306h324q91 0 145 53.5t54 142.5q0 91 -53 143t-146 52h-406v-697zM204 53v640h378q81 0 125.5 -43.5t44.5 -122.5q0 -78 -45.5 -122.5t-124.5 -44.5h-352v-307h-26zM230 384
h352q69 0 107.5 38t38.5 105q0 69 -37.5 105.5t-108.5 36.5l-352 1v-286zM258 413v228h324q119 0 119 -114q0 -55 -30.5 -84.5t-88.5 -29.5h-324zM282 438h300q95 0 95 89q0 46 -22.5 67.5t-72.5 21.5h-300v-178z" />
    <glyph glyph-name="q" unicode="q" horiz-adv-x="1000" 
d="M741 -92l-97 101q-77 -26 -144 -26q-167 0 -283 113.5t-116 277.5q0 162 118 277.5t284 115.5q169 0 285 -114.5t116 -280.5q0 -176 -145 -296l91 -93zM745 -61l68 48l-90 91q82 62 119.5 133t37.5 161q0 157 -108.5 264t-268.5 107q-157 0 -267.5 -108.5t-110.5 -260.5
q0 -154 108.5 -260t266.5 -106q70 0 150 28zM748 -24l-90 94q-82 -35 -158 -35q-146 0 -246.5 98t-100.5 241q-1 140 102 240t248 100q148 0 248.5 -98.5t100.5 -243.5q0 -91 -39.5 -158t-131.5 -132l89 -91zM507 59q65 0 131 31l-46 50l21 13l50 -52q86 56 125.5 121.5
t39.5 155.5q0 132 -94.5 222t-232.5 90t-232 -91t-94 -223q0 -134 95.5 -225.5t236.5 -91.5zM507 88q-129 0 -216.5 82.5t-87.5 205.5q0 121 86 203t212 82t212 -81.5t86 -201.5q0 -145 -133 -239l-49 48l-71 -42l41 -42q-40 -15 -80 -15zM507 112q18 0 36 3l-34 34l112 69
l47 -47q107 82 107 207q0 110 -78.5 184.5t-195.5 74.5t-195 -75t-78 -186q0 -113 80 -188.5t199 -75.5z" />
    <glyph glyph-name="r" unicode="r" horiz-adv-x="889" 
d="M145 0v746h438q109 0 174.5 -61t65.5 -164q0 -81 -42 -136t-120 -75l152 -310h-146l-145 299h-248v-299h-129zM170 25h80v299h288l145 -299h91l-147 302q83 13 127.5 63.5t44.5 130.5q0 92 -58 146.5t-158 54.5h-413v-697zM198 53v641h385q88 0 138 -46t50 -127
q0 -78 -50.5 -123t-137.5 -45l146 -300h-29l-145 300h-333v-300h-24zM222 377h361q76 0 119.5 40t43.5 110q-1 67 -44 105t-119 38h-361v-293zM250 405v237h333q64 0 99.5 -30t35.5 -85q0 -58 -35.5 -90t-99.5 -32h-333zM274 429h309q111 0 111 98q0 90 -111 90h-309v-188z
" />
    <glyph glyph-name="s" unicode="s" 
d="M422 -17q-226 0 -379 160l93 89q71 -67 134.5 -94.5t166.5 -27.5q33 0 67 6t67.5 19t55 38t21.5 59q0 40 -44 71q-24 17 -54.5 21t-117.5 6l-109 2q-102 2 -164 55.5t-62 140.5q0 73 50.5 132.5t137.5 85.5q63 19 128 19q181 0 316 -108l-72 -103q-79 45 -125 63t-105 18
q-42 0 -83.5 -8t-78.5 -33.5t-37 -64.5q0 -36 26 -52.5t83 -17.5l107 -1q52 -1 79.5 -2.5t68 -12t75.5 -30.5q52 -30 80.5 -80.5t28.5 -109.5q0 -65 -34.5 -114.5t-90 -75.5t-113 -38t-116.5 -12zM422 8q44 0 87.5 6.5t88 22t78 39t54.5 62t21 85.5q0 113 -95 169
q-33 19 -71 28.5t-63 11t-78 2.5l-107 1q-134 2 -134 94q0 37 24 64t61.5 40.5t72.5 19.5t66 6q57 0 105 -17t119 -56l45 65q-124 90 -283 90q-68 0 -121 -18q-80 -27 -125.5 -79t-45.5 -116q0 -77 55.5 -124.5t146.5 -48.5l109 -1q89 -1 124 -5.5t62 -23.5q54 -37 54 -93
q0 -40 -24.5 -70.5t-63 -46t-76 -22.5t-71.5 -7q-101 0 -166.5 26t-134.5 87l-58 -56q138 -135 344 -135zM422 35q-178 0 -305 108l19 17q67 -54 134.5 -77.5t166.5 -23.5q116 0 189 47.5t73 125.5q0 72 -67 116q-33 21 -71.5 26.5t-127.5 7.5l-109 2q-82 1 -128.5 40
t-46.5 104q0 82 78.5 132.5t185.5 50.5q135 0 244 -68l-15 -20q-105 65 -220 65q-104 0 -175.5 -44.5t-71.5 -114.5q0 -118 162 -121l107 -2q57 -1 76.5 -1.5t55.5 -9t66 -26.5q81 -48 81 -146q0 -83 -82.5 -135.5t-218.5 -52.5z" />
    <glyph glyph-name="t" unicode="t" horiz-adv-x="759" 
d="M317 0v617h-257v128h640v-128h-254l-1 -617h-128zM341 25h80l1 617h254l-1 79h-591l1 -79h257zM369 53l1 617h-257l-1 23h535l1 -23h-254l-1 -617h-24z" />
    <glyph glyph-name="u" unicode="u" horiz-adv-x="963" 
d="M681 747h129v-460q0 -57 -8 -98.5t-35 -80.5q-40 -59 -114.5 -90.5t-171.5 -31.5t-171.5 31.5t-114.5 90.5q-27 39 -35 80.5t-8 98.5v460h129v-460q0 -44 7 -71.5t30 -52.5q46 -47 163 -47t163 47q23 25 30 52.5t7 71.5v460zM786 287v436h-81v-436q0 -47 -8 -80.5
t-35 -60.5q-54 -54 -181 -54t-181 54q-27 27 -35 60.5t-8 80.5v436h-81v-436q0 -55 7.5 -92.5t30.5 -72.5q75 -111 267 -111t267 111q23 35 30.5 72.5t7.5 92.5zM481 64q138 0 200 63q52 53 52 160v408h25v-408q0 -57 -7 -89.5t-26 -60.5q-66 -97 -244 -97q-177 0 -244 97
q-19 28 -26 60.5t-7 89.5v408h25v-408q0 -58 11.5 -95t40.5 -65q64 -63 200 -63z" />
    <glyph glyph-name="v" unicode="v" 
d="M673 745h142l-332 -745h-141l-327 745h140l258 -585zM467 25l311 696h-89l-276 -621l-274 621h-87l306 -696h109zM707 694h28l-286 -642h-46h-27l-281 641h26l271 -617h42z" />
    <glyph glyph-name="w" unicode="w" horiz-adv-x="1020" 
d="M858 746h141l-229 -746h-130l-133 478l-133 -478h-130l-229 746h140l150 -491l137 491h130l137 -491zM752 25l214 697h-90l-169 -554l-155 554h-91l-154 -554l-169 554h-90l213 -697h95l151 542l151 -542h94zM900 693h27l-197 -640h-48l-172 616h-6l-172 -616h-48
l-197 640h27l189 -616h12l171 616h38h4l171 -616h12z" />
    <glyph glyph-name="x" unicode="x" horiz-adv-x="809" 
d="M20 0l304 404l-245 342h156l172 -233l175 233h159l-251 -342l296 -404h-163l-216 296l-223 -296h-164zM68 25h105l234 311l228 -311h103l-279 379l234 318h-99l-187 -250l-183 250h-99l230 -318zM124 52l266 351l-210 291h29l198 -268l201 268h29l-213 -290l259 -352h-34
l-241 332l-250 -332h-34z" />
    <glyph glyph-name="y" unicode="y" horiz-adv-x="772" 
d="M323 0v321l-304 425h158l210 -298l217 298h157l-309 -425v-321h-129zM348 25h80v303l285 394h-98l-228 -314l-222 314h-100l283 -394v-303zM375 53v284l-255 357h28l239 -335l243 334h28l-258 -356v-284h-25z" />
    <glyph glyph-name="z" unicode="z" horiz-adv-x="704" 
d="M227 132h453v-132h-620l-40 87l448 528h-405v130h569l45 -85zM656 25v83h-482l474 555l-31 58h-530v-82h433l-472 -556l28 -58h580zM115 81v-1h513v-27h-534l-13 26l499 586l-1 2h-464v26h485l14 -26z" />
  </font>
</defs>
</svg>
