<?xml version="1.0" standalone="no"?>
<!DOCTYPE svg PUBLIC "-//W3C//DTD SVG 1.1//EN" "http://www.w3.org/Graphics/SVG/1.1/DTD/svg11.dtd" >
<svg>
<metadata>
Created by FontForge 20120731 at Thu Aug 17 00:10:53 2017
 By www-data
[c] Copyright 1999, Carter &#38; Cone Type, Inc. and The Font Bureau, Inc. Miller is a Trademark of Carter &#38; Cone Type, Inc. and The Font Bureau, Inc. All rights reserved.
</metadata>
<defs>
<font id="MillerBanner-Black" horiz-adv-x="1024" >
  <font-face 
    font-family="MillerBanner Black"
    font-weight="800"
    font-stretch="normal"
    units-per-em="2048"
    panose-1="2 0 5 4 9 0 0 2 0 3"
    ascent="1565"
    descent="-483"
    x-height="967"
    cap-height="1399"
    bbox="-360 -490.053 2609 1952"
    underline-thickness="20"
    underline-position="-113"
    unicode-range="U+0020-FB04"
  />
<missing-glyph horiz-adv-x="401" 
 />
    <glyph glyph-name="f_f" unicode="ff" horiz-adv-x="1393" 
d="M27 14q26 2 47 5.5t41 11.5q53 20 53 90v809h-197v37h197v22q0 62 7.5 115t24 99t43 87.5t64.5 81.5q32 33 76.5 59.5t96.5 45.5t108.5 29t113.5 10q58 0 105 -11.5t82 -30.5t58.5 -43t35.5 -49q31 31 73 58t90.5 47t102 31.5t109.5 11.5q84 0 143 -19.5t97 -50t55.5 -68
t17.5 -73.5q0 -30 -11.5 -58t-32.5 -50t-50.5 -35t-65.5 -13q-34 0 -63 8.5t-50.5 26t-33.5 42.5t-12 58q0 18 5.5 38t13 41t15.5 43t13 44q0 19 -16.5 32t-36.5 13q-39 0 -69 -30.5t-49.5 -87t-29.5 -136.5t-10 -180v-108h250v-37h-248v-805q0 -32 13.5 -55.5t41.5 -34.5
q12 -5 29 -8.5t35 -6t36 -4t31 -2.5v-14h-647v14q25 2 45.5 8.5t32.5 18.5q14 12 19 31.5t5 48.5v809h-305v-801q0 -63 29 -86q14 -11 44.5 -17.5t59.5 -11.5v-14h-632v14zM831 967v26q0 50 6 91.5t15 76.5q-32 0 -62 8t-52.5 24.5t-36 41t-13.5 57.5q0 35 15 74.5t24 83.5
q0 19 -12.5 32t-32.5 13q-78 0 -116 -97t-42 -296v-135h307z" />
    <glyph glyph-name="f_f_i" unicode="ffi" horiz-adv-x="1989" 
d="M27 14q26 2 47 5.5t41 11.5q53 20 53 90v809h-197v37h197v22q0 62 7.5 115t24 99t43 87.5t64.5 81.5q32 33 76.5 59.5t96.5 45.5t108.5 29t113.5 10q58 0 105 -11.5t82 -30.5t58.5 -43t35.5 -49q31 31 80.5 58t109 47t126.5 31.5t133 11.5q93 0 168.5 -20.5t128.5 -55
t81.5 -79.5t28.5 -95q0 -26 -10.5 -55t-31 -54.5t-51 -42t-71.5 -16.5q-35 0 -65.5 9t-54 27.5t-37 45.5t-13.5 63q0 20 5 41.5t10.5 44t10.5 46t5 49.5q0 32 -24.5 50.5t-79.5 18.5q-115 0 -177 -110t-67 -322v-108h278q48 0 97.5 2t97.5 5t93 8t83 11l8 -8v-854
q0 -32 14 -57t42 -39q21 -11 42 -14.5t46 -6.5v-14h-609v14q57 3 80 23q16 14 21.5 34.5t5.5 49.5v708q0 66 -49 101h-248v-805q0 -32 11.5 -57.5t39.5 -36.5q23 -10 39 -12.5t35 -4.5v-14h-586v14q25 2 45.5 8.5t32.5 18.5q14 12 19 31.5t5 48.5v809h-305v-801
q0 -63 29 -86q14 -11 44.5 -17.5t59.5 -11.5v-14h-632v14zM831 967v26q0 50 6 91.5t15 76.5q-32 0 -62 8t-52.5 24.5t-36 41t-13.5 57.5q0 35 15 74.5t24 83.5q0 19 -12.5 32t-32.5 13q-78 0 -116 -97t-42 -296v-135h307z" />
    <glyph glyph-name="f_f_l" unicode="ffl" horiz-adv-x="1989" 
d="M27 14q26 2 47 5.5t41 11.5q53 20 53 90v809h-197v37h197v22q0 62 7.5 115t24 99t43 87.5t64.5 81.5q32 33 76.5 59.5t96.5 45.5t108.5 29t113.5 10q58 0 105 -11.5t82 -30.5t58.5 -43t35.5 -49q31 31 71.5 58t89.5 47t107.5 31.5t126.5 11.5q26 0 53.5 -2.5t53.5 -7.5
t49 -12.5t41 -16.5l260 37l8 -8v-1395q0 -34 9.5 -59t37.5 -37q22 -10 44.5 -11t50.5 -4v-14h-603v14q56 3 80 21q16 12 20.5 33.5t4.5 52.5v1038q-12 7 -26 18.5t-25.5 27.5t-19 36.5t-7.5 46.5q0 48 24 81t52 54q-19 42 -50 62t-69 20q-78 0 -126 -95t-52 -294v-149h209
v-37h-207v-801q0 -26 5 -47t24 -37q12 -11 32.5 -18.5t51.5 -12.5v-14h-574v14q25 2 45.5 8.5t32.5 18.5q14 12 19 31.5t5 48.5v809h-305v-801q0 -63 29 -86q14 -11 44.5 -17.5t59.5 -11.5v-14h-632v14zM831 967v26q0 50 6 91.5t15 76.5q-32 0 -62 8t-52.5 24.5t-36 41
t-13.5 57.5q0 35 15 74.5t24 83.5q0 19 -12.5 32t-32.5 13q-78 0 -116 -97t-42 -296v-135h307z" />
    <glyph glyph-name="f_j" unicode="fj" horiz-adv-x="1300" 
d="M666 -467q-83 0 -136 17.5t-83 45.5t-41 64t-11 72q0 27 10.5 53.5t30 46.5t48 32.5t63.5 12.5q30 0 56.5 -9t47 -26t32 -43.5t11.5 -60.5q0 -40 -15.5 -84.5t-35.5 -93.5q8 -2 23 -3t18 -1q43 0 70 28.5t42.5 84t21 137.5t5.5 188v823q0 67 -49 101h-248v-789
q0 -23 3.5 -40t11.5 -30q12 -20 36.5 -29t59.5 -16v-14h-610v14q26 2 47 5.5t41 11.5q53 20 53 90v797h-197v36h197v27q0 125 34 223t105 166q32 31 80 60t108 51.5t129 35.5t144 13q94 0 169.5 -20.5t128.5 -55t81.5 -79.5t28.5 -95q0 -26 -10.5 -55t-31 -54.5t-51.5 -42
t-71 -16.5q-35 0 -65.5 9t-54 27.5t-37 45.5t-13.5 63q0 20 4.5 41.5t10.5 44t10.5 46t4.5 49.5q0 32 -24 50.5t-80 18.5q-115 0 -177 -110t-67 -322v-121h279q96 0 194.5 7.5t176.5 19.5l8 -8v-879q0 -256 -148 -411q-30 -32 -71.5 -59.5t-90 -47.5t-101.5 -31.5
t-105 -11.5z" />
    <glyph glyph-name="f_i" unicode="fi" horiz-adv-x="1325" 
d="M27 14q26 2 47 5.5t41 11.5q53 20 53 90v809h-197v37h197v26q0 125 34 217t105 160q32 31 80 60t108 51.5t129 35.5t144 13q94 0 169.5 -20.5t128.5 -55t81.5 -79.5t28.5 -95q0 -26 -10.5 -55t-31 -54.5t-51.5 -42t-71 -16.5q-35 0 -65.5 9t-54 27.5t-37 45.5t-13.5 63
q0 20 4.5 41.5t10.5 44t10.5 46t4.5 49.5q0 32 -24 50.5t-80 18.5q-115 0 -177 -110t-67 -322v-108h279q96 0 194.5 7t176.5 19l8 -8v-854q0 -32 13.5 -56t41.5 -36q22 -12 42.5 -17t45.5 -8v-14h-608v14q56 3 80 23q15 14 20.5 34.5t5.5 49.5v708q0 67 -49 101h-248v-801
q0 -23 3.5 -40t11.5 -30q12 -20 36.5 -29t59.5 -16v-14h-610v14z" />
    <glyph glyph-name="f_l" unicode="fl" horiz-adv-x="1325" 
d="M27 14q26 2 47 5.5t41 11.5q53 20 53 90v809h-197v37h197v26q0 125 34 217.5t105 161.5q32 32 73.5 61t92.5 50.5t111.5 34t130.5 12.5q26 0 53 -2.5t53 -7.5t49 -12.5t41 -16.5l260 37l9 -8v-1395q0 -34 9.5 -59t37.5 -37q21 -10 43.5 -11t50.5 -4v-14h-602v14
q54 3 80 21q15 12 19.5 33.5t4.5 52.5v1038q-12 7 -25.5 18.5t-25.5 27.5t-19.5 36.5t-7.5 46.5q0 48 24 81t52 54q-18 42 -49 62t-70 20q-78 0 -126 -95t-52 -294v-149h209v-37h-207v-801q0 -26 5 -47t24 -37q12 -11 32.5 -18.5t51.5 -12.5v-14h-612v14z" />
    <glyph glyph-name="f_t" unicode="ft" horiz-adv-x="1505" 
d="M526 930v-805q0 -32 14 -55.5t42 -34.5q11 -5 28 -8.5t35.5 -6t36.5 -4t31 -2.5v-14h-686v14q26 2 47 3.5t41 9.5q53 20 53 90v813h-197v37h197v26q0 62 7.5 116.5t24 102.5t43 91t64.5 83q32 33 75.5 60t93.5 45.5t105.5 28.5t112.5 10q84 0 143.5 -19.5t97.5 -50
t55.5 -68t17.5 -73.5q0 -22 -6 -41.5t-15 -36.5h195v-274h258v-37h-258v-649q0 -31 5.5 -62t19 -56t36 -41t57.5 -16q36 0 62.5 15.5t43.5 41t25.5 58t10.5 66.5h24q-3 -156 -89.5 -235t-248.5 -79q-81 0 -139 20t-95 58t-54 92.5t-17 122.5v664h-297zM827 967v196
q-30 3 -55 13t-44 27t-29.5 41t-10.5 54q0 18 5.5 38t13.5 41t15.5 43t12.5 44q0 19 -16.5 32t-36.5 13q-39 0 -68.5 -30.5t-49.5 -87t-30 -136.5t-10 -180v-108h303z" />
    <glyph glyph-name=".notdef" horiz-adv-x="401" 
 />
    <glyph glyph-name="NUL" horiz-adv-x="0" 
 />
    <glyph glyph-name="nonmarkingreturn" horiz-adv-x="401" 
 />
    <glyph glyph-name="space" unicode=" " horiz-adv-x="401" 
 />
    <glyph glyph-name="parenleft" unicode="(" horiz-adv-x="727" 
d="M573 -328q-118 84 -211 190t-157 226.5t-97.5 252t-33.5 267.5q0 122 29.5 244.5t90.5 240.5t155 229t222 210l88 -55q-118 -90 -204 -192.5t-142.5 -212.5t-83.5 -225.5t-28 -230.5q-2 -128 28.5 -252t89 -238.5t144.5 -215.5t196 -182l-86 -56v0z" />
    <glyph glyph-name="parenright" unicode=")" horiz-adv-x="727" 
d="M68 -272q118 90 204 192t142.5 212.5t83.5 225.5t28 230q1 127 -29.5 252t-89 239.5t-144 215.5t-195.5 182l86 55q118 -84 211 -189.5t157 -226.5t97.5 -252.5t33.5 -267.5q0 -122 -29.5 -244.5t-90.5 -240.5t-155 -229t-222 -210z" />
    <glyph glyph-name="comma" unicode="," horiz-adv-x="551" 
d="M98 -383q112 54 179.5 154.5t78.5 228.5h-71q-65 0 -107 16.5t-67 43.5t-35 60.5t-10 67.5q0 32 12 64t34.5 57.5t56 41.5t75.5 16q60 0 105 -21t75 -59t45.5 -93t15.5 -122q0 -75 -27.5 -146.5t-77 -134t-118 -113t-149.5 -84.5z" />
    <glyph glyph-name="hyphen" unicode="-" horiz-adv-x="811" 
d="M61 649h689v-262h-689v262z" />
    <glyph glyph-name="hyphen" unicode="&#xad;" horiz-adv-x="811" 
d="M61 649h689v-262h-689v262z" />
    <glyph glyph-name="period" unicode="." horiz-adv-x="551" 
d="M276 -27q-41 0 -78 15t-64.5 42t-43.5 63.5t-16 78.5t16 78.5t43.5 63.5t64.5 42t78 15q42 0 78.5 -15t64.5 -42t44 -63.5t16 -78.5t-16 -78.5t-44 -63.5t-64.5 -42t-78.5 -15z" />
    <glyph glyph-name="zero" unicode="0" horiz-adv-x="1411" 
d="M692 -33q-138 0 -254 45t-199.5 127t-130.5 197t-47 256q0 116 27 211.5t74.5 171t111 131.5t136 93t151.5 55t156 18q139 0 255 -44.5t200 -126t131 -197t47 -257.5q0 -115 -27 -210.5t-73.5 -171t-110 -131.5t-136.5 -93t-152.5 -55.5t-158.5 -18.5zM700 -8
q110 0 167 160t57 469q0 139 -9.5 254.5t-34 198t-66 128t-105.5 45.5q-107 0 -164.5 -159t-57.5 -470q0 -143 9.5 -259t34 -197.5t65.5 -125.5t104 -44z" />
    <glyph glyph-name="one" unicode="1" horiz-adv-x="961" 
d="M932 0h-846v16l35 2.5t44 4.5t46 7t41 9q28 9 47.5 31t19.5 65v963h-28q-74 0 -141 25t-119 85l6 13q57 -25 126.5 -37.5t162.5 -12.5q65 0 122.5 8t106.5 20.5t87.5 29t66.5 33.5h30q-14 -70 -18 -150.5t-4 -173.5v-799q0 -40 15.5 -63t43.5 -35q12 -5 31 -9.5t41 -7.5
t44 -5t40 -3v-16z" />
    <glyph glyph-name="two" unicode="2" horiz-adv-x="1264" 
d="M80 145q55 40 109.5 79.5t109.5 80.5t111.5 86.5t115.5 97.5q64 58 109 116t73.5 120t41 129t12.5 143q0 56 -9.5 102t-29.5 79t-51.5 51t-75.5 18q-64 0 -110.5 -35.5t-77 -90t-45.5 -121t-15 -128.5q0 -74 30.5 -120.5t90.5 -46.5q33 0 59 10t47 25t38 33t32 34l12 -10
q-22 -39 -55 -80.5t-75 -75t-93 -55t-110 -21.5q-64 0 -113 18t-82.5 51.5t-50.5 81t-17 105.5q0 92 44 174t121.5 143.5t183 97.5t227.5 36q63 0 125.5 -6t120 -20.5t107 -39t86 -61t57 -87t20.5 -116.5q0 -100 -50 -185.5t-145.5 -159t-233 -135t-312.5 -112.5l-93 -65
h666q41 0 72 19.5t55 49.5t42.5 65.5t33.5 67.5l16 -6l-127 -481h-1007z" />
    <glyph glyph-name="three" unicode="3" horiz-adv-x="1243" 
d="M461 -55q-52 0 -106.5 5.5t-106 18.5t-96.5 34.5t-79 52.5t-53.5 73t-19.5 96q0 59 19.5 105t52.5 77.5t77 47.5t93 16q40 0 71 -12t52.5 -31.5t33 -44t11.5 -49.5q0 -37 -13.5 -64.5t-33.5 -49.5t-43.5 -40t-43.5 -34.5t-33.5 -32.5t-13.5 -35q0 -29 17 -50.5
t45.5 -35.5t66.5 -20.5t80 -6.5q77 0 139 35t106 95t67.5 140.5t23.5 172.5q0 51 -5 94t-19 75t-39 50t-66 18q-27 0 -54 -12.5t-53.5 -32t-51.5 -44.5t-48 -50l-59 86q84 48 152.5 89t117.5 87t76 102t27 134q0 57 -12.5 101.5t-35 75.5t-52.5 47.5t-64 16.5
q-53 0 -94.5 -20.5t-70 -55.5t-43.5 -82t-15 -100q0 -81 28.5 -118.5t77.5 -37.5q42 0 77.5 23t61.5 51l13 -10q-25 -42 -56.5 -76t-68 -58.5t-78 -38t-86.5 -13.5q-57 0 -103.5 12.5t-79.5 39t-50.5 67.5t-16.5 98q1 84 49 149t128.5 108.5t185 66t217.5 22.5
q100 0 190.5 -15t159.5 -47t110 -83t41 -123q0 -67 -39.5 -120.5t-112 -93t-173.5 -64.5t-224 -34l-30 -24q4 1 19 2t31.5 2t31.5 1.5t20 0.5q96 0 187.5 -13t162.5 -45t114.5 -86.5t43.5 -138.5q0 -71 -29.5 -132t-81.5 -110.5t-123 -87.5t-152.5 -64t-170.5 -39t-178 -13z
" />
    <glyph glyph-name="four" unicode="4" horiz-adv-x="1300" 
d="M348 14q14 1 32.5 3t39 5.5t40 7.5t34.5 9q27 8 47 32t20 58v285h-541v30l701 842h235v-821h146q16 0 32.5 4t31.5 11.5t26.5 18.5t17.5 25q11 23 18.5 57t10.5 62h14v-422h-14q-2 14 -5.5 31.5t-8 35t-9.5 33.5t-10 27q-11 26 -39.5 46t-62.5 20h-148v-275q0 -42 16 -64
t44 -34q12 -5 29.5 -9.5t37 -8.5t38.5 -6t32 -3v-14h-805v14zM561 465v571l-475 -571h475z" />
    <glyph glyph-name="five" unicode="5" horiz-adv-x="1178" 
d="M483 -29q-101 0 -185 14.5t-144 47.5t-93.5 85.5t-33.5 127.5q0 50 15.5 87t41 61t58 36t67.5 12q36 0 66.5 -10t52.5 -27.5t34.5 -42.5t12.5 -55q0 -35 -7.5 -66.5t-19 -59.5t-24.5 -53.5t-25 -49.5q6 -37 45.5 -61.5t99.5 -24.5q55 0 99.5 30t75 86t47 136t16.5 180
q0 151 -55.5 235t-171.5 84q-42 0 -85.5 -13t-83.5 -37t-73.5 -58.5t-56.5 -77.5l-33 10l156 695h24q11 -12 53 -26t100.5 -26t125 -20t125.5 -8q54 0 115.5 4t120.5 14.5t110 28t84 43.5l16 -10q-64 -103 -141.5 -173t-162.5 -112.5t-175 -61t-178 -18.5q-12 0 -35 0.5
t-51 1t-58 1.5t-55.5 2t-43 1.5t-20.5 1.5l-55 -243q27 21 62.5 43t84.5 39.5t114 28.5t151 11q101 0 194.5 -24t165.5 -70.5t115 -114.5t43 -157q0 -112 -49.5 -196t-134 -139.5t-198.5 -83.5t-243 -28z" />
    <glyph glyph-name="six" unicode="6" horiz-adv-x="1305" 
d="M647 -33q-128 0 -233 40.5t-181 118t-117.5 190.5t-41.5 259q0 132 30 246.5t83 210t126 170.5t159 126.5t181.5 78.5t194.5 27q91 0 158 -22t111.5 -56.5t66.5 -78t22 -85.5q0 -77 -43 -117.5t-112 -40.5q-64 0 -102.5 22.5t-60.5 62t-31 92.5t-13 114q-3 48 -19 64
t-51 16q-41 0 -77.5 -26t-67.5 -72.5t-57 -110.5t-46.5 -140t-35 -161.5t-23.5 -173.5l8 -4q65 93 147.5 132.5t176.5 39.5q111 0 195.5 -33t141.5 -90.5t86 -135t29 -167.5q0 -92 -36.5 -181t-111.5 -159t-188.5 -113t-267.5 -43zM653 -8q44 0 75.5 18.5t53 50.5t35 75.5
t20.5 93.5t9 103.5t2 106.5q0 88 -11.5 157.5t-35 118.5t-59 75t-83.5 26q-38 0 -73 -22t-62.5 -71.5t-44 -128.5t-16.5 -192q0 -90 12 -165.5t36 -130t59.5 -85t82.5 -30.5z" />
    <glyph glyph-name="seven" unicode="7" horiz-adv-x="995" 
d="M422 -248q-34 0 -65.5 10t-56 31t-39.5 53.5t-15 77.5q0 49 13.5 102t41 113.5t69.5 129t99 149.5q28 39 62 85t71 93.5t75 95.5t73 92t66 82t54 66h-577q-33 0 -63 -10.5t-58.5 -36.5t-57 -71.5t-59.5 -115.5l-18 7l135 626h21l38 -114h818v-87q-51 -65 -90.5 -120
t-73.5 -110.5t-64.5 -115.5t-64.5 -135q-29 -63 -51.5 -129.5t-39.5 -144.5t-29 -171t-18 -208q-3 -64 -19.5 -110t-42.5 -76t-60.5 -44t-73.5 -14z" />
    <glyph glyph-name="eight" unicode="8" horiz-adv-x="1198" 
d="M563 -37q-102 0 -193 19.5t-159 56.5t-108 91t-40 124q0 56 22 101t59 80.5t85 61t101 42.5q-53 27 -95 58t-70.5 71.5t-43.5 93t-15 121.5q0 81 36 153.5t104 127.5t166 87.5t223 32.5q96 0 178.5 -18.5t143.5 -53t95.5 -84t34.5 -112.5q0 -51 -23 -89.5t-57 -66.5
t-74.5 -47.5t-74.5 -34.5q88 -34 144 -76t87 -91t42.5 -103.5t11.5 -112.5q0 -98 -45.5 -177.5t-124.5 -136t-184.5 -87.5t-225.5 -31zM612 -8q63 0 114.5 19t88 50.5t56.5 73t20 86.5q0 41 -11 71t-39 54t-74.5 43.5t-117.5 40.5q-29 9 -70 20t-84 23.5t-80.5 25.5
t-58.5 25q-21 -21 -36 -45t-24.5 -55t-14.5 -69.5t-5 -88.5q0 -49 20 -98t61.5 -88t104.5 -63.5t150 -24.5zM829 793q40 32 55 88t15 123q0 46 -18 91.5t-55.5 80.5t-94.5 57t-135 22q-58 0 -101.5 -15.5t-73 -42t-44.5 -61t-15 -71.5t10.5 -64.5t33.5 -49t61 -40t92 -37.5
q27 -9 65.5 -20.5t77.5 -23t73.5 -21.5t53.5 -16z" />
    <glyph glyph-name="nine" unicode="9" horiz-adv-x="1305" 
d="M455 -215q-91 0 -158.5 22t-112 56.5t-66.5 78t-22 85.5q0 77 43.5 117t112.5 40q64 0 102.5 -22.5t60 -62t30.5 -92.5t14 -113q3 -48 18.5 -64t50.5 -16q41 0 78 27.5t70 76.5t60.5 115.5t49.5 144.5t37.5 164.5t24.5 175.5l-8 4q-65 -93 -147.5 -132.5t-176.5 -39.5
q-111 0 -196 33t-142 90.5t-86 135t-29 167.5q0 92 37 181t112 159t188.5 113t267.5 43q127 0 232.5 -40.5t181.5 -118t117.5 -190.5t41.5 -259q0 -132 -31 -248t-85 -214t-128.5 -175t-162 -131t-184 -82.5t-195.5 -28.5zM655 422q38 0 73.5 22.5t63 72t44 128t16.5 191.5
q0 90 -12.5 165.5t-36.5 130t-59.5 85t-81.5 30.5q-66 0 -105 -40.5t-59 -104.5t-25.5 -144t-5.5 -159q0 -88 11.5 -158t35 -118.5t58.5 -74.5t83 -26z" />
    <glyph glyph-name="colon" unicode=":" horiz-adv-x="635" 
d="M317 -27q-41 0 -78 15t-64.5 42t-43.5 63.5t-16 78.5t16 78.5t43.5 63.5t64.5 42t78 15q42 0 78.5 -15t64.5 -42t44 -63.5t16 -78.5t-16 -78.5t-44 -63.5t-64.5 -42t-78.5 -15zM317 567q-41 0 -78 15t-64.5 42t-43.5 63.5t-16 78.5t16 78.5t43.5 63.5t64.5 42t78 15
q42 0 78.5 -15t64.5 -42t44 -63.5t16 -78.5t-16 -78.5t-44 -63.5t-64.5 -42t-78.5 -15z" />
    <glyph glyph-name="semicolon" unicode=";" horiz-adv-x="635" 
d="M139 -383q112 54 179.5 154.5t78.5 228.5h-71q-65 0 -107 16.5t-67.5 43.5t-35.5 60.5t-10 67.5q0 32 12 64t35 57.5t56.5 41.5t75.5 16q60 0 105 -21t75 -59t45.5 -93t15.5 -122q0 -75 -27.5 -146.5t-77 -134t-118 -113t-149.5 -84.5zM317 567q-41 0 -78 15t-64.5 42
t-43.5 63.5t-16 78.5t16 78.5t43.5 63.5t64.5 42t78 15q42 0 78.5 -15t64.5 -42t44 -63.5t16 -78.5t-16 -78.5t-44 -63.5t-64.5 -42t-78.5 -15z" />
    <glyph glyph-name="question" unicode="?" horiz-adv-x="1114" 
d="M403 848q132 14 200.5 86t68.5 192q0 62 -10 114t-32.5 89t-58.5 57.5t-88 20.5t-88.5 -19.5t-58.5 -44.5q28 -37 51 -85t23 -105q0 -87 -48.5 -136.5t-132.5 -49.5q-46 0 -79.5 14.5t-55 39.5t-31.5 58.5t-10 71.5q0 58 35.5 109.5t96 89.5t141 60t170.5 22
q123 0 222.5 -27t170 -78.5t109 -126.5t38.5 -170q0 -101 -42 -181.5t-119.5 -139t-185.5 -94.5t-240 -48l-11 -112h-24zM438 -27q-41 0 -78 15t-64.5 42t-43.5 63.5t-16 78.5t16 78.5t43.5 63.5t64.5 42t78 15q42 0 78.5 -15t64.5 -42t44 -63.5t16 -78.5t-16 -78.5
t-44 -63.5t-64.5 -42t-78.5 -15z" />
    <glyph glyph-name="A" unicode="A" horiz-adv-x="1430" 
d="M-74 14q28 3 58.5 8.5t56.5 22.5q38 25 66.5 69t50.5 97q12 30 35.5 90t55 140.5t68 175t74.5 192t75 193t69 177.5t56.5 145.5t37.5 96.5h186q18 -45 47 -120t64.5 -168t75 -197t78.5 -208t76 -201t66.5 -175.5t50 -132t27.5 -69.5q13 -31 31 -58t53 -49
q28 -17 56.5 -21.5t54.5 -7.5v-14h-838v14q26 2 62.5 6.5t70 12.5t57 21t23.5 32q0 12 -2.5 23.5t-5.5 19.5l-129 369h-422l-92 -269q-14 -40 -19.5 -73.5t-2.5 -53.5q4 -27 32.5 -43t66 -25.5t77 -13.5t65.5 -6v-14h-512v14zM721 537l-199 516l-194 -516h393z" />
    <glyph glyph-name="B" unicode="B" horiz-adv-x="1550" 
d="M25 14q13 1 35 3t45.5 4t44 5t30.5 7q37 14 49.5 40t12.5 60v1127q0 34 -12.5 60t-49.5 42q-14 6 -35.5 9.5t-44 6t-43 3.5t-32.5 3v15h895q120 0 215 -16.5t161 -54t101 -97t35 -144.5q0 -73 -33 -127.5t-91 -93.5t-137.5 -64t-173.5 -40v-19q102 -11 194 -35.5
t161.5 -68t110 -107.5t40.5 -153q0 -107 -42 -179.5t-121.5 -117t-194 -63.5t-258.5 -19h-862v14zM813 25q55 0 100.5 29.5t77 79t49 115t17.5 138.5q0 75 -17 137.5t-52.5 107.5t-91 70t-132.5 25q-9 0 -23.5 -0.5t-29.5 -1.5t-28 -2t-19 -2v-610q4 -18 13.5 -33.5
t26.5 -27.5t44 -18.5t65 -6.5zM723 756q75 0 126.5 24t83 66t45 98t13.5 121q0 67 -17.5 124t-50 98.5t-78 65t-100.5 23.5q-17 0 -40 -1t-41 -3v-616h59z" />
    <glyph glyph-name="C" unicode="C" horiz-adv-x="1421" 
d="M825 -33q-177 0 -321 48.5t-246.5 141t-158.5 225.5t-56 302q0 131 31 238t85.5 190t130.5 143.5t166 99.5t191 58t207 19q60 0 116.5 -7.5t107 -20t94 -29t77.5 -34.5l66 76h24l9 -524h-25q-51 114 -103.5 208.5t-109 162.5t-118 105.5t-128.5 37.5q-90 0 -157 -48
t-111.5 -137t-67 -216.5t-22.5 -286.5q0 -171 28 -297.5t79.5 -210t124 -124t161.5 -40.5q79 0 149 24t130 68t110.5 105t91.5 135l23 -12q-34 -81 -86.5 -154t-124.5 -127.5t-163.5 -86.5t-203.5 -32z" />
    <glyph glyph-name="D" unicode="D" horiz-adv-x="1638" 
d="M18 14q22 1 46.5 3.5t47 4.5t41 5t27.5 6q37 12 49.5 36t12.5 58v1137q0 34 -12.5 61t-49.5 39q-12 4 -31.5 7t-42 5.5t-46 4t-42.5 3.5v15h801q73 0 159 -13.5t172.5 -45.5t166.5 -85t142 -132t99 -186t37 -247q0 -119 -32 -216.5t-88 -174.5t-133 -133t-167.5 -93
t-191 -55t-203.5 -18h-762v14zM778 23q93 0 159.5 47t109.5 134t63 211t20 277q0 155 -24.5 281.5t-74 216t-124.5 138t-176 48.5q-14 0 -35 -1t-30 -3v-1208q0 -66 24.5 -103.5t87.5 -37.5z" />
    <glyph glyph-name="E" unicode="E" horiz-adv-x="1421" 
d="M18 14q22 1 46.5 3.5t47 4.5t41 5t27.5 6q37 12 49.5 36t12.5 58v1137q0 34 -12.5 61t-49.5 39q-12 4 -31.5 7t-42 5.5t-46 4t-42.5 3.5v15h1252v-367h-23q-26 49 -61.5 104t-76 102.5t-83.5 82t-84 43.5q-37 8 -72.5 9t-83.5 1h-120v-637h71q42 0 72 5.5t51 14.5
t34.5 19.5t23.5 20.5q16 16 33.5 40.5t34 53.5t30.5 60.5t22 60.5h23v-584h-23q-8 30 -23 63.5t-32.5 65t-34.5 57t-30 39.5q-11 12 -25.5 22.5t-35.5 19t-50 13.5t-70 5h-71v-535q0 -51 5 -81.5t21.5 -46.5t47 -20.5t81.5 -4.5q42 0 80 1t70 5.5t58 14.5t44 28
q63 62 135.5 155.5t145.5 198.5h20l-26 -428h-1330v14z" />
    <glyph glyph-name="F" unicode="F" horiz-adv-x="1325" 
d="M18 14q22 1 46.5 3.5t47 4.5t41 5t27.5 6q37 12 49.5 36t12.5 58v1137q0 34 -12.5 61t-49.5 39q-12 4 -31.5 7t-42 5.5t-46 4t-42.5 3.5v15h1309v-371h-20q-38 59 -74 116.5t-72 104t-74 77.5t-79 38q-35 6 -86 8t-99 2h-157v-645h127q41 0 70.5 8t50.5 19t35 24t24 23
q17 17 33.5 42.5t31 54t25.5 56.5t16 50h23v-592h-23q-6 24 -18.5 54.5t-27.5 61t-31 56.5t-29 41q-11 12 -25.5 25.5t-35.5 25.5t-50 19.5t-69 7.5h-127v-570q0 -45 16.5 -68.5t44.5 -31.5q19 -5 64.5 -11.5t105.5 -9.5v-14h-879v14z" />
    <glyph glyph-name="G" unicode="G" horiz-adv-x="1653" 
d="M805 -31q-102 0 -197.5 19.5t-180.5 58t-155.5 97.5t-121.5 138.5t-79 179t-28 220.5q0 192 63 333t175.5 234t267 138t338.5 45q61 0 123.5 -7t120 -19t107.5 -29t85 -36l70 76h22l8 -518h-22q-59 113 -118 206.5t-120 160.5t-125.5 104t-134.5 37q-102 0 -177 -51.5
t-123.5 -143t-72.5 -217.5t-24 -276q0 -98 8 -189.5t25.5 -172t45 -147.5t66 -115t88.5 -74.5t113 -26.5q50 0 86 12.5t61.5 34t42.5 49.5t29 60v321q-2 37 -15.5 65.5t-54.5 45.5q-15 7 -38 11t-46.5 7t-45 4t-33.5 2v17h817v-17q-29 -3 -60 -4t-59 -12q-37 -14 -49 -41.5
t-12 -61.5v-505l-21 -9l-139 127q-46 -25 -95 -48.5t-109 -42t-134.5 -29.5t-171.5 -11z" />
    <glyph glyph-name="H" unicode="H" horiz-adv-x="1831" 
d="M18 14q22 1 46.5 3.5t47 4.5t41 5t27.5 6q37 12 49.5 36t12.5 58v1137q0 34 -12.5 61t-49.5 39q-12 4 -31.5 7t-42 5.5t-46 4t-42.5 3.5v15h842v-15q-13 -2 -30.5 -3.5t-36 -3.5t-36 -4.5t-30.5 -6.5q-37 -11 -49 -38.5t-12 -61.5v-518h499v516q0 34 -13 60t-48 40
q-12 4 -29 7.5t-35 5.5t-35.5 3.5t-31.5 3.5v15h839v-15q-18 -2 -40.5 -3.5t-45 -4t-42 -5t-31.5 -5.5q-38 -9 -51 -37.5t-13 -62.5v-1133q0 -34 13 -61t51 -39q9 -3 28 -6t41.5 -5t46.5 -4.5t43 -3.5v-14h-839v14q13 1 31 3t36.5 4.5t35.5 5.5t28 6q38 11 49.5 35.5
t11.5 58.5v582h-499v-578q0 -34 13 -60t48 -38q9 -3 24.5 -6t33.5 -5t37.5 -4.5t37.5 -3.5v-14h-842v14z" />
    <glyph glyph-name="I" unicode="I" horiz-adv-x="915" 
d="M23 14q21 1 45.5 3.5t47 4.5t41 5t27.5 6q37 12 49.5 36t12.5 58v1137q0 34 -12.5 61t-49.5 39q-12 4 -31.5 7t-42 5.5t-45.5 4t-42 3.5v15h870v-15q-13 -2 -35 -3.5t-46 -3.5t-46 -4.5t-35 -6.5q-37 -11 -49 -38.5t-12 -61.5v-1135q0 -34 13 -60t48 -38q9 -3 29 -6
t43.5 -5t47.5 -4.5t42 -3.5v-14h-870v14z" />
    <glyph glyph-name="J" unicode="J" horiz-adv-x="1192" 
d="M354 -37q-97 0 -167 19t-115.5 53t-67.5 81t-22 103q0 45 14 82t39.5 63t61 40t79.5 14q42 0 75.5 -13.5t56 -36.5t34.5 -54t12 -66q0 -30 -8.5 -63.5t-26.5 -64.5t-47 -57t-69 -40v-11q21 -9 40 -14.5t48 -5.5q119 0 175 89.5t56 262.5v920q0 34 -12 61t-49 39
q-12 4 -33.5 7t-46 5.5t-49 4t-43.5 3.5v15h880v-15q-13 -2 -35 -3.5t-45.5 -3.5t-45.5 -4.5t-35 -6.5q-38 -11 -50 -38.5t-12 -61.5v-840q0 -75 -25 -138t-68 -114.5t-100.5 -91t-123.5 -66t-136.5 -40t-138.5 -13.5z" />
    <glyph glyph-name="K" unicode="K" horiz-adv-x="1733" 
d="M18 14q22 1 46.5 3.5t47 4.5t41 5t27.5 6q37 12 49.5 36t12.5 58v1137q0 34 -12.5 61t-49.5 39q-12 4 -31.5 7t-42 5.5t-46 4t-42.5 3.5v15h842v-15q-13 -2 -30.5 -3.5t-36 -3.5t-36 -4.5t-30.5 -6.5q-37 -11 -49 -38.5t-12 -61.5v-557h30q53 45 120.5 103.5t137.5 120
t136.5 123t118.5 114t84 91.5t32 56q0 15 -22 26t-55 19t-72.5 13t-73.5 9v15h590v-15q-64 -5 -111.5 -15t-85 -25.5t-68 -36t-61.5 -47.5q-80 -72 -171 -152.5t-194 -179.5q56 -73 119 -158t130.5 -177.5t138 -190t141.5 -195.5q14 -19 32 -43t39 -47.5t44.5 -44.5
t48.5 -33q14 -7 25 -11.5t21 -7t21 -4t25 -2.5v-14h-848v14q72 7 112 22t40 58q0 22 -29 76.5t-81 132t-124 174t-158 201.5h-32v-547q0 -34 13 -60t48 -38q9 -3 24.5 -6t33.5 -5t37.5 -4.5t37.5 -3.5v-14h-842v14z" />
    <glyph glyph-name="L" unicode="L" horiz-adv-x="1354" 
d="M18 14q13 1 36.5 3t48.5 4t46.5 5t30.5 7q37 15 49.5 41.5t12.5 60.5v1127q0 34 -12 59t-50 41q-15 6 -37 9.5t-45.5 6t-45 3.5t-34.5 3v15h856v-15q-14 -2 -33 -2t-39 -1t-39.5 -3t-33.5 -6q-37 -12 -50 -39t-13 -61v-1071q0 -60 3.5 -95t21.5 -53t55.5 -23t105.5 -5
q38 0 68.5 1.5t55 6.5t44 15t37.5 28q17 17 41.5 49t53 71.5t58.5 84.5t58.5 88t53 80.5t42.5 64.5h16l-26 -514h-1336v14z" />
    <glyph glyph-name="M" unicode="M" horiz-adv-x="2034" 
d="M-8 14q13 1 37 2.5t50.5 5.5t52.5 11t44 20q35 26 50.5 93.5t15.5 185.5v833q0 124 -62 172q-18 15 -40.5 23.5t-46.5 13t-47.5 6.5t-43.5 4v15h643l377 -920l291 746q10 27 18 54t13 51t8 42t4 27h657v-15q-13 -2 -34.5 -3t-45 -3t-45 -5t-35.5 -7q-37 -12 -49 -39
t-12 -61v-1133q0 -34 13.5 -58.5t47.5 -41.5q9 -5 30.5 -8t46 -5t48.5 -3.5t37 -2.5v-14h-872v14q13 1 36 1.5t48 1.5t47 3.5t33 8.5q35 18 50 43.5t15 60.5v1137l-491 -1247h-138q-3 11 -9.5 32t-15.5 48l-19 57t-19.5 58t-18 51.5t-14.5 37.5l-368 926v-899
q0 -60 2.5 -105.5t8.5 -79.5t17 -56.5t29 -37.5q17 -14 46.5 -21.5t61 -11.5t59.5 -5.5t42 -2.5v-14h-553v14z" />
    <glyph glyph-name="N" unicode="N" horiz-adv-x="1597" 
d="M279 1145v-811q0 -60 2.5 -105.5t8.5 -79.5t17 -56.5t29 -37.5q17 -14 49.5 -21.5t68 -11.5t66.5 -5.5t45 -2.5v-14h-573v14q13 1 37 2.5t50.5 5.5t52.5 11t44 20q35 26 50.5 93.5t15.5 185.5v811q0 48 -15 88t-49 74q-32 32 -82 53t-110 26v15h592l735 -940v606
q0 60 -2.5 105.5t-8.5 79t-17.5 56.5t-29.5 37q-17 14 -49.5 21.5t-68 11.5t-66.5 5t-45 3v15h573v-15q-13 -2 -36.5 -3t-50.5 -4.5t-53 -10.5t-44 -20q-35 -26 -50 -93.5t-15 -185.5v-1073h-181z" />
    <glyph glyph-name="O" unicode="O" horiz-adv-x="1636" 
d="M811 -33q-164 0 -301 48.5t-238 142.5q-50 47 -92 104t-72.5 123t-47.5 141t-17 158q0 92 18.5 174t51.5 153.5t79 131.5t101 108q99 88 231.5 134.5t294.5 46.5q161 0 297 -45t236 -136q51 -47 95.5 -104.5t76.5 -125.5t50.5 -146t18.5 -166q0 -86 -17.5 -166
t-49.5 -152t-77 -134.5t-101 -113.5q-97 -88 -229 -132t-308 -44zM819 -8q88 0 147 53.5t94.5 148.5t50.5 225t15 283q0 90 -5.5 177.5t-18.5 166t-35.5 144.5t-56.5 114.5t-81.5 75.5t-109.5 27q-80 0 -138 -48t-96 -139.5t-56.5 -224t-18.5 -301.5q0 -148 15 -276.5
t51 -223t95.5 -148.5t147.5 -54z" />
    <glyph glyph-name="P" unicode="P" horiz-adv-x="1452" 
d="M18 14q14 1 37.5 2.5t48.5 4t46 5.5t30 7q37 14 49.5 40t12.5 60v1131q0 34 -12 59t-50 41q-15 5 -37 8.5t-45.5 5.5t-45 3t-34.5 3v15h869q563 0 563 -359q0 -115 -49 -196t-134.5 -132t-200.5 -74.5t-247 -23.5h-153v-479q0 -34 13.5 -59.5t47.5 -40.5q9 -4 27 -7
t40.5 -5.5t49 -5t53.5 -3.5v-14h-879v14zM702 643q84 0 141 30t92.5 79.5t50.5 114t15 134.5q0 78 -14 145.5t-45.5 117.5t-83.5 79t-127 29h-65v-729h36z" />
    <glyph glyph-name="Q" unicode="Q" horiz-adv-x="1636" 
d="M1305 -434q-161 0 -262.5 98t-139.5 307q-22 -2 -44.5 -3t-47.5 -1q-174 0 -308.5 49.5t-234.5 145.5q-48 47 -89.5 103t-71.5 121t-47 139.5t-17 158.5q0 87 15.5 163t43.5 143t68 124.5t88 106.5q49 50 113.5 89t138 66t152.5 41.5t157 14.5q74 0 150 -13t147.5 -38
t135.5 -61.5t114 -82.5q51 -47 92.5 -103t71.5 -122t46.5 -141.5t16.5 -161.5q0 -108 -27 -206.5t-75.5 -182t-117 -151t-152.5 -114.5q21 -68 49.5 -115.5t61.5 -77.5t69.5 -43.5t75.5 -13.5q40 0 76 13t64 37t47.5 57t27.5 72l22 -4q-6 -38 -19.5 -83.5t-36.5 -91.5
t-55.5 -89t-76 -76.5t-98.5 -53.5t-123 -20zM557 256q26 51 58 93t69.5 72t80 47t89.5 17q52 0 90.5 -11t67.5 -30t50 -46t38 -58q7 44 12.5 83t9.5 80.5t6 89.5t2 109q0 94 -6 183t-20.5 167.5t-38 143.5t-58 112t-81.5 73t-107 26q-87 0 -146.5 -54t-95.5 -149
t-51.5 -225.5t-15.5 -284.5q0 -58 2 -117.5t7 -116t14 -108.5t24 -96zM819 -8q25 0 42 2.5t36 7.5q-14 79 -28 142.5t-32.5 108.5t-44.5 69t-63 24q-45 0 -86 -27t-78 -90q35 -114 98 -175.5t156 -61.5z" />
    <glyph glyph-name="R" unicode="R" horiz-adv-x="1661" 
d="M1343 -25q-83 0 -144.5 19t-104 60.5t-68 106t-37.5 154.5q-11 84 -27 149.5t-44.5 110t-73.5 68t-113 23.5h-65v-531q0 -34 13.5 -59.5t47.5 -40.5q9 -4 27 -7t40.5 -5.5t49 -5t53.5 -3.5v-14h-879v14q14 1 37.5 2.5t48.5 4t46 5.5t30 7q37 14 49.5 40t12.5 60v1131
q0 34 -12 59t-50 41q-15 5 -37 8.5t-45.5 5.5t-45 3t-34.5 3v15h922q120 0 217 -19t166 -58t106 -99.5t37 -143.5q0 -84 -32 -145.5t-87.5 -105.5t-130.5 -72t-161 -45v-15q61 -3 115.5 -15.5t99 -37.5t76.5 -64t47 -94q11 -42 18 -74.5t12.5 -62.5t11 -59.5t13.5 -65.5
q11 -48 34 -74t68 -26q18 0 36.5 9.5t33.5 28.5t24 48.5t9 69.5v61h33l-3 -64q-2 -64 -21.5 -119t-60 -95.5t-104 -63.5t-154.5 -23zM698 694q163 0 240.5 84.5t77.5 265.5q0 155 -69 241.5t-214 86.5h-67v-678h32z" />
    <glyph glyph-name="S" unicode="S" horiz-adv-x="1253" 
d="M596 -31q-81 0 -149 11t-122.5 27t-96 35t-68.5 34l-86 -92h-15l-12 516h23q57 -113 113.5 -205.5t118 -158.5t130.5 -102t150 -36t134.5 21.5t85.5 56.5t45 79.5t13 90.5q0 45 -12.5 82.5t-43 69.5t-81.5 60t-129 56q-68 25 -131 43.5t-111 38.5q-131 56 -201.5 158
t-70.5 245q0 109 45 190.5t121.5 136t179 81.5t217.5 27q57 0 115 -8.5t109.5 -22t94 -30t68.5 -32.5l78 76h16l9 -485h-23q-42 96 -85 182t-94 150.5t-114 102.5t-145 38q-62 0 -110.5 -21t-81.5 -56t-50.5 -79.5t-17.5 -91.5q0 -54 20 -95t55.5 -72.5t84 -55.5t106.5 -45
q31 -12 64.5 -22.5t66.5 -20.5t63.5 -20t55.5 -21q60 -26 110.5 -59t87 -78.5t57.5 -107t21 -142.5q0 -94 -45 -176t-125.5 -142.5t-192.5 -95.5t-245 -35z" />
    <glyph glyph-name="T" unicode="T" horiz-adv-x="1346" 
d="M238 14q21 1 45.5 3.5t47 4.5t41 5t27.5 6q38 12 50 36t12 58v1247h-41q-35 0 -65 -1.5t-62 -6.5q-22 -3 -48 -25t-53.5 -55.5t-54.5 -74t-51 -80.5t-43.5 -75.5t-30.5 -58.5h-20v402h1362v-402h-21q-11 22 -30 57.5t-43 75.5t-51 80.5t-54.5 74.5t-53.5 56t-48 25
q-32 5 -61 6.5t-66 1.5h-41v-1243q0 -34 13 -60t48 -38q9 -3 29 -6t43.5 -5t47.5 -4.5t42 -3.5v-14h-870v14z" />
    <glyph glyph-name="U" unicode="U" horiz-adv-x="1583" 
d="M860 -33q-142 0 -260.5 27t-204 87t-133 155t-47.5 231v797q0 34 -12 61t-49 39q-12 4 -30.5 7t-39.5 5.5t-43 4t-41 3.5v15h846v-15q-13 -2 -32.5 -3.5t-39.5 -3.5t-39.5 -4.5t-32.5 -6.5q-37 -11 -49 -38.5t-12 -61.5v-758q0 -105 19.5 -180.5t60 -123.5t101 -70.5
t143.5 -22.5q81 0 152.5 22t125.5 70.5t85.5 126t31.5 188.5v547q0 60 -2.5 105.5t-8.5 79t-17 56.5t-29 37q-17 14 -50 21.5t-68.5 11.5t-66.5 5t-45 3v15h574v-15q-13 -2 -37 -3t-51 -4.5t-53 -10.5t-44 -20q-35 -26 -50 -93.5t-15 -185.5v-580q0 -133 -43 -230.5
t-116.5 -162t-171 -96t-206.5 -31.5z" />
    <glyph glyph-name="V" unicode="V" horiz-adv-x="1452" 
d="M635 -16q-30 80 -72.5 190t-90 232.5t-97 249t-93.5 239.5t-79.5 203.5t-55.5 140.5q-11 29 -21.5 50.5t-22 36t-24.5 24t-30 14.5q-26 8 -53.5 11.5t-69.5 8.5v15h860v-15q-55 -5 -93 -10t-62 -10.5t-35 -13t-12 -17.5q-2 -12 1.5 -26.5t8.5 -28.5q17 -51 43.5 -122
t56.5 -152t63 -167t65 -167t59.5 -152t48.5 -121q15 33 38.5 92t51 130t56.5 147.5t54.5 145t45 121.5t28.5 77q9 25 18.5 52.5t17 54t12.5 50.5t5 42q0 21 -21 34.5t-54.5 21t-75 11.5t-82.5 6v17h500v-17q-34 -2 -61.5 -4t-55.5 -14q-25 -11 -43 -29.5t-32 -41.5t-25 -50
t-23 -55q-7 -17 -28 -69t-50.5 -127.5t-66.5 -169t-76 -193t-77.5 -198.5t-72 -185.5t-60 -155t-40.5 -106.5h-178v0z" />
    <glyph glyph-name="W" unicode="W" horiz-adv-x="2238" 
d="M176 1237q-11 32 -30.5 66t-47.5 51q-14 8 -32 13.5t-37.5 9t-37.5 5t-32 2.5v15h797v-15q-26 -2 -53 -5.5t-49 -10.5t-36 -18t-14 -29q0 -5 2 -13.5t4.5 -18t5.5 -19.5t5 -17q2 -8 12 -41t25.5 -83.5t35.5 -114t41.5 -132.5t44 -140t43.5 -136.5t39 -121t31 -93.5
l237 586q-21 76 -41.5 138t-41.5 110t-45 80.5t-52 50.5q-24 15 -54.5 20.5t-59.5 7.5v15h811v-15q-26 -2 -57.5 -5.5t-59 -10t-46 -18t-18.5 -29.5q0 -11 3 -27t8 -30q2 -7 12.5 -39t26.5 -81.5t36.5 -112t43 -130.5t46 -138t45 -134t40.5 -119t32 -92q14 36 36.5 94.5
t47.5 127.5t51 142t49 136.5t39.5 111t22.5 66.5q23 69 34 119.5t11 76.5q0 28 -24 44.5t-60 26t-78 14t-78 7.5v15h500v-15q-28 -3 -53 -5.5t-59 -20.5q-20 -11 -38 -31.5t-34 -47.5t-29.5 -58.5t-25.5 -65.5l-429 -1171h-182q-11 35 -29 89t-39.5 119.5t-45.5 139
t-48.5 147.5t-47.5 144t-43 129t-35 103.5t-23 66.5l-383 -938h-182z" />
    <glyph glyph-name="X" unicode="X" horiz-adv-x="1606" 
d="M-33 14q44 3 76 8t61 17q28 12 54 30t49.5 39.5t45 44.5t40.5 46q19 22 46.5 54.5t59.5 70.5t66 78.5t65.5 79l58.5 71.5t46 57l-375 586q-28 43 -69 88t-95 70q-56 24 -121 30v15h951v-15q-125 -8 -179.5 -28t-54.5 -41q0 -29 23.5 -84.5t68.5 -124.5q5 -7 18 -27.5
t30 -47.5t36 -57t36.5 -57t30.5 -47.5t19 -27.5q25 33 51.5 68.5t52 71t49.5 68.5t44 62q27 37 50 72.5t39.5 65t26 50.5t9.5 29q0 12 -19.5 20.5t-53 14.5t-79.5 10.5t-100 9.5v15h575v-15q-45 -3 -84 -10t-65 -18q-29 -12 -56 -32t-51 -43t-44.5 -46.5t-36.5 -44.5
q-21 -27 -47 -60t-53.5 -68.5t-55.5 -71.5t-53 -68.5t-46.5 -60t-35.5 -46.5q18 -27 51 -78t72.5 -113.5t82 -129.5t80 -126t66.5 -104t41 -63q18 -26 35.5 -49t37 -43t41.5 -36t48 -28q28 -12 57.5 -20t63.5 -11v-14h-951v14q124 8 180 28t56 42q0 20 -26 72t-72 131
q-7 11 -20.5 34t-30.5 51.5t-36.5 60t-37 60.5t-32.5 52.5t-24 36.5q-22 -28 -48 -60t-52.5 -66.5t-53 -70t-50.5 -68.5q-26 -35 -52.5 -73.5t-49 -73t-36.5 -61.5t-14 -39t19 -20t52.5 -14.5t79.5 -11.5t101 -10v-14h-582v14z" />
    <glyph glyph-name="Y" unicode="Y" horiz-adv-x="1483" 
d="M297 14q21 1 46.5 3.5t49.5 4.5t43.5 5t28.5 6q37 12 49 36t12 58v326q0 34 -2 58.5t-9 48t-19 50t-33 64.5q-12 22 -36 65.5t-53 97t-61 112t-60.5 110.5t-51 92.5t-33.5 58.5q-28 47 -61 84.5t-68 59.5q-28 17 -56 22.5t-57 7.5v15h883v-15q-27 -2 -65 -5.5
t-72.5 -10.5t-59 -17.5t-24.5 -25.5q0 -5 6.5 -22.5t18.5 -43.5t28.5 -59.5t36.5 -71.5q5 -11 21.5 -42.5t39.5 -75t51 -95t55.5 -102t53 -96.5t45.5 -78q9 14 26 44.5t38.5 70.5t45.5 86t48 91t45.5 86.5t38.5 72.5q51 97 70.5 153t19.5 72q0 21 -24 33.5t-59.5 19.5
t-76.5 10.5t-76 5.5v15h521v-15q-38 -5 -70.5 -8t-58.5 -18q-44 -26 -75 -64.5t-57 -85.5q-36 -63 -69 -121.5t-66 -117.5t-68 -123t-75 -137q-26 -48 -40.5 -82.5t-21.5 -66t-8.5 -66t-1.5 -82.5v-281q0 -34 13.5 -60t48.5 -38q9 -3 29 -6t44 -5t48.5 -4.5t42.5 -3.5v-14
h-879v14z" />
    <glyph glyph-name="Z" unicode="Z" horiz-adv-x="1364" 
d="M-8 14l872 1360h-243q-42 0 -74.5 -1.5t-57.5 -4.5t-44 -8t-35 -12q-22 -9 -62 -46t-86.5 -89t-94 -111.5t-83.5 -114.5h-18l40 412h1237v-15l-874 -1359h274q83 0 138.5 3t91.5 10.5t56.5 19t35.5 28.5q30 34 67.5 79.5t75.5 95t74.5 100.5t65.5 96h16l-47 -457h-1325
v14z" />
    <glyph glyph-name="grave" unicode="`" 
d="M676 1071q-48 27 -96 52t-91 47.5t-79.5 41t-61.5 33.5q-66 38 -103.5 79t-37.5 97q0 28 10.5 52t29.5 42t45 28.5t58 10.5q31 0 58 -12.5t50 -34t42.5 -49.5t34.5 -59l155 -312l-14 -16v0z" />
    <glyph glyph-name="a" unicode="a" horiz-adv-x="1155" 
d="M350 -31q-84 0 -143 17.5t-96 49t-53.5 74t-16.5 93.5q0 57 15.5 97.5t42 70t61.5 49t73 33.5q31 11 69.5 22t80 21.5t82.5 21t76.5 20.5t62 20t39.5 20v186q0 26 -2 61.5t-13 68t-34.5 55t-67.5 22.5q-38 0 -64 -9.5t-40 -21.5q2 -14 9 -37t14 -50t12.5 -56.5t5.5 -55.5
q0 -18 -12.5 -40.5t-36.5 -42t-58.5 -33t-79.5 -13.5q-44 0 -74.5 14t-49.5 36.5t-28 50t-9 55.5q0 52 42 93.5t106 71t139 45t141 15.5q55 0 110.5 -4t106.5 -15.5t95.5 -32t77.5 -55t52 -83.5t19 -117q0 -70 -2 -148t-4.5 -148.5t-4.5 -126.5t-2 -81q0 -18 4.5 -35.5
t13.5 -31t23 -21.5t33 -8q23 0 41 16t31 42.5t20 59.5t8 68h31q-2 -65 -20 -119.5t-53 -94.5t-87 -62.5t-121 -22.5q-64 0 -107.5 10t-73.5 28t-50 42.5t-35 52.5h-6q-26 -27 -52 -51.5t-60 -43.5t-77.5 -30.5t-103.5 -11.5zM524 78q41 0 67.5 17.5t45.5 45.5l8 408
q-53 -21 -95.5 -44.5t-72.5 -56.5t-46.5 -78.5t-16.5 -109.5q0 -91 29 -136.5t81 -45.5z" />
    <glyph glyph-name="b" unicode="b" horiz-adv-x="1268" 
d="M106 -25q3 31 5 72t4 89t3 101.5t1 108.5v995q0 34 -15.5 67t-40.5 50q-9 6 -25.5 11.5t-35.5 9.5t-38 6.5t-32 3.5v14l537 25l8 -8v-656l8 -2q17 19 42 42t58 42.5t73 33t87 13.5q115 0 202 -36.5t145.5 -103.5t88 -162t29.5 -212q0 -108 -38 -201.5t-108 -162
t-167.5 -107.5t-216.5 -39q-78 0 -144.5 13t-118.5 32t-89.5 40.5t-57.5 37.5l-143 -125zM635 -8q50 0 85 37t57.5 101t33 150.5t10.5 184.5q0 75 -8.5 151.5t-30.5 138t-59.5 100t-95.5 38.5q-50 0 -84 -17t-66 -55v-678q7 -24 19 -50.5t30.5 -49t45 -37t63.5 -14.5z" />
    <glyph glyph-name="c" unicode="c" horiz-adv-x="973" 
d="M549 -31q-246 0 -379 131.5t-133 397.5q0 111 41 202.5t114.5 156.5t176 100.5t225.5 35.5q87 0 152 -18t107.5 -50t63.5 -76t21 -95q0 -31 -10 -59.5t-29.5 -50.5t-49.5 -35t-69 -13q-37 0 -67.5 9.5t-53 28.5t-35 48.5t-12.5 69.5q0 28 9.5 53t21.5 45.5t23 37t14 27.5
q-5 23 -26 39.5t-58 16.5t-68.5 -31t-55 -90.5t-37 -146.5t-13.5 -199q0 -116 17.5 -197.5t49.5 -132.5t76.5 -74.5t98.5 -23.5q104 0 175.5 52.5t118.5 141.5l21 -12q-24 -60 -63 -112.5t-92.5 -92t-122 -62t-152.5 -22.5z" />
    <glyph glyph-name="d" unicode="d" horiz-adv-x="1280" 
d="M512 -25q-98 0 -181.5 34t-144.5 98.5t-95 157.5t-34 210q0 108 40.5 202t110.5 164.5t163 111t198 40.5q42 0 75 -5.5t58.5 -13t44.5 -16t33 -14.5v391q0 34 -13 68t-38 49q-14 9 -35.5 15.5t-46 11t-50 6.5t-46.5 4v14l577 25l9 -8v-1356q0 -34 14 -61.5t37 -41.5
q9 -5 24 -9.5t31.5 -8t33.5 -5.5t30 -3v-15l-519 -28l-8 8v98l-8 2q-25 -27 -51.5 -49.5t-57 -39.5t-67.5 -26.5t-84 -9.5zM635 76q27 0 47 3.5t36.5 12.5t31 23t30.5 35v675q-6 23 -17 47.5t-30 44.5t-46 33t-64 13q-45 0 -78.5 -38t-56 -103.5t-33.5 -154t-11 -190.5
q0 -73 8.5 -144.5t30 -128.5t58.5 -92.5t94 -35.5z" />
    <glyph glyph-name="e" unicode="e" horiz-adv-x="1044" 
d="M610 -31q-126 0 -231.5 34t-181 99t-118 159.5t-42.5 215.5q0 114 41 209t114 163.5t172.5 106t215.5 37.5q117 0 200.5 -37t136 -97t77 -137t24.5 -157v-12h-580v-59q0 -91 15 -168t48 -133.5t85 -88.5t127 -32q94 0 171.5 43.5t133.5 150.5l22 -16q-28 -59 -70 -110
t-96.5 -89t-120.5 -60t-143 -22zM680 584q0 40 -0.5 84t-3.5 86.5t-9.5 81.5t-19.5 68.5t-33 47t-49 17.5q-35 0 -58.5 -32t-38 -85.5t-21.5 -124t-9 -147.5z" />
    <glyph glyph-name="f" unicode="f" horiz-adv-x="729" 
d="M27 14q26 2 47 3.5t41 9.5q53 20 53 90v813h-197v37h197v26q0 62 7.5 116.5t24 102.5t43 91t64.5 83q32 33 75.5 60t93.5 45.5t105.5 28.5t112.5 10q84 0 143.5 -19.5t97.5 -50t55.5 -68t17.5 -73.5q0 -30 -11.5 -58t-32.5 -50t-50.5 -35t-65.5 -13q-34 0 -63 8.5
t-50.5 26t-34 42.5t-12.5 58q0 18 5.5 38t13.5 41t15.5 43t12.5 44q0 19 -16.5 32t-36.5 13q-39 0 -68.5 -30.5t-49.5 -87t-30 -136.5t-10 -180v-108h250v-37h-248v-805q0 -32 14 -55.5t42 -34.5q11 -5 28 -8.5t35.5 -6t36.5 -4t31 -2.5v-14h-686v14z" />
    <glyph glyph-name="g" unicode="g" horiz-adv-x="1151" 
d="M547 -467q-131 0 -232 12t-171 39t-106 71t-36 109q0 42 23 78.5t72.5 63.5t127 41.5t185.5 13.5v8q-149 19 -226.5 76t-77.5 143q0 44 24.5 78t65 58t94 38t111.5 17v8q-170 19 -257 96.5t-87 198.5q0 81 38 140t104 97t155 56t191 18q61 0 111.5 -6t89.5 -15.5t67 -20
t43 -19.5q19 49 41.5 90.5t48.5 72t57 47.5t68 17q24 0 46.5 -8t40 -23.5t28 -37.5t10.5 -50q0 -27 -8.5 -49.5t-24 -39.5t-37.5 -26.5t-49 -9.5q-17 0 -36 5t-37.5 16.5t-35.5 31t-30 48.5q-11 -4 -20 -14.5t-16.5 -24.5t-14 -29t-10.5 -28q71 -41 112 -97.5t41 -140.5
q0 -69 -36.5 -126t-99.5 -98.5t-148.5 -64t-182.5 -22.5h-137q-15 -13 -28 -27.5t-13 -34.5q0 -38 43.5 -56t146.5 -22l302 -10q48 -2 98.5 -21.5t92 -57t68.5 -92.5t27 -128q0 -94 -42.5 -166.5t-122 -122t-193.5 -75t-258 -25.5zM594 -444q67 0 117 18.5t83.5 51.5
t50.5 79t17 100q0 17 -4.5 35.5t-15.5 36t-29.5 32.5t-46.5 25q-14 3 -49.5 5t-82.5 3.5t-102 2t-108 0.5q-16 -9 -33 -22t-31 -33t-23 -48t-9 -67q0 -44 16 -83.5t49 -69.5t83 -48t118 -18zM545 389q37 0 62 23t41 62.5t23 92.5t7 113q0 61 -7 114.5t-22.5 92.5t-41.5 61.5
t-64 22.5t-62 -23t-38 -62t-19.5 -90.5t-5.5 -109.5q0 -68 8 -122.5t24 -93.5t39.5 -60t55.5 -21z" />
    <glyph glyph-name="h" unicode="h" horiz-adv-x="1325" 
d="M8 14q25 2 46.5 4t41.5 9q28 9 38.5 27t10.5 52v1233q0 34 -12.5 65.5t-38.5 51.5q-12 9 -29 15t-36 9.5t-37.5 5.5t-32.5 3v14l537 25l8 -8v-695h6q28 29 56 59t63.5 54t82 39.5t111.5 15.5q81 0 144.5 -23t107.5 -65t67 -101t23 -132v-557q0 -34 7 -53.5t36 -30.5
q22 -8 43.5 -11t48.5 -6v-14h-604v14q20 2 40.5 5t35.5 10q22 8 26.5 32t4.5 58v559q0 53 -11 89t-30 58t-43 31.5t-51 9.5q-35 0 -62 -7.5t-47 -20t-33.5 -28.5t-21.5 -32v-661q0 -34 5.5 -54.5t25.5 -29.5q20 -10 40 -13t41 -6v-14h-608v14z" />
    <glyph glyph-name="i" unicode="i" horiz-adv-x="670" 
d="M27 14q26 2 47 3.5t41 9.5q28 11 40.5 34.5t12.5 55.5v694q0 68 -51 102q-9 6 -24 11.5t-32 9.5t-34 6.5t-31 3.5v12l522 25l8 -8v-850q0 -65 56 -92q21 -11 42 -12.5t46 -4.5v-14h-643v14zM322 1135q-44 0 -82 15.5t-66.5 43t-44.5 64.5t-16 81q0 45 16 82.5t44.5 64.5
t66.5 42.5t82 15.5q43 0 81 -15.5t65.5 -43t43.5 -65t16 -81.5t-16 -81t-43.5 -64.5t-65.5 -43t-81 -15.5z" />
    <glyph glyph-name="j" unicode="j" horiz-adv-x="668" 
d="M31 -467q-83 0 -135.5 17.5t-82.5 45.5t-41.5 64t-11.5 72q0 27 10.5 53.5t30 46.5t48 32.5t63.5 12.5q30 0 56.5 -9t47 -26t32 -43.5t11.5 -60.5q0 -40 -15.5 -84.5t-35.5 -93.5q8 -2 23 -3t18 -1q43 0 70 28.5t42.5 84t21 137.5t5.5 188v803q0 31 -14 60.5t-39 47.5
q-20 16 -64 26t-106 13v12l574 25l8 -8v-879q0 -256 -148 -411q-30 -32 -71.5 -59.5t-90 -47.5t-101.5 -31.5t-105 -11.5zM342 1135q-44 0 -82 15.5t-66.5 43t-44.5 64.5t-16 81q0 45 16 82.5t44.5 64.5t66.5 42.5t82 15.5t82 -15.5t65.5 -43t43.5 -65t16 -81.5t-16 -81
t-43.5 -64.5t-65.5 -43t-82 -15.5z" />
    <glyph glyph-name="k" unicode="k" horiz-adv-x="1233" 
d="M8 14q25 2 46.5 4t41.5 9q28 9 38.5 27t10.5 52v1233q0 34 -12.5 67t-38.5 50q-12 8 -29.5 14t-36.5 10t-37 6t-32 3v14l537 25l8 -8v-1045q20 19 49.5 46t64 58.5t71.5 66t72 69t66 67.5t54 62q15 20 19.5 33.5t4.5 27.5q0 17 -35.5 30t-101.5 19v13h463v-13
q-49 -6 -86 -15.5t-66.5 -22.5t-53.5 -28t-48 -32q-53 -37 -108 -84t-97 -90q55 -25 100.5 -65.5t83 -90.5t68 -106.5t55 -112.5t45 -109.5t37.5 -97.5q11 -29 30 -46t42 -25t41.5 -11.5t32.5 -3.5v-14h-500q-9 39 -24.5 89t-35 101.5t-43 101.5t-48.5 88.5t-51.5 62.5
t-51.5 24q-12 0 -26 -9t-23 -20v-321q0 -34 5.5 -54.5t25.5 -29.5q20 -10 49 -13.5t51 -5.5v-14h-627v14z" />
    <glyph glyph-name="l" unicode="l" horiz-adv-x="649" 
d="M8 14q25 2 46.5 4t41.5 9q28 9 38.5 27t10.5 52v1233q0 34 -12.5 68t-38.5 49q-13 8 -32.5 14t-40.5 10t-40.5 6t-33.5 3v14l549 25l8 -8v-1403q0 -34 7.5 -54.5t27.5 -29.5q10 -5 23.5 -8t28.5 -5t29 -3.5t25 -2.5v-14h-637v14z" />
    <glyph glyph-name="m" unicode="m" horiz-adv-x="1980" 
d="M29 14q24 2 46 4t42 9q28 9 38.5 27t10.5 52v699q0 80 -47 110q-19 13 -49.5 20t-55.5 9v12l500 25l8 -8v-148h6q35 36 67 67t69.5 53.5t84 35t111.5 12.5q48 0 94.5 -12.5t86 -36t70 -56.5t46.5 -75q20 20 50 50.5t71.5 59.5t95 49.5t119.5 20.5q69 0 129 -23.5t105 -66
t70.5 -101.5t25.5 -130v-551q0 -34 5.5 -54.5t33.5 -33.5q18 -10 43 -13t51 -6v-14h-600v14q21 2 40.5 5.5t35.5 11.5q20 11 24 33.5t4 56.5v555q0 101 -34 145.5t-95 44.5q-65 0 -104.5 -24t-55.5 -56v-661q0 -34 7 -56t28 -36q16 -10 35.5 -13.5t38.5 -5.5v-14h-571v14
q20 2 39 4.5t34 12.5q20 11 24.5 33.5t4.5 56.5v555q0 102 -31 146t-90 44q-38 0 -65.5 -8t-47.5 -20.5t-33 -28.5t-22 -31v-661q0 -34 5.5 -54.5t25.5 -29.5q20 -10 40 -13t42 -6v-14h-606v14z" />
    <glyph glyph-name="n" unicode="n" horiz-adv-x="1346" 
d="M29 14q24 2 46 4t42 9q28 9 38.5 27t10.5 52v699q0 80 -47 110q-19 13 -49.5 20t-55.5 9v12l502 25l8 -8v-148h6q28 29 56 59t64 54t82.5 39.5t111.5 15.5q81 0 144.5 -23t107.5 -65t67 -101t23 -132v-557q0 -34 7 -53.5t36 -30.5q21 -8 42.5 -11t49.5 -6v-14h-604v14
q20 2 40 5t36 10q21 8 25.5 32t4.5 58v559q0 53 -11 89t-29.5 58t-43 31.5t-51.5 9.5q-35 0 -61.5 -7.5t-46.5 -20t-33.5 -28.5t-22.5 -32v-661q0 -34 5.5 -54.5t25.5 -29.5q20 -10 40 -13t42 -6v-14h-608v14z" />
    <glyph glyph-name="o" unicode="o" horiz-adv-x="1217" 
d="M602 -31q-104 0 -205 30.5t-181 93.5t-129.5 160t-49.5 230q0 125 45.5 220.5t123.5 160t182.5 97t221.5 32.5q120 0 224 -32.5t181 -96.5t121 -158t44 -217q0 -122 -42 -218.5t-118.5 -163.5t-183 -102.5t-234.5 -35.5zM610 -8q60 0 95.5 43t53.5 113.5t23.5 160.5
t5.5 183q0 59 -2.5 117t-9.5 111.5t-19 99t-31.5 79.5t-47.5 53t-66 19q-40 0 -69 -20t-49 -55t-32.5 -81.5t-19.5 -99t-9.5 -109t-2.5 -110.5q0 -92 5 -182.5t23 -162t54 -115.5t98 -44z" />
    <glyph glyph-name="p" unicode="p" horiz-adv-x="1282" 
d="M-18 -449q32 2 63 4.5t49 8.5q29 9 40 35.5t11 58.5v1147q0 80 -47 110q-18 13 -48.5 20t-55.5 9v12l502 25l8 -8v-111l8 -2q17 19 43.5 42t61.5 43.5t78 34t93 13.5q87 0 166 -27t139.5 -86.5t96 -153.5t35.5 -228q0 -128 -42.5 -226t-111.5 -164t-158 -99.5t-182 -33.5
q-42 0 -75.5 5t-60 14t-47 20.5t-38.5 24.5h-8v-371q0 -38 14.5 -60.5t42.5 -33.5q38 -14 76.5 -16.5t73.5 -6.5v-14h-727v14zM664 8q51 0 84.5 35t53.5 97.5t28 147.5t8 185q0 78 -7.5 154t-28 135.5t-56.5 96t-93 36.5q-27 0 -48.5 -5.5t-39 -15.5t-33 -25t-30.5 -34v-659
q7 -24 19 -50t31 -48t46 -36t66 -14z" />
    <glyph glyph-name="q" unicode="q" horiz-adv-x="1272" 
d="M573 -449q36 4 74 6.5t76 16.5q28 11 42.5 33.5t14.5 60.5v430l-8 2q-17 -18 -39 -39.5t-51.5 -40.5t-67.5 -32t-86 -13q-91 0 -176 28.5t-150.5 89t-105 154t-39.5 224.5q0 128 46.5 225.5t124 163.5t177 99.5t205.5 33.5q58 0 116.5 -7t111 -19t97.5 -28t77 -34
l123 119l18 -8q-5 -37 -8 -80.5t-4.5 -89t-2.5 -90.5t-1 -84v-1014q0 -32 11 -58.5t40 -35.5q18 -6 49 -8.5t63 -4.5v-14h-727v14zM643 76q45 0 81 20t56 56v688q-6 25 -16 48.5t-26 41.5t-39 28.5t-54 10.5q-51 0 -89 -39t-63 -106t-37 -155.5t-12 -187.5q0 -87 10 -161.5
t33 -128.5t61 -84.5t95 -30.5z" />
    <glyph glyph-name="r" unicode="r" horiz-adv-x="956" 
d="M29 14q24 2 46 4t42 9q28 9 38.5 27t10.5 52v699q0 80 -47 110q-19 13 -49.5 20t-55.5 9v12l502 25l8 -8v-148h4q62 81 126 122.5t139 41.5q38 0 70.5 -13.5t56.5 -37.5t37.5 -58.5t13.5 -76.5q0 -36 -11.5 -68t-32.5 -56t-50 -38t-64 -14q-66 0 -108.5 35t-42.5 98
q0 14 4 32t9 36t10 34t7 25q-33 -1 -61 -12.5t-49.5 -27t-36.5 -32t-21 -27.5v-671q0 -65 41 -84q10 -5 30.5 -8t43 -5t43 -3.5t31.5 -2.5v-14h-684v14z" />
    <glyph glyph-name="s" unicode="s" horiz-adv-x="903" 
d="M430 -31q-49 0 -99 9t-93.5 22.5t-76.5 29t-48 27.5l-58 -69h-14l-10 354h14q31 -59 73 -121t92.5 -113t108.5 -83.5t121 -32.5q48 0 82.5 11t56.5 31t32 46.5t10 58.5q0 35 -16.5 62t-52.5 50.5t-92 46.5t-134 50q-52 18 -100.5 42.5t-86 61.5t-60 88.5t-22.5 123.5
q0 69 28 126t78.5 97.5t121 63t155.5 22.5q51 0 98 -5t88 -13.5t73.5 -18t54.5 -18.5l47 57h14l12 -324h-14q-48 81 -95 138t-92 93t-88.5 52t-86.5 16q-29 0 -54 -9t-43.5 -26t-29.5 -40.5t-11 -51.5q0 -40 22.5 -69t61 -52t91 -42t112.5 -39q135 -45 204.5 -119.5
t69.5 -200.5q0 -85 -39.5 -147.5t-102.5 -103.5t-142.5 -61t-159.5 -20z" />
    <glyph glyph-name="t" unicode="t" horiz-adv-x="762" 
d="M449 -27q-82 0 -140 20t-95 58t-54 92.5t-17 122.5v664h-174v37h178v274h355v-274h258v-37h-258v-649q0 -31 5.5 -62t19 -56t36.5 -41t58 -16q36 0 62 15.5t43 41t25.5 58t10.5 66.5h24q-3 -156 -89 -235t-248 -79z" />
    <glyph glyph-name="u" unicode="u" horiz-adv-x="1292" 
d="M442 -27q-70 0 -126 17.5t-95.5 57t-60.5 103.5t-21 156v504q0 32 -14 59.5t-39 44.5q-19 13 -47 21t-55 10v10l512 25l6 -8v-686q0 -100 38 -147.5t103 -47.5q31 0 57 7.5t45.5 19.5t33.5 27t22 30v637q0 31 -12 57t-33 43q-16 13 -50 21t-69 10v12l514 25l8 -8v-811
q0 -34 14 -59t37 -42q9 -7 22 -12t27 -8t28 -5t26 -3v-13l-502 -28l-8 8v133h-6q-26 -29 -60.5 -58t-78.5 -51.5t-98 -36.5t-118 -14z" />
    <glyph glyph-name="v" unicode="v" 
d="M451 -12q-17 41 -46.5 111t-65 154.5t-74 175.5t-74 173.5t-64.5 149t-45 102.5q-20 45 -51.5 69.5t-79.5 30.5v13h649v-13q-17 -1 -38.5 -3.5t-41 -8t-32.5 -14.5t-13 -21q0 -9 12 -43q7 -17 22 -56t35 -89.5t43 -107.5t45.5 -112t42.5 -102.5t34 -77.5q7 18 21 55
t31.5 83.5t37 97.5t37.5 98.5t32.5 85.5t22.5 58t15 45t5 47q-2 17 -17.5 28t-39.5 18t-52.5 11t-56.5 8v13h347v-13q-26 -5 -46.5 -10.5t-37.5 -17t-31 -30.5t-27 -50q-9 -21 -27 -66.5t-41.5 -103.5t-49 -123t-49 -125.5t-43 -110.5t-29.5 -77q-23 -62 -44.5 -124
t-41.5 -128h-174v0z" />
    <glyph glyph-name="w" unicode="w" horiz-adv-x="1608" 
d="M414 -12q-16 40 -43 109.5t-60 153t-68.5 174t-67.5 173t-59 149.5t-42 105q-19 46 -50.5 71.5t-80.5 30.5v13h596v-13q-15 -1 -32.5 -3.5t-33.5 -8t-26.5 -14.5t-10.5 -21q0 -3 3 -14.5t10 -28.5q3 -11 17.5 -49t34 -91t43 -114.5t45.5 -120t40 -107t28 -75.5
q13 29 34 73.5t42.5 89.5t39.5 84.5t26 59.5q-5 16 -17.5 52t-26.5 74.5t-26 70.5t-16 41q-17 53 -46 75t-67 27v13h594v-13q-17 -1 -38.5 -3.5t-41 -8t-32.5 -14.5t-13 -23q0 -2 2.5 -13t7.5 -28q5 -15 19 -52.5t33 -88t41 -108t43 -111.5t38 -100t27 -72q7 21 21 57
t31.5 79.5t36.5 91.5t37 92.5t33.5 83t24.5 63.5q4 9 9 22t9 26t6.5 24.5t2.5 17.5q0 18 -15 29.5t-39.5 18.5t-56 11t-63.5 6v13h358v-13q-26 -2 -47 -6.5t-39 -15t-33 -30.5t-30 -54q-66 -150 -129.5 -303.5t-126.5 -304.5q-26 -63 -50 -124.5t-44 -127.5h-158
q-11 31 -27.5 77t-35.5 99.5t-39 111t-39 111t-35.5 100t-28.5 78.5q-3 -4 -13 -26t-25 -53.5t-32 -68.5t-33 -71.5t-28.5 -63t-17.5 -42.5q-23 -59 -47.5 -124t-41.5 -128h-161v0z" />
    <glyph glyph-name="x" unicode="x" horiz-adv-x="1067" 
d="M-29 12q39 6 68 18t50.5 28.5t38.5 34.5t32 36q24 28 58 67.5t68 81t64 78.5t47 60q-10 16 -32.5 53t-51 83.5t-60 97t-59 95t-47.5 76.5t-26 41q-18 28 -37.5 45t-39.5 27t-39 14t-36 6v13h633v-13q-15 0 -33.5 -1.5t-35.5 -5t-30 -9t-16 -12.5q-3 -10 2 -21.5t13 -23.5
q2 -5 12 -22.5t24.5 -42.5t31.5 -54.5t33.5 -58t31 -53.5t24.5 -40q7 8 21 26t31.5 41t37 48.5t37 48.5t31.5 42t21 28q11 15 17.5 30.5t4.5 26.5t-15.5 19.5t-35.5 15.5t-49 11.5t-55 6.5v13h370v-13q-38 -5 -66 -16.5t-50.5 -26.5t-40 -33t-33.5 -36q-15 -18 -43.5 -52
t-60 -72.5t-60.5 -74.5t-45 -57q7 -12 29.5 -49t53 -86t64 -104.5t64 -104t53 -84t29.5 -45.5q17 -25 30 -41.5t27 -28t32 -18t44 -11.5v-14h-625v14q17 1 38.5 4t41 8t32.5 11t13 14q0 9 -7 24t-13 27q-3 5 -14 24.5t-26.5 46.5t-34 59t-36 62.5t-33 56t-24.5 40.5
q-6 -8 -21.5 -27t-35.5 -44.5t-42 -54t-42 -54.5t-35.5 -47t-22.5 -31q-11 -15 -21 -32.5t-10 -28.5q0 -12 14 -22t37 -17t52 -12t59 -7v-14h-375v12z" />
    <glyph glyph-name="y" unicode="y" horiz-adv-x="993" 
d="M137 -467q-27 0 -59 9t-60.5 30t-47.5 54.5t-19 82.5q0 28 11 55t31 48t47.5 34t61.5 13q21 0 45 -6t45 -20.5t34.5 -38.5t13.5 -60q0 -17 -2 -38t-4.5 -40.5t-5 -35t-3.5 -19.5q39 11 76 43t69.5 75.5t59.5 95.5t47 103q-9 19 -30 66.5t-50 113t-63 144t-68.5 158.5
t-68 156.5t-60.5 138.5t-45.5 104.5t-23.5 54.5q-19 40 -50 67t-84 33v13h623v-13q-16 -1 -37.5 -3.5t-41 -7.5t-33 -14t-13.5 -22q0 -5 4.5 -17.5t9.5 -25.5q4 -10 19.5 -47.5t37 -90t46.5 -113t48 -116.5t42 -101.5t29 -67.5q12 26 28 65t34.5 84t37.5 91.5t35.5 89.5
t30 77.5t20.5 55.5q9 26 15.5 51.5t2.5 38.5q-8 32 -55.5 48.5t-126.5 24.5v13h375v-13q-24 -1 -44 -6.5t-37 -19t-32 -35.5t-30 -55q-21 -47 -48.5 -108.5t-58 -131.5t-63.5 -145.5t-65 -149.5t-62.5 -143.5t-55.5 -128.5q-48 -111 -97.5 -203t-103 -157.5t-111 -101.5
t-120.5 -36z" />
    <glyph glyph-name="z" unicode="z" horiz-adv-x="977" 
d="M29 18l532 926h-102q-66 0 -110.5 -4t-72.5 -16q-19 -9 -42.5 -36.5t-49 -65t-52 -81t-50.5 -84.5h-16v310h886v-17l-530 -930h108q26 0 46 1t36 2t29.5 2.5t28.5 3.5q35 5 66.5 29t56.5 61q13 20 30 47.5t35.5 59t37.5 64.5t36 64h14v-354h-917v18z" />
    <glyph glyph-name="bullet" unicode="&#x2022;" horiz-adv-x="901" 
d="M451 362q-62 0 -118 24t-98 65t-67 96.5t-25 118.5q0 62 25 117.5t67 97t98 66t118 24.5t117.5 -24.5t97.5 -66t67 -97t25 -117.5q0 -63 -25 -118.5t-67 -96.5t-97.5 -65t-117.5 -24z" />
    <glyph glyph-name="registered" unicode="&#xae;" horiz-adv-x="971" 
d="M522 621q-87 0 -161.5 31.5t-129.5 86.5t-86.5 129.5t-31.5 161.5t31.5 162t86.5 130t129.5 86.5t161.5 31.5t162 -31.5t130 -86.5t86.5 -130t31.5 -162t-31.5 -161.5t-86.5 -129.5t-130 -86.5t-162 -31.5zM522 662q78 0 144 28.5t114 78t75.5 116.5t27.5 145t-27.5 145
t-75.5 117t-114 78.5t-144 28.5t-144 -28.5t-114 -78.5t-75 -117t-27 -145t27 -145t75 -116.5t114 -78t144 -28.5zM684 809q-56 0 -84.5 29t-34.5 86q-3 20 -3 41t-4.5 38t-17.5 28t-42 11h-6v-174q0 -12 4 -20.5t16 -13.5q11 -7 33 -7v-12h-244v12q9 0 25.5 2.5t19.5 4.5
q21 9 21 34v355q0 12 -4.5 21.5t-16.5 12.5q-9 5 -22.5 7t-22.5 2v12h248q25 0 55.5 -3.5t56.5 -14.5t44 -31.5t18 -54.5q0 -51 -42 -81t-126 -36v-6q66 -10 101.5 -30t43.5 -58l17 -78q5 -17 10.5 -24t11.5 -7q14 0 21.5 11.5t7.5 37.5h18q0 -49 -24.5 -71.5t-77.5 -22.5z
M506 1061q46 0 63 24.5t17 75.5q0 48 -22 75.5t-60 27.5h-12v-203h14z" />
    <glyph glyph-name="copyright" unicode="&#xa9;" horiz-adv-x="1946" 
d="M987 27q-122 0 -217 33.5t-160 95.5t-99 150.5t-34 199.5q0 108 33.5 199.5t100.5 158t167.5 103.5t233.5 37q37 0 78 -7.5t76.5 -17.5t61.5 -20.5t34 -16.5l61 76h16l9 -371h-21q-19 57 -47 116t-66 107t-86.5 78.5t-107.5 30.5q-49 0 -89.5 -30.5t-69 -89.5
t-44.5 -145.5t-16 -197.5q0 -92 13 -169t43.5 -132.5t80 -87t121.5 -31.5q47 0 90 18t81 49t70 73t56 90l22 -13q-27 -60 -61.5 -112.5t-81 -91t-107.5 -60.5t-141 -22zM975 -371q-124 0 -238.5 31.5t-214 89.5t-181 139t-139.5 179t-90 211t-32 235q0 121 31.5 233
t89.5 210t139.5 178.5t181 138.5t214 89.5t239.5 31.5q123 0 237 -31.5t213 -89.5t180.5 -138.5t139 -178.5t89.5 -210t32 -233q0 -122 -32 -235t-89.5 -211t-139 -179t-180.5 -139t-213 -89.5t-237 -31.5zM975 -295q111 0 213 29t191 81.5t161 126t124 163.5t80 193.5
t28 215.5q0 110 -28 212.5t-80 192t-124 163t-161 125.5t-191 81t-213 29q-112 0 -214.5 -29t-191.5 -81t-162 -125.5t-124.5 -163t-80 -192t-28.5 -212.5q0 -112 28.5 -215.5t80 -193.5t124.5 -163.5t162 -126t191.5 -81.5t214.5 -29z" />
    <glyph glyph-name="trademark" unicode="&#x2122;" horiz-adv-x="1528" 
d="M662 879q4 1 14 2t21 3t22 5t18 8q25 18 25 100v303q0 47 -23 62q-14 11 -35.5 16.5t-35.5 5.5v15h276l137 -363l119 295q6 17 10.5 35.5t6.5 32.5h280v-15q-5 0 -13 -1.5t-17.5 -3t-18.5 -4t-14 -3.5q-21 -8 -21 -35v-409q0 -27 21 -35q4 -2 12.5 -4.5t18.5 -4t19.5 -3
t14.5 -2.5v-13h-358v13q4 1 15 2t23 2.5t23 3.5t15 4q20 11 20 37v391h-12l-181 -447h-77q-8 23 -17.5 50.5t-21.5 56.5l-125 330h-12v-314q0 -43 6.5 -66t17.5 -32q5 -5 16.5 -8t24 -5t23.5 -3t16 -2v-13h-233v13zM166 879q5 1 14.5 1.5t19.5 2t19 3t14 3.5q25 9 25 33v458
h-31h-23.5t-25.5 -2q-12 -2 -28.5 -21.5t-32 -44.5t-27 -49.5t-14.5 -35.5h-10v172h559v-172h-11q-4 11 -15.5 35.5t-26 49.5t-30.5 44.5t-28 21.5q-14 2 -24 2h-25h-29v-454q0 -26 23 -35l65 -12v-13h-358v13z" />
    <glyph glyph-name="acute" unicode="&#xb4;" 
d="M334 1087l155 312q15 31 34.5 59t42.5 49.5t50 34t58 12.5t57.5 -10.5t45.5 -28.5t29.5 -42t10.5 -52q0 -56 -37.5 -97t-103.5 -79q-26 -15 -62 -33.5t-79 -41t-91 -47.5t-96 -52z" />
    <glyph glyph-name="dieresis" unicode="&#xa8;" 
d="M272 1116q-35 0 -65 14.5t-52.5 38.5t-35.5 56t-13 67t13 67t35.5 56t52.5 38.5t65 14.5q34 0 64 -14.5t52.5 -38.5t36 -56t13.5 -67t-13.5 -67t-36 -56t-52.5 -38.5t-64 -14.5zM752 1116q-35 0 -65 14.5t-52.5 38.5t-35.5 56t-13 67t13 67t35.5 56t52.5 38.5t65 14.5
q34 0 64 -14.5t52.5 -38.5t36 -56t13.5 -67t-13.5 -67t-36 -56t-52.5 -38.5t-64 -14.5z" />
    <glyph glyph-name="ellipsis" unicode="&#x2026;" horiz-adv-x="1653" 
d="M276 -27q-41 0 -78 15t-64.5 42t-43.5 63.5t-16 78.5t16 78.5t43.5 63.5t64.5 42t78 15q42 0 78.5 -15t64.5 -42t44 -63.5t16 -78.5t-16 -78.5t-44 -63.5t-64.5 -42t-78.5 -15zM827 -27q-41 0 -78 15t-64.5 42t-43.5 63.5t-16 78.5t16 78.5t43.5 63.5t64.5 42t78 15
q42 0 78.5 -15t64.5 -42t44 -63.5t16 -78.5t-16 -78.5t-44 -63.5t-64.5 -42t-78.5 -15zM1378 -27q-41 0 -78 15t-64.5 42t-43.5 63.5t-16 78.5t16 78.5t43.5 63.5t64.5 42t78 15q42 0 78.5 -15t64.5 -42t44 -63.5t16 -78.5t-16 -78.5t-44 -63.5t-64.5 -42t-78.5 -15z" />
    <glyph glyph-name="endash" unicode="&#x2013;" horiz-adv-x="1114" 
d="M102 641h910v-242h-910v242z" />
    <glyph glyph-name="emdash" unicode="&#x2014;" horiz-adv-x="1810" 
d="M102 641h1606v-242h-1606v242z" />
    <glyph glyph-name="quotedblleft" unicode="&#x201c;" horiz-adv-x="973" 
d="M266 918q-65 0 -107.5 23t-67.5 61t-35.5 86.5t-10.5 99.5q0 79 36.5 144t93 116t124.5 87.5t131 59.5l12 -24q-44 -16 -93.5 -49t-92 -75t-71.5 -89.5t-33 -91.5h98q56 0 93 -18.5t59 -45.5t31 -57.5t9 -54.5q0 -23 -10.5 -53t-32 -56.5t-55 -44.5t-78.5 -18zM737 918
q-65 0 -107.5 23t-67.5 61t-35.5 86.5t-10.5 99.5q0 79 36.5 144t93 116t124.5 87.5t131 59.5l12 -24q-44 -16 -93.5 -49t-92 -75t-71.5 -89.5t-33 -91.5h98q56 0 93 -18.5t59 -45.5t31 -57.5t9 -54.5q0 -23 -10.5 -53t-32 -56.5t-55 -44.5t-78.5 -18z" />
    <glyph glyph-name="quotedblright" unicode="&#x201d;" horiz-adv-x="973" 
d="M59 938q45 16 94.5 49t92 75t71.5 89t33 92h-98q-56 0 -93.5 18.5t-59.5 45.5t-31 57.5t-9 54.5q0 23 10.5 53t32.5 56.5t55.5 44.5t78.5 18q64 0 107 -23t68 -61t35.5 -86.5t10.5 -99.5q0 -79 -36.5 -144t-93 -116t-124.5 -88t-131 -60zM530 938q45 16 94.5 49t92 75
t71.5 89t33 92h-98q-56 0 -93.5 18.5t-59.5 45.5t-31 57.5t-9 54.5q0 23 10.5 53t32.5 56.5t55.5 44.5t78.5 18q64 0 107 -23t68 -61t35.5 -86.5t10.5 -99.5q0 -79 -36.5 -144t-93 -116t-124.5 -88t-131 -60z" />
    <glyph glyph-name="quoteleft" unicode="&#x2018;" horiz-adv-x="502" 
d="M266 918q-65 0 -107.5 23t-67.5 61t-35.5 86.5t-10.5 99.5q0 79 36.5 144t93 116t124.5 87.5t131 59.5l12 -24q-44 -16 -93.5 -49t-92 -75t-71.5 -89.5t-33 -91.5h98q56 0 93 -18.5t59 -45.5t31 -57.5t9 -54.5q0 -23 -10.5 -53t-32 -56.5t-55 -44.5t-78.5 -18z" />
    <glyph glyph-name="quoteright" unicode="&#x2019;" horiz-adv-x="502" 
d="M59 938q45 16 94.5 49t92 75t71.5 89t33 92h-98q-56 0 -93.5 18.5t-59.5 45.5t-31 57.5t-9 54.5q0 23 10.5 53t32.5 56.5t55.5 44.5t78.5 18q64 0 107 -23t68 -61t35.5 -86.5t10.5 -99.5q0 -79 -36.5 -144t-93 -116t-124.5 -88t-131 -60z" />
    <glyph glyph-name="periodcentered" unicode="&#xb7;" horiz-adv-x="551" 
d="M276 356q-41 0 -78 15t-64.5 42t-43.5 63.5t-16 78.5t16 78.5t43.5 63.5t64.5 42t78 15q42 0 78.5 -15t64.5 -42t44 -63.5t16 -78.5t-16 -78.5t-44 -63.5t-64.5 -42t-78.5 -15z" />
    <glyph glyph-name="periodcentered" unicode="&#x2219;" horiz-adv-x="551" 
d="M276 356q-41 0 -78 15t-64.5 42t-43.5 63.5t-16 78.5t16 78.5t43.5 63.5t64.5 42t78 15q42 0 78.5 -15t64.5 -42t44 -63.5t16 -78.5t-16 -78.5t-44 -63.5t-64.5 -42t-78.5 -15z" />
    <glyph glyph-name="circumflex" unicode="&#x2c6;" 
d="M508 1303l-336 -216l-20 15q31 54 65 110.5t66 108.5t59.5 96t46.5 74q8 12 18 20t24.5 12.5t34 6.5t46.5 2q54 0 80 -9t39 -28q17 -26 44.5 -69.5t60 -96.5t67.5 -111.5t67 -115.5l-22 -17z" />
    <glyph glyph-name="tilde" unicode="&#x2dc;" 
d="M104 1120q9 26 24 62t35 74.5t46 77t56 68.5t64 49t72 19q55 0 97 -16.5t78.5 -36t72 -35.5t78.5 -16q53 0 95.5 28t70.5 99l27 -8q-8 -27 -21 -64t-31 -76t-42 -77t-53 -68t-63.5 -48.5t-74.5 -18.5q-55 0 -98 16.5t-81 36.5t-74 36.5t-77 16.5q-49 0 -94.5 -30
t-79.5 -99z" />
    <glyph glyph-name="macron" unicode="&#xaf;" 
d="M174 1384h676v-227h-676v227z" />
    <glyph glyph-name="macron" unicode="&#x304;" 
d="M174 1384h676v-227h-676v227z" />
    <glyph glyph-name="breve" unicode="&#x2d8;" 
d="M512 1077q-49 0 -100 18t-96.5 63t-82 122t-57.5 195l33 12q22 -44 55.5 -76t73.5 -53t84.5 -31t89.5 -10t89.5 10t84.5 31t73.5 53t55.5 76l33 -12q-24 -117 -61 -194t-82 -122t-94.5 -63.5t-98.5 -18.5z" />
    <glyph glyph-name="dotaccent" unicode="&#x2d9;" 
d="M514 1116q-36 0 -68 14t-56 38t-38 56t-14 68t14 68t38 56t56 38t68 14t68 -14t56 -38t38 -56t14 -68t-14 -68t-38 -56t-56 -38t-68 -14z" />
    <glyph glyph-name="ring" unicode="&#x2da;" 
d="M512 1075q-60 0 -112 15.5t-90.5 44t-60.5 69t-22 90.5q0 49 24 89.5t64 69t91.5 44.5t105.5 16q57 0 108.5 -15.5t91 -44t62.5 -69t23 -90.5q0 -48 -22 -88t-60.5 -69t-90.5 -45.5t-112 -16.5zM512 1104q27 0 45.5 14t30.5 39.5t17 60.5t5 76q0 40 -5 75t-17 60.5
t-30.5 40.5t-45.5 15q-26 0 -44.5 -14t-30.5 -39t-17.5 -60.5t-5.5 -77.5q0 -41 5 -75.5t17 -60t30.5 -40t45.5 -14.5z" />
    <glyph glyph-name="cedilla" unicode="&#xb8;" 
d="M283 -453q49 0 97.5 3.5t86.5 17t62 40.5t24 73q0 24 -10.5 39.5t-27 25.5t-37.5 14t-42 4v236h31v-88q63 1 120 -8t100.5 -30.5t69 -56.5t25.5 -85q0 -134 -128.5 -186t-370.5 -29v30z" />
    <glyph glyph-name="hungarumlaut" unicode="&#x2dd;" 
d="M262 1110l139 281q14 27 31.5 52.5t38 44.5t45 30.5t51.5 11.5q28 0 52 -9.5t41 -25.5t26.5 -37.5t9.5 -46.5q0 -26 -8.5 -48t-25 -41t-40 -36t-53.5 -35q-23 -13 -55.5 -30t-71 -37t-81.5 -42t-87 -46zM643 1110l139 281q14 27 31 52.5t38 44.5t45 30.5t52 11.5t52 -9.5
t41 -25.5t26.5 -37.5t9.5 -46.5q0 -26 -8.5 -48t-25 -41t-40 -36t-53.5 -35q-23 -13 -55.5 -30t-71 -37t-81.5 -42t-87 -46z" />
    <glyph glyph-name="ogonek" unicode="&#x2db;" 
d="M709 -483q-218 -11 -336.5 36t-118.5 154q0 43 20.5 80.5t66.5 72.5t119.5 69t178.5 71h14q-38 -31 -65.5 -65t-44.5 -68.5t-25 -68t-8 -62.5q0 -85 48 -132t151 -61v-26v0z" />
    <glyph glyph-name="caron" unicode="&#x2c7;" 
d="M510 1094q-54 0 -80 9t-39 27q-17 26 -44.5 69.5t-60 96.5t-67.5 112t-67 116l22 16l340 -217l336 215l20 -14q-32 -55 -65.5 -111.5t-65.5 -108t-59.5 -95.5t-46.5 -74q-8 -12 -18 -20t-24.5 -12.5t-34 -6.5t-46.5 -2z" />
    <glyph glyph-name="Eth" unicode="&#xd0;" horiz-adv-x="1638" 
d="M18 14q22 1 46.5 3.5t47 4.5t41 5t27.5 6q37 12 49.5 36t12.5 58v567h-144v68h144v502q0 34 -12.5 61t-49.5 39q-12 4 -31.5 7t-42 5.5t-46 4t-42.5 3.5v15h801q73 0 159 -13.5t172.5 -45.5t166.5 -85t142 -132t99 -186t37 -247q0 -119 -32 -216.5t-88 -174.5t-133 -133
t-167.5 -93t-191 -55t-203.5 -18h-762v14zM778 23q93 0 159.5 47t109.5 134t63 211t20 277q0 155 -24.5 281.5t-74 216t-124.5 138t-176 48.5q-14 0 -35 -1t-30 -3v-610h221v-68h-221v-530q0 -66 24.5 -103.5t87.5 -37.5z" />
    <glyph glyph-name="eth" unicode="&#xf0;" horiz-adv-x="1214" 
d="M602 -31q-104 0 -205 30.5t-181 93.5t-129.5 160t-49.5 230q0 125 45 220.5t120 160t172 97t201 32.5q69 0 117.5 -23t77.5 -55l8 3q-17 92 -54 180.5t-83 161.5l-244 -148l-30 47l243 146q-21 27 -48 56.5t-55.5 58t-55.5 54t-48 42.5l15 18q26 -12 63.5 -31t78.5 -42
t81 -46.5t72 -44.5l198 117l31 -47l-176 -103q75 -56 148.5 -128t132 -162.5t95 -201t36.5 -243.5q0 -137 -42 -252.5t-118 -200.5t-182 -132.5t-234 -47.5zM610 -8q60 0 95.5 43t53.5 113.5t23.5 160.5t5.5 183q0 88 -6 173.5t-25 152.5t-53.5 108t-91.5 41q-40 0 -69 -20
t-49 -54t-32.5 -80t-19.5 -98.5t-9.5 -108.5t-2.5 -110q0 -92 5 -182.5t23 -162t54 -115.5t98 -44z" />
    <glyph glyph-name="Lslash" unicode="&#x141;" horiz-adv-x="1354" 
d="M18 14q13 1 36.5 3t48.5 4t46.5 5t30.5 7q37 15 49.5 41.5t12.5 60.5v471l-168 -61l-23 57l191 70v590q0 34 -12 59t-50 41q-15 6 -37 9.5t-45.5 6t-45 3.5t-34.5 3v15h856v-15q-14 -2 -33 -2t-39 -1t-39.5 -3t-33.5 -6q-37 -12 -50 -39t-13 -61v-473l254 90l18 -55
l-272 -97v-536q0 -60 3.5 -95t21.5 -53t55.5 -23t105.5 -5q38 0 68.5 1.5t55 6.5t44 15t37.5 28q17 17 41.5 49t53 71.5t58.5 84.5t58.5 88t53 80.5t42.5 64.5h16l-26 -514h-1336v14z" />
    <glyph glyph-name="lslash" unicode="&#x142;" horiz-adv-x="649" 
d="M8 14q25 2 46.5 4t41.5 9q28 9 38.5 27t10.5 52v570l-137 -51l-20 53l157 59v602q0 34 -12.5 68t-38.5 49q-13 8 -32.5 14t-40.5 10t-40.5 6t-33.5 3v14l549 25l8 -8v-674l127 47l18 -55l-145 -54v-667q0 -34 7.5 -54.5t27.5 -29.5q10 -5 23.5 -8t28.5 -5t29 -3.5
t25 -2.5v-14h-637v14z" />
    <glyph glyph-name="Scaron" unicode="&#x160;" horiz-adv-x="1253" 
d="M596 -31q-81 0 -149 11t-122.5 27t-96 35t-68.5 34l-86 -92h-15l-12 516h23q57 -113 113.5 -205.5t118 -158.5t130.5 -102t150 -36t134.5 21.5t85.5 56.5t45 79.5t13 90.5q0 45 -12.5 82.5t-43 69.5t-81.5 60t-129 56q-68 25 -131 43.5t-111 38.5q-131 56 -201.5 158
t-70.5 245q0 109 45 190.5t121.5 136t179 81.5t217.5 27q57 0 115 -8.5t109.5 -22t94 -30t68.5 -32.5l78 76h16l9 -485h-23q-42 96 -85 182t-94 150.5t-114 102.5t-145 38q-62 0 -110.5 -21t-81.5 -56t-50.5 -79.5t-17.5 -91.5q0 -54 20 -95t55.5 -72.5t84 -55.5t106.5 -45
q31 -12 64.5 -22.5t66.5 -20.5t63.5 -20t55.5 -21q60 -26 110.5 -59t87 -78.5t57.5 -107t21 -142.5q0 -94 -45 -176t-125.5 -142.5t-192.5 -95.5t-245 -35zM647 1506q-54 0 -80 9t-39 27q-17 26 -44.5 69.5t-60 96.5t-67.5 112t-67 116l22 16l340 -217l336 215l20 -14
q-32 -55 -65.5 -111.5t-65.5 -108t-59.5 -95.5t-46.5 -74q-8 -12 -18 -20t-24.5 -12.5t-34 -6.5t-46.5 -2z" />
    <glyph glyph-name="scaron" unicode="&#x161;" horiz-adv-x="903" 
d="M430 -31q-49 0 -99 9t-93.5 22.5t-76.5 29t-48 27.5l-58 -69h-14l-10 354h14q31 -59 73 -121t92.5 -113t108.5 -83.5t121 -32.5q48 0 82.5 11t56.5 31t32 46.5t10 58.5q0 35 -16.5 62t-52.5 50.5t-92 46.5t-134 50q-52 18 -100.5 42.5t-86 61.5t-60 88.5t-22.5 123.5
q0 69 28 126t78.5 97.5t121 63t155.5 22.5q51 0 98 -5t88 -13.5t73.5 -18t54.5 -18.5l47 57h14l12 -324h-14q-48 81 -95 138t-92 93t-88.5 52t-86.5 16q-29 0 -54 -9t-43.5 -26t-29.5 -40.5t-11 -51.5q0 -40 22.5 -69t61 -52t91 -42t112.5 -39q135 -45 204.5 -119.5
t69.5 -200.5q0 -85 -39.5 -147.5t-102.5 -103.5t-142.5 -61t-159.5 -20zM452 1094q-54 0 -80 9t-39 27q-17 26 -44.5 69.5t-60 96.5t-67.5 112t-67 116l22 16l340 -217l336 215l20 -14q-32 -55 -65.5 -111.5t-65.5 -108t-59.5 -95.5t-46.5 -74q-8 -12 -18 -20t-24.5 -12.5
t-34 -6.5t-46.5 -2z" />
    <glyph glyph-name="Yacute" unicode="&#xdd;" horiz-adv-x="1483" 
d="M297 14q21 1 46.5 3.5t49.5 4.5t43.5 5t28.5 6q37 12 49 36t12 58v326q0 34 -2 58.5t-9 48t-19 50t-33 64.5q-12 22 -36 65.5t-53 97t-61 112t-60.5 110.5t-51 92.5t-33.5 58.5q-28 47 -61 84.5t-68 59.5q-28 17 -56 22.5t-57 7.5v15h883v-15q-27 -2 -65 -5.5
t-72.5 -10.5t-59 -17.5t-24.5 -25.5q0 -5 6.5 -22.5t18.5 -43.5t28.5 -59.5t36.5 -71.5q5 -11 21.5 -42.5t39.5 -75t51 -95t55.5 -102t53 -96.5t45.5 -78q9 14 26 44.5t38.5 70.5t45.5 86t48 91t45.5 86.5t38.5 72.5q51 97 70.5 153t19.5 72q0 21 -24 33.5t-59.5 19.5
t-76.5 10.5t-76 5.5v15h521v-15q-38 -5 -70.5 -8t-58.5 -18q-44 -26 -75 -64.5t-57 -85.5q-36 -63 -69 -121.5t-66 -117.5t-68 -123t-75 -137q-26 -48 -40.5 -82.5t-21.5 -66t-8.5 -66t-1.5 -82.5v-281q0 -34 13.5 -60t48.5 -38q9 -3 29 -6t44 -5t48.5 -4.5t42.5 -3.5v-14
h-879v14zM705 1478l155 312q15 31 34.5 59t42.5 49.5t50 34t58 12.5t57.5 -10.5t45.5 -28.5t29.5 -42t10.5 -52q0 -56 -37.5 -97t-103.5 -79q-26 -15 -62 -33.5t-79 -41t-91 -47.5t-96 -52z" />
    <glyph glyph-name="yacute" unicode="&#xfd;" horiz-adv-x="993" 
d="M137 -467q-27 0 -59 9t-60.5 30t-47.5 54.5t-19 82.5q0 28 11 55t31 48t47.5 34t61.5 13q21 0 45 -6t45 -20.5t34.5 -38.5t13.5 -60q0 -17 -2 -38t-4.5 -40.5t-5 -35t-3.5 -19.5q39 11 76 43t69.5 75.5t59.5 95.5t47 103q-9 19 -30 66.5t-50 113t-63 144t-68.5 158.5
t-68 156.5t-60.5 138.5t-45.5 104.5t-23.5 54.5q-19 40 -50 67t-84 33v13h623v-13q-16 -1 -37.5 -3.5t-41 -7.5t-33 -14t-13.5 -22q0 -5 4.5 -17.5t9.5 -25.5q4 -10 19.5 -47.5t37 -90t46.5 -113t48 -116.5t42 -101.5t29 -67.5q12 26 28 65t34.5 84t37.5 91.5t35.5 89.5
t30 77.5t20.5 55.5q9 26 15.5 51.5t2.5 38.5q-8 32 -55.5 48.5t-126.5 24.5v13h375v-13q-24 -1 -44 -6.5t-37 -19t-32 -35.5t-30 -55q-21 -47 -48.5 -108.5t-58 -131.5t-63.5 -145.5t-65 -149.5t-62.5 -143.5t-55.5 -128.5q-48 -111 -97.5 -203t-103 -157.5t-111 -101.5
t-120.5 -36zM461 1087l155 312q15 31 34.5 59t42.5 49.5t50 34t58 12.5t57.5 -10.5t45.5 -28.5t29.5 -42t10.5 -52q0 -56 -37.5 -97t-103.5 -79q-26 -15 -62 -33.5t-79 -41t-91 -47.5t-96 -52z" />
    <glyph glyph-name="Thorn" unicode="&#xde;" horiz-adv-x="1452" 
d="M18 14q14 1 37.5 2.5t48.5 4t46 5.5t30 7q37 14 49.5 40t12.5 60v1131q0 34 -12 59t-50 41q-15 5 -36 8.5t-43.5 5.5t-42.5 3t-33 3v15h847v-15q-14 -1 -32.5 -2t-38 -2.5t-38 -4.5t-32.5 -7q-37 -12 -51 -36t-14 -58v-174h247q266 0 401.5 -95.5t135.5 -273.5
q0 -75 -23.5 -135t-65 -106.5t-99 -79.5t-125.5 -54t-143.5 -31t-153.5 -10h-174v-180q0 -34 13 -60t48 -40q9 -4 27 -7t40.5 -5.5t49 -5t53.5 -3.5v-14h-879v14zM702 344q84 0 141 30t92.5 79.5t50.5 114t15 134.5q0 78 -14 145.5t-45.5 117.5t-83.5 79t-127 29h-65v-729
h36z" />
    <glyph glyph-name="thorn" unicode="&#xfe;" horiz-adv-x="1282" 
d="M-18 -449q32 2 63 4.5t49 8.5q29 9 40 35.5t11 58.5v1681q0 34 -12.5 68t-38.5 49q-13 8 -32.5 14t-40.5 10t-40.5 6t-33.5 3v14l549 25l8 -8v-658l8 -2q17 19 43.5 42t61.5 43.5t78 34t93 13.5q87 0 166 -27t139.5 -86.5t96 -153.5t35.5 -228q0 -128 -42.5 -226
t-111.5 -164t-158 -99.5t-182 -33.5q-42 0 -75.5 5t-60 14t-47 20.5t-38.5 24.5h-8v-371q0 -38 14.5 -60.5t42.5 -33.5q38 -14 76.5 -16.5t73.5 -6.5v-14h-727v14zM664 8q51 0 84.5 35t53.5 97.5t28 147.5t8 185q0 78 -7.5 154t-28 135.5t-56.5 96t-93 36.5
q-27 0 -48.5 -5.5t-39 -15.5t-33 -25t-30.5 -34v-659q7 -24 19 -50t31 -48t46 -36t66 -14z" />
    <glyph glyph-name="Zcaron" unicode="&#x17d;" horiz-adv-x="1364" 
d="M-8 14l872 1360h-243q-42 0 -74.5 -1.5t-57.5 -4.5t-44 -8t-35 -12q-22 -9 -62 -46t-86.5 -89t-94 -111.5t-83.5 -114.5h-18l40 412h1237v-15l-874 -1359h274q83 0 138.5 3t91.5 10.5t56.5 19t35.5 28.5q30 34 67.5 79.5t75.5 95t74.5 100.5t65.5 96h16l-47 -457h-1325
v14zM690 1485q-54 0 -80 9t-39 27q-17 26 -44.5 69.5t-60 96.5t-67.5 112t-67 116l22 16l340 -217l336 215l20 -14q-32 -55 -65.5 -111.5t-65.5 -108t-59.5 -95.5t-46.5 -74q-8 -12 -18 -20t-24.5 -12.5t-34 -6.5t-46.5 -2z" />
    <glyph glyph-name="zcaron" unicode="&#x17e;" horiz-adv-x="977" 
d="M29 18l532 926h-102q-66 0 -110.5 -4t-72.5 -16q-19 -9 -42.5 -36.5t-49 -65t-52 -81t-50.5 -84.5h-16v310h886v-17l-530 -930h108q26 0 46 1t36 2t29.5 2.5t28.5 3.5q35 5 66.5 29t56.5 61q13 20 30 47.5t35.5 59t37.5 64.5t36 64h14v-354h-917v18zM503 1094
q-54 0 -80 9t-39 27q-17 26 -44.5 69.5t-60 96.5t-67.5 112t-67 116l22 16l340 -217l336 215l20 -14q-32 -55 -65.5 -111.5t-65.5 -108t-59.5 -95.5t-46.5 -74q-8 -12 -18 -20t-24.5 -12.5t-34 -6.5t-46.5 -2z" />
    <glyph glyph-name="onehalf" unicode="&#xbd;" horiz-adv-x="1178" 
d="M221 -416q134 79 227 150.5t156 128.5q76 69 113 145.5t37 167.5q0 34 -10 66.5t-27.5 57t-42 39.5t-53.5 15q-51 0 -92 -24t-70 -60.5t-44.5 -79.5t-15.5 -81q0 -20 4 -40t14.5 -36t29 -25.5t47.5 -9.5q28 0 54.5 12.5t48.5 31t39.5 39t27.5 36.5l10 -8
q-13 -26 -35.5 -59.5t-55.5 -63t-77 -50t-100 -20.5q-53 0 -89.5 12.5t-59 33.5t-32.5 50t-10 62q0 47 27 99.5t80.5 97t132.5 73.5t184 29q82 0 146.5 -17t109.5 -49t68.5 -78t23.5 -104q0 -70 -33.5 -122.5t-96 -96.5t-151.5 -83t-200 -81l-72 -43h434q27 0 49 10
t40.5 27.5t35.5 42t35 53.5l12 -6l-118 -291h-701v49zM299 707q12 1 32 2.5t41.5 3.5t40.5 4.5t29 5.5q20 6 35 20t15 43v646q-11 -2 -27.5 -3.5t-38.5 -1.5q-40 0 -88.5 20t-93.5 52l6 8q37 -14 79.5 -23t92.5 -9q34 0 77.5 5.5t85 14.5t77 19.5t53.5 19.5h22
q-5 -22 -8 -48.5t-4.5 -54t-2.5 -55t-1 -51.5v-534q0 -22 12.5 -39t34.5 -25q10 -4 29.5 -7.5t40.5 -6.5t40 -4.5t29 -1.5v-13h-608v13zM68 571h1042v-84h-1042v84z" />
    <glyph glyph-name="onequarter" unicode="&#xbc;" horiz-adv-x="1178" 
d="M444 -453q10 1 24.5 2t29.5 3t28 4t21 4q20 6 31.5 22.5t11.5 38.5v172h-434v76l512 508h141v-506h106t64 18q9 7 17 19t13 26t8 29t3 27h12v-322h-12q-2 29 -11.5 61.5t-31.5 49.5q-19 14 -60.5 14h-107.5v-164q0 -21 9.5 -38t31.5 -25q7 -3 20 -6t28 -5.5t29 -4.5
t25 -3v-12h-508v12zM299 707q12 1 32 2.5t41.5 3.5t40.5 4.5t29 5.5q20 6 35 20t15 43v646q-11 -2 -27.5 -3.5t-38.5 -1.5q-40 0 -88.5 20t-93.5 52l6 8q37 -14 79.5 -23t92.5 -9q34 0 77.5 5.5t85 14.5t77 19.5t53.5 19.5h22q-5 -22 -8 -48.5t-4.5 -54t-2.5 -55t-1 -51.5
v-534q0 -22 12.5 -39t34.5 -25q10 -4 29.5 -7.5t40.5 -6.5t40 -4.5t29 -1.5v-13h-608v13zM68 571h1042v-84h-1042v84zM590 -129v385l-387 -385h387z" />
    <glyph glyph-name="onesuperior" unicode="&#xb9;" horiz-adv-x="737" 
d="M90 707q12 1 32 2.5t41.5 3.5t40.5 4.5t29 5.5q20 6 35 20t15 43v646q-11 -2 -27.5 -3.5t-38.5 -1.5q-40 0 -88.5 20t-93.5 52l6 8q37 -14 79.5 -23t92.5 -9q34 0 77.5 5.5t85 14.5t77 19.5t53.5 19.5h22q-5 -22 -8 -48.5t-4.5 -54t-2.5 -55t-1 -51.5v-534
q0 -22 12.5 -39t34.5 -25q10 -4 29.5 -7.5t40.5 -6.5t40 -4.5t29 -1.5v-13h-608v13z" />
    <glyph glyph-name="threequarters" unicode="&#xbe;" horiz-adv-x="1178" 
d="M500 680q-61 0 -119 11t-103 34.5t-72.5 61t-27.5 90.5q0 31 12 58.5t32.5 47.5t47.5 31.5t56 11.5q48 0 76 -24t28 -66q0 -31 -18.5 -48t-40 -28.5t-40 -21.5t-18.5 -27q0 -19 12 -39t35 -36t56.5 -26t77.5 -10q51 0 96 24.5t79 65t54 91.5t20 104q0 31 -7 59.5t-21 50
t-35.5 34t-50.5 12.5q-20 0 -41.5 -11.5t-41 -28t-36.5 -34.5t-29 -31l-32 47q57 26 109 54.5t91.5 63t62.5 76t23 93.5q0 25 -5 50t-17 45t-32.5 32t-51.5 12q-34 0 -66 -14.5t-57.5 -39.5t-41 -59t-15.5 -73q0 -37 15 -60.5t52 -23.5q20 0 36 6t29.5 14.5t25 18.5t20.5 18
l12 -10q-14 -18 -36 -38.5t-49.5 -38.5t-60.5 -30t-69 -12q-82 0 -125 32.5t-43 92.5q0 47 29.5 89.5t83.5 75t129.5 52t167.5 19.5q81 0 137.5 -13t92.5 -36.5t52.5 -57t16.5 -73.5q0 -29 -17.5 -58.5t-55.5 -55t-99 -45.5t-148 -32q71 5 132.5 -2t106.5 -28.5t71 -58
t26 -89.5q0 -67 -36.5 -122t-101 -94.5t-152.5 -61t-191 -21.5zM444 -453q10 1 24.5 2t29.5 3t28 4t21 4q20 6 31.5 22.5t11.5 38.5v172h-434v76l512 508h141v-506h106t64 18q9 7 17 19t13 26t8 29t3 27h12v-322h-12q-2 29 -11.5 61.5t-31.5 49.5q-19 14 -60.5 14h-107.5
v-164q0 -21 9.5 -38t31.5 -25q7 -3 20 -6t28 -5.5t29 -4.5t25 -3v-12h-508v12zM68 571h1042v-84h-1042v84zM590 -129v385l-387 -385h387z" />
    <glyph glyph-name="threesuperior" unicode="&#xb3;" horiz-adv-x="956" 
d="M395 680q-61 0 -118.5 11t-102.5 34.5t-72.5 61t-27.5 90.5q0 31 12 58.5t32 47.5t47 31.5t56 11.5q48 0 76.5 -24t28.5 -66q0 -31 -18.5 -48t-40 -28.5t-40 -21.5t-18.5 -27q0 -19 11.5 -39t34.5 -36t56.5 -26t77.5 -10q51 0 96 24.5t79.5 65t54.5 91.5t20 104
q0 31 -7 59.5t-21.5 50t-36 34t-50.5 12.5q-20 0 -41 -11.5t-40.5 -28t-36.5 -34.5t-29 -31l-33 47q58 26 110 54.5t91.5 63t62.5 76t23 93.5q0 25 -5 50t-17.5 45t-33 32t-51.5 12q-34 0 -66 -14.5t-57.5 -39.5t-41 -59t-15.5 -73q0 -37 15 -60.5t53 -23.5q20 0 36 6
t29.5 14.5t24.5 18.5t20 18l13 -10q-14 -18 -36 -38.5t-49.5 -38.5t-61 -30t-69.5 -12q-81 0 -124 32.5t-43 92.5q0 47 29.5 89.5t83.5 75t129 52t167 19.5q81 0 137.5 -13t92.5 -36.5t52.5 -57t16.5 -73.5q0 -29 -17.5 -58.5t-55.5 -55t-98.5 -45.5t-147.5 -32
q70 5 131.5 -2t107 -28.5t71.5 -58t26 -89.5q0 -67 -36.5 -122t-101 -94.5t-153 -61t-191.5 -21.5z" />
    <glyph glyph-name="twosuperior" unicode="&#xb2;" horiz-adv-x="946" 
d="M115 739q134 79 227 150.5t156 128.5q75 69 112 145.5t37 167.5q0 34 -10 66.5t-27.5 57t-42 39.5t-53.5 15q-51 0 -91.5 -24t-69.5 -60.5t-44.5 -79.5t-15.5 -81q0 -20 3.5 -40t14 -36t29 -25.5t47.5 -9.5q28 0 54.5 12.5t49 31t39.5 39t27 36.5l10 -8
q-13 -26 -35.5 -59.5t-55.5 -63t-77 -50t-100 -20.5q-53 0 -89 12.5t-58.5 33.5t-32.5 50t-10 62q0 47 27 99.5t80 97t132.5 73.5t183.5 29q82 0 147 -17t110 -49t68.5 -78t23.5 -104q0 -70 -34 -122.5t-96.5 -96.5t-151.5 -83t-200 -81l-71 -43h434q27 0 48.5 10t40.5 27.5
t36 42t35 53.5l12 -6l-119 -291h-700v49z" />
    <glyph glyph-name="brokenbar" unicode="&#xa6;" horiz-adv-x="586" 
d="M246 379h94v-803h-94v803zM246 1528h94v-783h-94v783z" />
    <glyph glyph-name="minus" unicode="&#x2212;" horiz-adv-x="1167" 
d="M102 592h963v-119h-963v119z" />
    <glyph glyph-name="multiply" unicode="&#xd7;" horiz-adv-x="1167" 
d="M143 166l367 362l-354 355l84 84l354 -355l348 353l76 -76l-352 -350l360 -359l-84 -84l-360 359l-361 -367z" />
    <glyph glyph-name="numbersign" unicode="#" horiz-adv-x="1081" 
d="M375 236l-221 -56v269l221 55v207l-221 -56v269l221 57v303h41v-293l252 64v229h41v-219l223 57v-268l-223 -57v-207l223 57v-268l-223 -57v-336h-41v323l-252 -61v-262h-41v250zM668 578v206l-252 -61v-207z" />
    <glyph glyph-name="dollar" unicode="$" horiz-adv-x="1239" 
d="M520 -10q-98 7 -175.5 31t-131.5 62.5t-82.5 89t-28.5 112.5q0 99 43 153t117 54q65 0 98 -37.5t33 -100.5q0 -28 -8.5 -46.5t-22 -31t-30 -21t-32.5 -16t-29.5 -16.5t-20.5 -22q0 -31 20 -60.5t56 -54.5t85.5 -43t108.5 -25v471q-87 9 -158.5 38t-123.5 78.5
t-80.5 119.5t-28.5 162q0 76 26 139t76.5 110.5t123 79t165.5 44.5v200h41v-196q4 1 15.5 2t24 2t24 1.5t16.5 0.5h14.5h20t21.5 -0.5t20 -1.5v192h41v-194q90 -10 155 -35.5t107 -61t62 -78t20 -85.5q0 -36 -8 -69.5t-24.5 -59.5t-42.5 -42t-62 -16q-26 0 -49.5 7
t-41.5 21.5t-29 37t-11 53.5q0 38 15.5 63t35.5 44t39 37t26 42q-4 15 -19 31.5t-39.5 32.5t-58.5 28.5t-75 18.5v-432q81 -15 150.5 -42.5t121.5 -76t81.5 -121.5t29.5 -178q0 -56 -19 -116t-63.5 -114t-118 -96t-182.5 -61v-289h-41v283q-59 -6 -111 -6h-45v-277h-41v281z
M608 14q29 0 57.5 2.5t51.5 6.5v446l-156 14v-469h47zM717 1239q-11 2 -27.5 2h-27.5q-7 0 -19.5 -0.5t-27 -2t-29 -3.5t-25.5 -4v-408q15 -1 35.5 -2.5t42.5 -3.5t42.5 -4.5t35.5 -3.5v430zM758 35q40 14 67 41t43.5 61.5t23.5 73t7 74.5q0 46 -10.5 77t-29.5 51t-44.5 31
t-56.5 17v-426zM520 1223q-32 -12 -58.5 -34t-45.5 -51.5t-29 -64.5t-10 -72q0 -48 12 -78t32 -49t45.5 -28t53.5 -15v392z" />
    <glyph glyph-name="percent" unicode="%" horiz-adv-x="1808" 
d="M455 555q-86 0 -157.5 23t-122.5 68t-79 110.5t-28 150.5q0 78 30.5 145t83 116t123 76.5t150.5 27.5q84 0 156.5 -22t125.5 -67t83 -113.5t30 -160.5q0 -74 -30 -138.5t-83 -112.5t-125.5 -75.5t-156.5 -27.5zM461 580q32 0 57 24t42 67t25.5 103t8.5 131
q0 74 -6.5 136.5t-22.5 108.5t-42 71.5t-66 25.5t-66.5 -26.5t-42.5 -72t-22.5 -106t-6.5 -127.5q0 -69 6.5 -130t22.5 -106.5t43.5 -72t69.5 -26.5zM1346 -27q-86 0 -157.5 23t-122.5 68t-79.5 110.5t-28.5 151.5q0 78 30.5 145t83.5 115.5t123.5 76t150.5 27.5
q84 0 156.5 -22t125.5 -67t83 -113t30 -160q0 -74 -30 -138.5t-83 -112.5t-125.5 -76t-156.5 -28zM1352 -2q32 0 57 24t42 67.5t25.5 103t8.5 131.5q0 73 -6.5 136t-22.5 108.5t-42 71.5t-66 26t-66.5 -27t-42.5 -72.5t-22.5 -105.5t-6.5 -127q0 -69 6.5 -130t22.5 -107
t43.5 -72.5t69.5 -26.5zM432 -170l875 1583l59 -27l-879 -1583z" />
    <glyph glyph-name="asterisk" unicode="*" horiz-adv-x="799" 
d="M406 817q-41 0 -59.5 23t-18.5 57q0 25 9.5 53.5t21.5 57t22 56t12 50.5q-18 -15 -35 -36t-33 -44t-31.5 -44t-31.5 -36q-32 -29 -67.5 -24.5t-57.5 41.5q-12 21 -13 39.5t7.5 33.5t25 25.5t38.5 15.5q52 13 100.5 19t91.5 24q-43 17 -92.5 25.5t-112.5 22.5
q-51 14 -65 44.5t12 73.5q12 20 27.5 29.5t32 10t33 -6.5t28.5 -20q16 -17 33.5 -39.5t35.5 -45.5t37 -44t37 -35q-4 27 -14.5 55.5t-22 56.5t-20 55t-8.5 50q0 38 18.5 59t59.5 21q43 0 62 -23t19 -55q0 -23 -9.5 -50.5t-22 -56t-24 -57t-15.5 -55.5q18 15 35 36.5t34 44.5
t33.5 44.5t32.5 36.5q37 31 69 23.5t52 -42.5q12 -22 13 -40.5t-7.5 -33t-24.5 -25t-37 -16.5t-46.5 -10t-51.5 -8.5t-51 -10t-45 -14.5q38 -15 86.5 -21t109.5 -22q24 -6 40.5 -18.5t24 -30t4 -37.5t-18.5 -41q-28 -37 -59.5 -34t-59.5 30q-17 17 -33.5 39l-33 44t-33 42.5
t-33.5 34.5q2 -22 13.5 -49.5t24 -57t23 -58t10.5 -52.5q0 -32 -20.5 -56t-60.5 -24z" />
    <glyph glyph-name="plus" unicode="+" horiz-adv-x="1167" 
d="M520 473h-430v119h430v434h127v-434h430v-119h-430v-434h-127v434z" />
    <glyph glyph-name="slash" unicode="/" horiz-adv-x="836" 
d="M59 -408l639 1948l76 -22l-641 -1948z" />
    <glyph glyph-name="less" unicode="&#x3c;" horiz-adv-x="1167" 
d="M123 481v103l905 420v-127l-747 -345l747 -344v-127z" />
    <glyph glyph-name="equal" unicode="=" horiz-adv-x="1167" 
d="M131 428h905v-119h-905v119zM131 756h905v-119h-905v119z" />
    <glyph glyph-name="greater" unicode="&#x3e;" horiz-adv-x="1167" 
d="M139 188l748 344l-748 345v127l905 -420v-103l-905 -420v127z" />
    <glyph glyph-name="at" unicode="@" horiz-adv-x="2150" 
d="M1061 -440q-189 0 -347.5 57.5t-272.5 163t-178 254.5t-64 332q0 159 42.5 293.5t116 243t172.5 190.5t211 137.5t231.5 83.5t235.5 28q89 0 173 -17.5t158.5 -53t136.5 -89.5t107 -127t70 -166t25 -206q0 -122 -31 -233.5t-87.5 -196.5t-135.5 -135.5t-174 -50.5
q-52 0 -97 10.5t-79 31t-54.5 51t-23.5 70.5l-6 2q-23 -35 -47 -64t-51.5 -51t-58 -34t-64.5 -12q-43 0 -83 16.5t-70.5 50t-49 83.5t-18.5 118q0 63 17 127.5t47.5 123.5t73.5 110.5t95 89t111 59.5t122 22q27 0 49 -9.5t38 -26t26.5 -39t15.5 -47.5h7l41 110h235
l-196 -565q-10 -25 -17.5 -58.5t-7.5 -64.5t16 -53.5t54 -22.5q62 0 124 44.5t112 124t81 190t31 241.5q0 141 -50.5 248.5t-134.5 180t-192.5 109t-224.5 36.5q-87 0 -174.5 -27t-167.5 -78.5t-149.5 -128t-120.5 -176t-80 -220.5t-29 -263q0 -186 49.5 -323t137.5 -227.5
t210 -134.5t266 -44q116 0 232 31.5t220.5 101.5t191 183t143.5 276l20 -7q-55 -186 -150 -314t-215.5 -208t-260 -115.5t-283.5 -35.5zM1028 119q21 0 43.5 15.5t44.5 41t43 57.5t39 64l133 397q-12 78 -38 113t-66 35q-36 0 -68.5 -29t-60.5 -77t-51.5 -110t-40.5 -128
t-26.5 -130.5t-10.5 -117.5q-1 -36 4 -61t13 -40.5t19 -22.5t23 -7z" />
    <glyph glyph-name="bracketleft" unicode="[" horiz-adv-x="1182" 
d="M987 -408q13 17 23 42t10 51q0 21 -7.5 39t-28.5 30.5t-58 19.5t-95 7q-78 0 -150 -6t-147 -17t-157 -28t-180 -39l-47 -17v1815l47 -16q98 -23 180 -40t157 -28t147 -17t150 -6q58 0 95 7t58 19.5t28.5 30.5t7.5 40q0 26 -10 50.5t-23 41.5l12 4q8 -6 18.5 -20.5
t19.5 -35.5t15.5 -46t6.5 -52q0 -60 -17 -112t-51.5 -90.5t-87 -60t-123.5 -21.5q-66 0 -132 25.5t-134.5 68t-139.5 96.5t-147 111v-1712q76 57 147 111t139.5 96t134.5 68t132 26q71 0 123.5 -22t87 -60t51.5 -90t17 -113q0 -27 -6.5 -52t-15.5 -45.5t-19.5 -35.5
t-18.5 -21z" />
    <glyph glyph-name="backslash" unicode="\" horiz-adv-x="836" 
d="M59 1518l76 22l639 -1948l-74 -22z" />
    <glyph glyph-name="bracketright" unicode="]" horiz-adv-x="1182" 
d="M209 -412q-8 6 -18 21t-19 35.5t-15.5 45.5t-6.5 52q0 61 17 113t51.5 90t86.5 60t123 22q66 0 132 -26t134.5 -68t139.5 -96t147 -111v1712q-76 -57 -147 -111t-139.5 -96.5t-134.5 -68t-132 -25.5q-71 0 -123 21.5t-86.5 60t-51.5 90.5t-17 112q0 27 6.5 52t15.5 46
t19 35.5t18 20.5l12 -4q-12 -17 -22.5 -41.5t-10.5 -50.5q0 -22 7.5 -40t28.5 -30.5t57.5 -19.5t95.5 -7q78 0 150.5 6t147.5 17t157 28t180 40l47 16v-1815l-47 17q-98 22 -180 39t-157 28t-147.5 17t-150.5 6q-59 0 -95.5 -7t-57.5 -19.5t-28.5 -30.5t-7.5 -39
q0 -26 10.5 -51t22.5 -42l-12 -4v0z" />
    <glyph glyph-name="asciicircum" unicode="^" horiz-adv-x="938" 
d="M86 737l-14 13q50 85 88.5 150.5t70.5 119t60.5 100t58.5 94.5q12 19 21 30.5t20.5 17.5t29 8t48.5 2t48.5 -2t29 -8t20.5 -17.5t21 -30.5q30 -48 58.5 -94.5t60.5 -100t70.5 -119t88.5 -150.5l-14 -13l-385 277z" />
    <glyph glyph-name="underscore" unicode="_" horiz-adv-x="1229" 
d="M-10 -213h1249v-117h-1249v117z" />
    <glyph glyph-name="braceleft" unicode="{" horiz-adv-x="881" 
d="M815 -346q-107 0 -198 13t-157 51t-103.5 106.5t-37.5 179.5q0 31 5 64.5t11.5 67t11.5 67t5 65.5q0 81 -18 131t-54 78.5t-90.5 40t-126.5 17.5v108q73 6 127.5 18t90.5 40t53.5 77.5t17.5 130.5q0 32 -5 65.5t-11.5 67.5t-11.5 67t-5 65q0 110 37.5 178.5t103.5 106.5
t157 51.5t198 13.5v-17q-48 -3 -79.5 -9.5t-50 -30t-26.5 -70.5t-8 -131q0 -31 3 -64.5t6.5 -68t6.5 -68t3 -64.5q0 -71 -15 -123t-42.5 -88.5t-66.5 -61t-86.5 -41.5t-102 -28.5t-113.5 -23.5v-92q59 -12 113.5 -23.5t102 -28.5t86.5 -41.5t66.5 -61.5t42.5 -88.5
t15 -123.5q0 -31 -3 -64.5t-6.5 -67.5t-6.5 -67.5t-3 -64.5q0 -84 8 -131t26.5 -70.5t50 -30.5t79.5 -10v-16v0z" />
    <glyph glyph-name="bar" unicode="|" horiz-adv-x="586" 
d="M246 1528h94v-1952h-94v1952z" />
    <glyph glyph-name="braceright" unicode="}" horiz-adv-x="881" 
d="M63 -330q48 3 79.5 10t50 30.5t26.5 70.5t8 131q0 31 -3 64.5t-6 67.5t-6 67.5t-3 64.5q0 72 15 123.5t42.5 88.5t66 61.5t86 41.5t102 28.5t114.5 23.5v92q-60 12 -114.5 23.5t-102 28.5t-86 41.5t-66 61t-42.5 88t-15 123.5q0 31 3 64.5t6 68t6 68t3 64.5q0 84 -8 131
t-26.5 70.5t-50 30t-79.5 9.5v17q107 0 198 -13.5t157 -51.5t103.5 -106.5t37.5 -178.5q0 -32 -5 -65t-11.5 -67t-11.5 -67.5t-5 -65.5q0 -81 18 -130.5t54 -77.5t90 -40t127 -18v-108q-72 -6 -126 -17.5t-90.5 -40t-54.5 -78.5t-18 -131q0 -32 5 -65.5t11.5 -67t11.5 -67
t5 -64.5q0 -111 -37.5 -179.5t-103.5 -106.5t-157 -51t-198 -13v16z" />
    <glyph glyph-name="asciitilde" unicode="~" horiz-adv-x="1106" 
d="M113 397q17 61 41.5 121.5t59 108.5t79.5 78t102 30q58 0 109 -15t97 -33t88 -33t81 -15t68.5 5.5t53 19t42.5 35.5t37 55l20 -6q-18 -66 -44 -127.5t-60.5 -108t-78.5 -74.5t-99 -28q-62 0 -113.5 15t-96.5 33t-85.5 33t-79.5 15t-69 -5.5t-53.5 -19t-42 -35.5
t-36.5 -55z" />
    <glyph glyph-name="Adieresis" unicode="&#xc4;" horiz-adv-x="1430" 
d="M-74 14q28 3 58.5 8.5t56.5 22.5q38 25 66.5 69t50.5 97q12 30 35.5 90t55 140.5t68 175t74.5 192t75 193t69 177.5t56.5 145.5t37.5 96.5h186q18 -45 47 -120t64.5 -168t75 -197t78.5 -208t76 -201t66.5 -175.5t50 -132t27.5 -69.5q13 -31 31 -58t53 -49
q28 -17 56.5 -21.5t54.5 -7.5v-14h-838v14q26 2 62.5 6.5t70 12.5t57 21t23.5 32q0 12 -2.5 23.5t-5.5 19.5l-129 369h-422l-92 -269q-14 -40 -19.5 -73.5t-2.5 -53.5q4 -27 32.5 -43t66 -25.5t77 -13.5t65.5 -6v-14h-512v14zM721 537l-199 516l-194 -516h393zM458 1507
q-35 0 -65 14.5t-52.5 38.5t-35.5 56t-13 67t13 67t35.5 56t52.5 38.5t65 14.5q34 0 64 -14.5t52.5 -38.5t36 -56t13.5 -67t-13.5 -67t-36 -56t-52.5 -38.5t-64 -14.5zM938 1507q-35 0 -65 14.5t-52.5 38.5t-35.5 56t-13 67t13 67t35.5 56t52.5 38.5t65 14.5q34 0 64 -14.5
t52.5 -38.5t36 -56t13.5 -67t-13.5 -67t-36 -56t-52.5 -38.5t-64 -14.5z" />
    <glyph glyph-name="Aring" unicode="&#xc5;" horiz-adv-x="1430" 
d="M-74 14q28 3 58.5 8.5t56.5 22.5q38 25 66.5 69t50.5 97q12 30 35.5 90t55 140.5t68 175t74.5 192t75 193t69 177.5t56.5 145.5t37.5 96.5h186q18 -45 47 -120t64.5 -168t75 -197t78.5 -208t76 -201t66.5 -175.5t50 -132t27.5 -69.5q13 -31 31 -58t53 -49
q28 -17 56.5 -21.5t54.5 -7.5v-14h-838v14q26 2 62.5 6.5t70 12.5t57 21t23.5 32q0 12 -2.5 23.5t-5.5 19.5l-129 369h-422l-92 -269q-14 -40 -19.5 -73.5t-2.5 -53.5q4 -27 32.5 -43t66 -25.5t77 -13.5t65.5 -6v-14h-512v14zM721 537l-199 516l-194 -516h393zM711 1466
q-60 0 -112 15.5t-90.5 44t-60.5 69t-22 90.5q0 49 24 89.5t64 69t91.5 44.5t105.5 16q57 0 108.5 -15.5t91 -44t62.5 -69t23 -90.5q0 -48 -22 -88t-60.5 -69t-90.5 -45.5t-112 -16.5zM711 1495q27 0 45.5 14t30.5 39.5t17 60.5t5 76q0 40 -5 75t-17 60.5t-30.5 40.5
t-45.5 15q-26 0 -44.5 -14t-30.5 -39t-17.5 -60.5t-5.5 -77.5q0 -41 5 -75.5t17 -60t30.5 -40t45.5 -14.5z" />
    <glyph glyph-name="Ccedilla" unicode="&#xc7;" horiz-adv-x="1421" 
d="M518 -453q49 0 97.5 3.5t86.5 17t62 40.5t24 73q0 24 -10.5 39.5t-27 25.5t-37 14t-41.5 4v213q-144 19 -260.5 76t-198.5 147.5t-126 212t-44 271.5q0 131 31 238t85.5 190t130.5 143.5t166 99.5t191 58t207 19q60 0 116.5 -7.5t107 -20t94 -29t77.5 -34.5l66 76h24
l9 -524h-25q-51 114 -103.5 208.5t-109 162.5t-118 105.5t-128.5 37.5q-90 0 -157 -48t-111.5 -137t-67 -216.5t-22.5 -286.5q0 -171 28 -297.5t79.5 -210t124 -124t161.5 -40.5q79 0 149 24t130 68t110.5 105t91.5 135l23 -12q-34 -81 -86.5 -154t-124.5 -127.5
t-163.5 -86.5t-203.5 -32q-65 0 -123 6v-61q63 1 120 -8t100.5 -30.5t69.5 -56.5t26 -85q0 -134 -128 -186t-372 -29v30z" />
    <glyph glyph-name="Eacute" unicode="&#xc9;" horiz-adv-x="1421" 
d="M18 14q22 1 46.5 3.5t47 4.5t41 5t27.5 6q37 12 49.5 36t12.5 58v1137q0 34 -12.5 61t-49.5 39q-12 4 -31.5 7t-42 5.5t-46 4t-42.5 3.5v15h1252v-367h-23q-26 49 -61.5 104t-76 102.5t-83.5 82t-84 43.5q-37 8 -72.5 9t-83.5 1h-120v-637h71q42 0 72 5.5t51 14.5
t34.5 19.5t23.5 20.5q16 16 33.5 40.5t34 53.5t30.5 60.5t22 60.5h23v-584h-23q-8 30 -23 63.5t-32.5 65t-34.5 57t-30 39.5q-11 12 -25.5 22.5t-35.5 19t-50 13.5t-70 5h-71v-535q0 -51 5 -81.5t21.5 -46.5t47 -20.5t81.5 -4.5q42 0 80 1t70 5.5t58 14.5t44 28
q63 62 135.5 155.5t145.5 198.5h20l-26 -428h-1330v14zM537 1478l155 312q15 31 34.5 59t42.5 49.5t50 34t58 12.5t57.5 -10.5t45.5 -28.5t29.5 -42t10.5 -52q0 -56 -37.5 -97t-103.5 -79q-26 -15 -62 -33.5t-79 -41t-91 -47.5t-96 -52z" />
    <glyph glyph-name="Ntilde" unicode="&#xd1;" horiz-adv-x="1597" 
d="M279 1145v-811q0 -60 2.5 -105.5t8.5 -79.5t17 -56.5t29 -37.5q17 -14 49.5 -21.5t68 -11.5t66.5 -5.5t45 -2.5v-14h-573v14q13 1 37 2.5t50.5 5.5t52.5 11t44 20q35 26 50.5 93.5t15.5 185.5v811q0 48 -15 88t-49 74q-32 32 -82 53t-110 26v15h592l735 -940v606
q0 60 -2.5 105.5t-8.5 79t-17.5 56.5t-29.5 37q-17 14 -49.5 21.5t-68 11.5t-66.5 5t-45 3v15h573v-15q-13 -2 -36.5 -3t-50.5 -4.5t-53 -10.5t-44 -20q-35 -26 -50 -93.5t-15 -185.5v-1073h-181zM434 1511q9 26 24 62t35 74.5t46 77t56 68.5t64 49t72 19q55 0 97 -16.5
t78.5 -36t72 -35.5t78.5 -16q53 0 95.5 28t70.5 99l27 -8q-8 -27 -21 -64t-31 -76t-42 -77t-53 -68t-63.5 -48.5t-74.5 -18.5q-55 0 -98 16.5t-81 36.5t-74 36.5t-77 16.5q-49 0 -94.5 -30t-79.5 -99z" />
    <glyph glyph-name="Odieresis" unicode="&#xd6;" horiz-adv-x="1636" 
d="M811 -33q-164 0 -301 48.5t-238 142.5q-50 47 -92 104t-72.5 123t-47.5 141t-17 158q0 92 18.5 174t51.5 153.5t79 131.5t101 108q99 88 231.5 134.5t294.5 46.5q161 0 297 -45t236 -136q51 -47 95.5 -104.5t76.5 -125.5t50.5 -146t18.5 -166q0 -86 -17.5 -166
t-49.5 -152t-77 -134.5t-101 -113.5q-97 -88 -229 -132t-308 -44zM819 -8q88 0 147 53.5t94.5 148.5t50.5 225t15 283q0 90 -5.5 177.5t-18.5 166t-35.5 144.5t-56.5 114.5t-81.5 75.5t-109.5 27q-80 0 -138 -48t-96 -139.5t-56.5 -224t-18.5 -301.5q0 -148 15 -276.5
t51 -223t95.5 -148.5t147.5 -54zM583 1507q-35 0 -65 14.5t-52.5 38.5t-35.5 56t-13 67t13 67t35.5 56t52.5 38.5t65 14.5q34 0 64 -14.5t52.5 -38.5t36 -56t13.5 -67t-13.5 -67t-36 -56t-52.5 -38.5t-64 -14.5zM1063 1507q-35 0 -65 14.5t-52.5 38.5t-35.5 56t-13 67t13 67
t35.5 56t52.5 38.5t65 14.5q34 0 64 -14.5t52.5 -38.5t36 -56t13.5 -67t-13.5 -67t-36 -56t-52.5 -38.5t-64 -14.5z" />
    <glyph glyph-name="Udieresis" unicode="&#xdc;" horiz-adv-x="1583" 
d="M860 -33q-142 0 -260.5 27t-204 87t-133 155t-47.5 231v797q0 34 -12 61t-49 39q-12 4 -30.5 7t-39.5 5.5t-43 4t-41 3.5v15h846v-15q-13 -2 -32.5 -3.5t-39.5 -3.5t-39.5 -4.5t-32.5 -6.5q-37 -11 -49 -38.5t-12 -61.5v-758q0 -105 19.5 -180.5t60 -123.5t101 -70.5
t143.5 -22.5q81 0 152.5 22t125.5 70.5t85.5 126t31.5 188.5v547q0 60 -2.5 105.5t-8.5 79t-17 56.5t-29 37q-17 14 -50 21.5t-68.5 11.5t-66.5 5t-45 3v15h574v-15q-13 -2 -37 -3t-51 -4.5t-53 -10.5t-44 -20q-35 -26 -50 -93.5t-15 -185.5v-580q0 -133 -43 -230.5
t-116.5 -162t-171 -96t-206.5 -31.5zM673 1507q-35 0 -65 14.5t-52.5 38.5t-35.5 56t-13 67t13 67t35.5 56t52.5 38.5t65 14.5q34 0 64 -14.5t52.5 -38.5t36 -56t13.5 -67t-13.5 -67t-36 -56t-52.5 -38.5t-64 -14.5zM1153 1507q-35 0 -65 14.5t-52.5 38.5t-35.5 56t-13 67
t13 67t35.5 56t52.5 38.5t65 14.5q34 0 64 -14.5t52.5 -38.5t36 -56t13.5 -67t-13.5 -67t-36 -56t-52.5 -38.5t-64 -14.5z" />
    <glyph glyph-name="aacute" unicode="&#xe1;" horiz-adv-x="1155" 
d="M350 -31q-84 0 -143 17.5t-96 49t-53.5 74t-16.5 93.5q0 57 15.5 97.5t42 70t61.5 49t73 33.5q31 11 69.5 22t80 21.5t82.5 21t76.5 20.5t62 20t39.5 20v186q0 26 -2 61.5t-13 68t-34.5 55t-67.5 22.5q-38 0 -64 -9.5t-40 -21.5q2 -14 9 -37t14 -50t12.5 -56.5t5.5 -55.5
q0 -18 -12.5 -40.5t-36.5 -42t-58.5 -33t-79.5 -13.5q-44 0 -74.5 14t-49.5 36.5t-28 50t-9 55.5q0 52 42 93.5t106 71t139 45t141 15.5q55 0 110.5 -4t106.5 -15.5t95.5 -32t77.5 -55t52 -83.5t19 -117q0 -70 -2 -148t-4.5 -148.5t-4.5 -126.5t-2 -81q0 -18 4.5 -35.5
t13.5 -31t23 -21.5t33 -8q23 0 41 16t31 42.5t20 59.5t8 68h31q-2 -65 -20 -119.5t-53 -94.5t-87 -62.5t-121 -22.5q-64 0 -107.5 10t-73.5 28t-50 42.5t-35 52.5h-6q-26 -27 -52 -51.5t-60 -43.5t-77.5 -30.5t-103.5 -11.5zM524 78q41 0 67.5 17.5t45.5 45.5l8 408
q-53 -21 -95.5 -44.5t-72.5 -56.5t-46.5 -78.5t-16.5 -109.5q0 -91 29 -136.5t81 -45.5zM414 1087l155 312q15 31 34.5 59t42.5 49.5t50 34t58 12.5t57.5 -10.5t45.5 -28.5t29.5 -42t10.5 -52q0 -56 -37.5 -97t-103.5 -79q-26 -15 -62 -33.5t-79 -41t-91 -47.5t-96 -52z" />
    <glyph glyph-name="agrave" unicode="&#xe0;" horiz-adv-x="1155" 
d="M350 -31q-84 0 -143 17.5t-96 49t-53.5 74t-16.5 93.5q0 57 15.5 97.5t42 70t61.5 49t73 33.5q31 11 69.5 22t80 21.5t82.5 21t76.5 20.5t62 20t39.5 20v186q0 26 -2 61.5t-13 68t-34.5 55t-67.5 22.5q-38 0 -64 -9.5t-40 -21.5q2 -14 9 -37t14 -50t12.5 -56.5t5.5 -55.5
q0 -18 -12.5 -40.5t-36.5 -42t-58.5 -33t-79.5 -13.5q-44 0 -74.5 14t-49.5 36.5t-28 50t-9 55.5q0 52 42 93.5t106 71t139 45t141 15.5q55 0 110.5 -4t106.5 -15.5t95.5 -32t77.5 -55t52 -83.5t19 -117q0 -70 -2 -148t-4.5 -148.5t-4.5 -126.5t-2 -81q0 -18 4.5 -35.5
t13.5 -31t23 -21.5t33 -8q23 0 41 16t31 42.5t20 59.5t8 68h31q-2 -65 -20 -119.5t-53 -94.5t-87 -62.5t-121 -22.5q-64 0 -107.5 10t-73.5 28t-50 42.5t-35 52.5h-6q-26 -27 -52 -51.5t-60 -43.5t-77.5 -30.5t-103.5 -11.5zM524 78q41 0 67.5 17.5t45.5 45.5l8 408
q-53 -21 -95.5 -44.5t-72.5 -56.5t-46.5 -78.5t-16.5 -109.5q0 -91 29 -136.5t81 -45.5zM764 1071q-48 27 -96 52t-91 47.5t-79.5 41t-61.5 33.5q-66 38 -103.5 79t-37.5 97q0 28 10.5 52t29.5 42t45 28.5t58 10.5q31 0 58 -12.5t50 -34t42.5 -49.5t34.5 -59l155 -312
l-14 -16v0z" />
    <glyph glyph-name="acircumflex" unicode="&#xe2;" horiz-adv-x="1155" 
d="M350 -31q-84 0 -143 17.5t-96 49t-53.5 74t-16.5 93.5q0 57 15.5 97.5t42 70t61.5 49t73 33.5q31 11 69.5 22t80 21.5t82.5 21t76.5 20.5t62 20t39.5 20v186q0 26 -2 61.5t-13 68t-34.5 55t-67.5 22.5q-38 0 -64 -9.5t-40 -21.5q2 -14 9 -37t14 -50t12.5 -56.5t5.5 -55.5
q0 -18 -12.5 -40.5t-36.5 -42t-58.5 -33t-79.5 -13.5q-44 0 -74.5 14t-49.5 36.5t-28 50t-9 55.5q0 52 42 93.5t106 71t139 45t141 15.5q55 0 110.5 -4t106.5 -15.5t95.5 -32t77.5 -55t52 -83.5t19 -117q0 -70 -2 -148t-4.5 -148.5t-4.5 -126.5t-2 -81q0 -18 4.5 -35.5
t13.5 -31t23 -21.5t33 -8q23 0 41 16t31 42.5t20 59.5t8 68h31q-2 -65 -20 -119.5t-53 -94.5t-87 -62.5t-121 -22.5q-64 0 -107.5 10t-73.5 28t-50 42.5t-35 52.5h-6q-26 -27 -52 -51.5t-60 -43.5t-77.5 -30.5t-103.5 -11.5zM524 78q41 0 67.5 17.5t45.5 45.5l8 408
q-53 -21 -95.5 -44.5t-72.5 -56.5t-46.5 -78.5t-16.5 -109.5q0 -91 29 -136.5t81 -45.5zM582 1303l-336 -216l-20 15q31 54 65 110.5t66 108.5t59.5 96t46.5 74q8 12 18 20t24.5 12.5t34 6.5t46.5 2q54 0 80 -9t39 -28q17 -26 44.5 -69.5t60 -96.5t67.5 -111.5t67 -115.5
l-22 -17z" />
    <glyph glyph-name="adieresis" unicode="&#xe4;" horiz-adv-x="1155" 
d="M350 -31q-84 0 -143 17.5t-96 49t-53.5 74t-16.5 93.5q0 57 15.5 97.5t42 70t61.5 49t73 33.5q31 11 69.5 22t80 21.5t82.5 21t76.5 20.5t62 20t39.5 20v186q0 26 -2 61.5t-13 68t-34.5 55t-67.5 22.5q-38 0 -64 -9.5t-40 -21.5q2 -14 9 -37t14 -50t12.5 -56.5t5.5 -55.5
q0 -18 -12.5 -40.5t-36.5 -42t-58.5 -33t-79.5 -13.5q-44 0 -74.5 14t-49.5 36.5t-28 50t-9 55.5q0 52 42 93.5t106 71t139 45t141 15.5q55 0 110.5 -4t106.5 -15.5t95.5 -32t77.5 -55t52 -83.5t19 -117q0 -70 -2 -148t-4.5 -148.5t-4.5 -126.5t-2 -81q0 -18 4.5 -35.5
t13.5 -31t23 -21.5t33 -8q23 0 41 16t31 42.5t20 59.5t8 68h31q-2 -65 -20 -119.5t-53 -94.5t-87 -62.5t-121 -22.5q-64 0 -107.5 10t-73.5 28t-50 42.5t-35 52.5h-6q-26 -27 -52 -51.5t-60 -43.5t-77.5 -30.5t-103.5 -11.5zM524 78q41 0 67.5 17.5t45.5 45.5l8 408
q-53 -21 -95.5 -44.5t-72.5 -56.5t-46.5 -78.5t-16.5 -109.5q0 -91 29 -136.5t81 -45.5zM342 1116q-35 0 -65 14.5t-52.5 38.5t-35.5 56t-13 67t13 67t35.5 56t52.5 38.5t65 14.5q34 0 64 -14.5t52.5 -38.5t36 -56t13.5 -67t-13.5 -67t-36 -56t-52.5 -38.5t-64 -14.5z
M822 1116q-35 0 -65 14.5t-52.5 38.5t-35.5 56t-13 67t13 67t35.5 56t52.5 38.5t65 14.5q34 0 64 -14.5t52.5 -38.5t36 -56t13.5 -67t-13.5 -67t-36 -56t-52.5 -38.5t-64 -14.5z" />
    <glyph glyph-name="atilde" unicode="&#xe3;" horiz-adv-x="1155" 
d="M350 -31q-84 0 -143 17.5t-96 49t-53.5 74t-16.5 93.5q0 57 15.5 97.5t42 70t61.5 49t73 33.5q31 11 69.5 22t80 21.5t82.5 21t76.5 20.5t62 20t39.5 20v186q0 26 -2 61.5t-13 68t-34.5 55t-67.5 22.5q-38 0 -64 -9.5t-40 -21.5q2 -14 9 -37t14 -50t12.5 -56.5t5.5 -55.5
q0 -18 -12.5 -40.5t-36.5 -42t-58.5 -33t-79.5 -13.5q-44 0 -74.5 14t-49.5 36.5t-28 50t-9 55.5q0 52 42 93.5t106 71t139 45t141 15.5q55 0 110.5 -4t106.5 -15.5t95.5 -32t77.5 -55t52 -83.5t19 -117q0 -70 -2 -148t-4.5 -148.5t-4.5 -126.5t-2 -81q0 -18 4.5 -35.5
t13.5 -31t23 -21.5t33 -8q23 0 41 16t31 42.5t20 59.5t8 68h31q-2 -65 -20 -119.5t-53 -94.5t-87 -62.5t-121 -22.5q-64 0 -107.5 10t-73.5 28t-50 42.5t-35 52.5h-6q-26 -27 -52 -51.5t-60 -43.5t-77.5 -30.5t-103.5 -11.5zM524 78q41 0 67.5 17.5t45.5 45.5l8 408
q-53 -21 -95.5 -44.5t-72.5 -56.5t-46.5 -78.5t-16.5 -109.5q0 -91 29 -136.5t81 -45.5zM200 1120q9 26 24 62t35 74.5t46 77t56 68.5t64 49t72 19q55 0 97 -16.5t78.5 -36t72 -35.5t78.5 -16q53 0 95.5 28t70.5 99l27 -8q-8 -27 -21 -64t-31 -76t-42 -77t-53 -68
t-63.5 -48.5t-74.5 -18.5q-55 0 -98 16.5t-81 36.5t-74 36.5t-77 16.5q-49 0 -94.5 -30t-79.5 -99z" />
    <glyph glyph-name="aring" unicode="&#xe5;" horiz-adv-x="1155" 
d="M350 -31q-84 0 -143 17.5t-96 49t-53.5 74t-16.5 93.5q0 57 15.5 97.5t42 70t61.5 49t73 33.5q31 11 69.5 22t80 21.5t82.5 21t76.5 20.5t62 20t39.5 20v186q0 26 -2 61.5t-13 68t-34.5 55t-67.5 22.5q-38 0 -64 -9.5t-40 -21.5q2 -14 9 -37t14 -50t12.5 -56.5t5.5 -55.5
q0 -18 -12.5 -40.5t-36.5 -42t-58.5 -33t-79.5 -13.5q-44 0 -74.5 14t-49.5 36.5t-28 50t-9 55.5q0 52 42 93.5t106 71t139 45t141 15.5q55 0 110.5 -4t106.5 -15.5t95.5 -32t77.5 -55t52 -83.5t19 -117q0 -70 -2 -148t-4.5 -148.5t-4.5 -126.5t-2 -81q0 -18 4.5 -35.5
t13.5 -31t23 -21.5t33 -8q23 0 41 16t31 42.5t20 59.5t8 68h31q-2 -65 -20 -119.5t-53 -94.5t-87 -62.5t-121 -22.5q-64 0 -107.5 10t-73.5 28t-50 42.5t-35 52.5h-6q-26 -27 -52 -51.5t-60 -43.5t-77.5 -30.5t-103.5 -11.5zM524 78q41 0 67.5 17.5t45.5 45.5l8 408
q-53 -21 -95.5 -44.5t-72.5 -56.5t-46.5 -78.5t-16.5 -109.5q0 -91 29 -136.5t81 -45.5zM571 1075q-60 0 -112 15.5t-90.5 44t-60.5 69t-22 90.5q0 49 24 89.5t64 69t91.5 44.5t105.5 16q57 0 108.5 -15.5t91 -44t62.5 -69t23 -90.5q0 -48 -22 -88t-60.5 -69t-90.5 -45.5
t-112 -16.5zM571 1104q27 0 45.5 14t30.5 39.5t17 60.5t5 76q0 40 -5 75t-17 60.5t-30.5 40.5t-45.5 15q-26 0 -44.5 -14t-30.5 -39t-17.5 -60.5t-5.5 -77.5q0 -41 5 -75.5t17 -60t30.5 -40t45.5 -14.5z" />
    <glyph glyph-name="ccedilla" unicode="&#xe7;" horiz-adv-x="973" 
d="M283 -453q49 0 97.5 3.5t86.5 17t62 40.5t24 73q0 24 -10.5 39.5t-27 25.5t-37.5 14t-42 4v213q-195 28 -297 157t-102 364q0 111 41 202.5t114.5 156.5t176 100.5t225.5 35.5q87 0 152 -18t107.5 -50t63.5 -76t21 -95q0 -31 -10 -59.5t-29.5 -50.5t-49.5 -35t-69 -13
q-37 0 -67.5 9.5t-53 28.5t-35 48.5t-12.5 69.5q0 28 9.5 53t21.5 45.5t23 37t14 27.5q-5 23 -26 39.5t-58 16.5t-68.5 -31t-55 -90.5t-37 -146.5t-13.5 -199q0 -116 17.5 -197.5t49.5 -132.5t76.5 -74.5t98.5 -23.5q104 0 175.5 52.5t118.5 141.5l21 -12
q-24 -60 -63 -112.5t-92.5 -92t-122 -62t-152.5 -22.5q-22 0 -42 1t-40 3v-61q63 1 120 -8t100.5 -30.5t69 -56.5t25.5 -85q0 -134 -128.5 -186t-370.5 -29v30z" />
    <glyph glyph-name="eacute" unicode="&#xe9;" horiz-adv-x="1044" 
d="M610 -31q-126 0 -231.5 34t-181 99t-118 159.5t-42.5 215.5q0 114 41 209t114 163.5t172.5 106t215.5 37.5q117 0 200.5 -37t136 -97t77 -137t24.5 -157v-12h-580v-59q0 -91 15 -168t48 -133.5t85 -88.5t127 -32q94 0 171.5 43.5t133.5 150.5l22 -16q-28 -59 -70 -110
t-96.5 -89t-120.5 -60t-143 -22zM680 584q0 40 -0.5 84t-3.5 86.5t-9.5 81.5t-19.5 68.5t-33 47t-49 17.5q-35 0 -58.5 -32t-38 -85.5t-21.5 -124t-9 -147.5zM385 1087l155 312q15 31 34.5 59t42.5 49.5t50 34t58 12.5t57.5 -10.5t45.5 -28.5t29.5 -42t10.5 -52
q0 -56 -37.5 -97t-103.5 -79q-26 -15 -62 -33.5t-79 -41t-91 -47.5t-96 -52z" />
    <glyph glyph-name="egrave" unicode="&#xe8;" horiz-adv-x="1044" 
d="M610 -31q-126 0 -231.5 34t-181 99t-118 159.5t-42.5 215.5q0 114 41 209t114 163.5t172.5 106t215.5 37.5q117 0 200.5 -37t136 -97t77 -137t24.5 -157v-12h-580v-59q0 -91 15 -168t48 -133.5t85 -88.5t127 -32q94 0 171.5 43.5t133.5 150.5l22 -16q-28 -59 -70 -110
t-96.5 -89t-120.5 -60t-143 -22zM680 584q0 40 -0.5 84t-3.5 86.5t-9.5 81.5t-19.5 68.5t-33 47t-49 17.5q-35 0 -58.5 -32t-38 -85.5t-21.5 -124t-9 -147.5zM737 1071q-48 27 -96 52t-91 47.5t-79.5 41t-61.5 33.5q-66 38 -103.5 79t-37.5 97q0 28 10.5 52t29.5 42t45 28.5
t58 10.5q31 0 58 -12.5t50 -34t42.5 -49.5t34.5 -59l155 -312l-14 -16v0z" />
    <glyph glyph-name="ecircumflex" unicode="&#xea;" horiz-adv-x="1044" 
d="M610 -31q-126 0 -231.5 34t-181 99t-118 159.5t-42.5 215.5q0 114 41 209t114 163.5t172.5 106t215.5 37.5q117 0 200.5 -37t136 -97t77 -137t24.5 -157v-12h-580v-59q0 -91 15 -168t48 -133.5t85 -88.5t127 -32q94 0 171.5 43.5t133.5 150.5l22 -16q-28 -59 -70 -110
t-96.5 -89t-120.5 -60t-143 -22zM680 584q0 40 -0.5 84t-3.5 86.5t-9.5 81.5t-19.5 68.5t-33 47t-49 17.5q-35 0 -58.5 -32t-38 -85.5t-21.5 -124t-9 -147.5zM547 1303l-336 -216l-20 15q31 54 65 110.5t66 108.5t59.5 96t46.5 74q8 12 18 20t24.5 12.5t34 6.5t46.5 2
q54 0 80 -9t39 -28q17 -26 44.5 -69.5t60 -96.5t67.5 -111.5t67 -115.5l-22 -17z" />
    <glyph glyph-name="edieresis" unicode="&#xeb;" horiz-adv-x="1044" 
d="M610 -31q-126 0 -231.5 34t-181 99t-118 159.5t-42.5 215.5q0 114 41 209t114 163.5t172.5 106t215.5 37.5q117 0 200.5 -37t136 -97t77 -137t24.5 -157v-12h-580v-59q0 -91 15 -168t48 -133.5t85 -88.5t127 -32q94 0 171.5 43.5t133.5 150.5l22 -16q-28 -59 -70 -110
t-96.5 -89t-120.5 -60t-143 -22zM680 584q0 40 -0.5 84t-3.5 86.5t-9.5 81.5t-19.5 68.5t-33 47t-49 17.5q-35 0 -58.5 -32t-38 -85.5t-21.5 -124t-9 -147.5zM323 1116q-35 0 -65 14.5t-52.5 38.5t-35.5 56t-13 67t13 67t35.5 56t52.5 38.5t65 14.5q34 0 64 -14.5
t52.5 -38.5t36 -56t13.5 -67t-13.5 -67t-36 -56t-52.5 -38.5t-64 -14.5zM803 1116q-35 0 -65 14.5t-52.5 38.5t-35.5 56t-13 67t13 67t35.5 56t52.5 38.5t65 14.5q34 0 64 -14.5t52.5 -38.5t36 -56t13.5 -67t-13.5 -67t-36 -56t-52.5 -38.5t-64 -14.5z" />
    <glyph glyph-name="iacute" unicode="&#xed;" horiz-adv-x="670" 
d="M27 14q26 2 47 3.5t41 9.5q28 11 40.5 34.5t12.5 55.5v694q0 68 -51 102q-9 6 -24 11.5t-32 9.5t-34 6.5t-31 3.5v12l522 25l8 -8v-850q0 -65 56 -92q21 -11 42 -12.5t46 -4.5v-14h-643v14zM126 1087l155 312q15 31 34.5 59t42.5 49.5t50 34t58 12.5t57.5 -10.5
t45.5 -28.5t29.5 -42t10.5 -52q0 -56 -37.5 -97t-103.5 -79q-26 -15 -62 -33.5t-79 -41t-91 -47.5t-96 -52z" />
    <glyph glyph-name="igrave" unicode="&#xec;" horiz-adv-x="670" 
d="M27 14q26 2 47 3.5t41 9.5q28 11 40.5 34.5t12.5 55.5v694q0 68 -51 102q-9 6 -24 11.5t-32 9.5t-34 6.5t-31 3.5v12l522 25l8 -8v-850q0 -65 56 -92q21 -11 42 -12.5t46 -4.5v-14h-643v14zM509 1071q-48 27 -96 52t-91 47.5t-79.5 41t-61.5 33.5q-66 38 -103.5 79
t-37.5 97q0 28 10.5 52t29.5 42t45 28.5t58 10.5q31 0 58 -12.5t50 -34t42.5 -49.5t34.5 -59l155 -312l-14 -16v0z" />
    <glyph glyph-name="icircumflex" unicode="&#xee;" horiz-adv-x="670" 
d="M2 1102q31 54 58.5 110.5t52 108.5t45.5 96t41 74q15 25 42 33t81 8t80 -9t38 -28q17 -26 38 -69.5t46 -96.5t54 -111.5t61 -115.5l-23 -17l-299 218l-294 -216zM27 14q26 2 47 3.5t41 9.5q28 11 40.5 34.5t12.5 55.5v694q0 68 -51 102q-9 6 -24 11.5t-32 9.5t-34 6.5
t-31 3.5v12l522 25l8 -8v-850q0 -65 56 -92q21 -11 42 -12.5t46 -4.5v-14h-643v14z" />
    <glyph glyph-name="idieresis" unicode="&#xef;" horiz-adv-x="670" 
d="M94 1116q-35 0 -65 14.5t-52.5 38.5t-35.5 56t-13 67t13 67t35.5 56t52.5 38.5t65 14.5q34 0 64 -14.5t52.5 -38.5t36 -56t13.5 -67t-13.5 -67t-36 -56t-52.5 -38.5t-64 -14.5zM532 1116q-35 0 -65 14.5t-52 38.5t-35 56t-13 67t13 67t35 56t52 38.5t65 14.5
q34 0 64.5 -14.5t53 -38.5t35.5 -56t13 -67t-13 -67t-35.5 -56t-53 -38.5t-64.5 -14.5zM27 14q26 2 47 3.5t41 9.5q28 11 40.5 34.5t12.5 55.5v694q0 68 -51 102q-9 6 -24 11.5t-32 9.5t-34 6.5t-31 3.5v12l522 25l8 -8v-850q0 -65 56 -92q21 -11 42 -12.5t46 -4.5v-14h-643
v14z" />
    <glyph glyph-name="ntilde" unicode="&#xf1;" horiz-adv-x="1346" 
d="M29 14q24 2 46 4t42 9q28 9 38.5 27t10.5 52v699q0 80 -47 110q-19 13 -49.5 20t-55.5 9v12l502 25l8 -8v-148h6q28 29 56 59t64 54t82.5 39.5t111.5 15.5q81 0 144.5 -23t107.5 -65t67 -101t23 -132v-557q0 -34 7 -53.5t36 -30.5q21 -8 42.5 -11t49.5 -6v-14h-604v14
q20 2 40 5t36 10q21 8 25.5 32t4.5 58v559q0 53 -11 89t-29.5 58t-43 31.5t-51.5 9.5q-35 0 -61.5 -7.5t-46.5 -20t-33.5 -28.5t-22.5 -32v-661q0 -34 5.5 -54.5t25.5 -29.5q20 -10 40 -13t42 -6v-14h-608v14zM286 1120q9 26 24 62t35 74.5t46 77t56 68.5t64 49t72 19
q55 0 97 -16.5t78.5 -36t72 -35.5t78.5 -16q53 0 95.5 28t70.5 99l27 -8q-8 -27 -21 -64t-31 -76t-42 -77t-53 -68t-63.5 -48.5t-74.5 -18.5q-55 0 -98 16.5t-81 36.5t-74 36.5t-77 16.5q-49 0 -94.5 -30t-79.5 -99z" />
    <glyph glyph-name="oacute" unicode="&#xf3;" horiz-adv-x="1217" 
d="M602 -31q-104 0 -205 30.5t-181 93.5t-129.5 160t-49.5 230q0 125 45.5 220.5t123.5 160t182.5 97t221.5 32.5q120 0 224 -32.5t181 -96.5t121 -158t44 -217q0 -122 -42 -218.5t-118.5 -163.5t-183 -102.5t-234.5 -35.5zM610 -8q60 0 95.5 43t53.5 113.5t23.5 160.5
t5.5 183q0 59 -2.5 117t-9.5 111.5t-19 99t-31.5 79.5t-47.5 53t-66 19q-40 0 -69 -20t-49 -55t-32.5 -81.5t-19.5 -99t-9.5 -109t-2.5 -110.5q0 -92 5 -182.5t23 -162t54 -115.5t98 -44zM430 1087l155 312q15 31 34.5 59t42.5 49.5t50 34t58 12.5t57.5 -10.5t45.5 -28.5
t29.5 -42t10.5 -52q0 -56 -37.5 -97t-103.5 -79q-26 -15 -62 -33.5t-79 -41t-91 -47.5t-96 -52z" />
    <glyph glyph-name="ograve" unicode="&#xf2;" horiz-adv-x="1217" 
d="M602 -31q-104 0 -205 30.5t-181 93.5t-129.5 160t-49.5 230q0 125 45.5 220.5t123.5 160t182.5 97t221.5 32.5q120 0 224 -32.5t181 -96.5t121 -158t44 -217q0 -122 -42 -218.5t-118.5 -163.5t-183 -102.5t-234.5 -35.5zM610 -8q60 0 95.5 43t53.5 113.5t23.5 160.5
t5.5 183q0 59 -2.5 117t-9.5 111.5t-19 99t-31.5 79.5t-47.5 53t-66 19q-40 0 -69 -20t-49 -55t-32.5 -81.5t-19.5 -99t-9.5 -109t-2.5 -110.5q0 -92 5 -182.5t23 -162t54 -115.5t98 -44zM778 1071q-48 27 -96 52t-91 47.5t-79.5 41t-61.5 33.5q-66 38 -103.5 79t-37.5 97
q0 28 10.5 52t29.5 42t45 28.5t58 10.5q31 0 58 -12.5t50 -34t42.5 -49.5t34.5 -59l155 -312l-14 -16v0z" />
    <glyph glyph-name="ocircumflex" unicode="&#xf4;" horiz-adv-x="1217" 
d="M602 -31q-104 0 -205 30.5t-181 93.5t-129.5 160t-49.5 230q0 125 45.5 220.5t123.5 160t182.5 97t221.5 32.5q120 0 224 -32.5t181 -96.5t121 -158t44 -217q0 -122 -42 -218.5t-118.5 -163.5t-183 -102.5t-234.5 -35.5zM610 -8q60 0 95.5 43t53.5 113.5t23.5 160.5
t5.5 183q0 59 -2.5 117t-9.5 111.5t-19 99t-31.5 79.5t-47.5 53t-66 19q-40 0 -69 -20t-49 -55t-32.5 -81.5t-19.5 -99t-9.5 -109t-2.5 -110.5q0 -92 5 -182.5t23 -162t54 -115.5t98 -44zM606 1303l-336 -216l-20 15q31 54 65 110.5t66 108.5t59.5 96t46.5 74q8 12 18 20
t24.5 12.5t34 6.5t46.5 2q54 0 80 -9t39 -28q17 -26 44.5 -69.5t60 -96.5t67.5 -111.5t67 -115.5l-22 -17z" />
    <glyph glyph-name="odieresis" unicode="&#xf6;" horiz-adv-x="1217" 
d="M602 -31q-104 0 -205 30.5t-181 93.5t-129.5 160t-49.5 230q0 125 45.5 220.5t123.5 160t182.5 97t221.5 32.5q120 0 224 -32.5t181 -96.5t121 -158t44 -217q0 -122 -42 -218.5t-118.5 -163.5t-183 -102.5t-234.5 -35.5zM610 -8q60 0 95.5 43t53.5 113.5t23.5 160.5
t5.5 183q0 59 -2.5 117t-9.5 111.5t-19 99t-31.5 79.5t-47.5 53t-66 19q-40 0 -69 -20t-49 -55t-32.5 -81.5t-19.5 -99t-9.5 -109t-2.5 -110.5q0 -92 5 -182.5t23 -162t54 -115.5t98 -44zM366 1116q-35 0 -65 14.5t-52.5 38.5t-35.5 56t-13 67t13 67t35.5 56t52.5 38.5
t65 14.5q34 0 64 -14.5t52.5 -38.5t36 -56t13.5 -67t-13.5 -67t-36 -56t-52.5 -38.5t-64 -14.5zM846 1116q-35 0 -65 14.5t-52.5 38.5t-35.5 56t-13 67t13 67t35.5 56t52.5 38.5t65 14.5q34 0 64 -14.5t52.5 -38.5t36 -56t13.5 -67t-13.5 -67t-36 -56t-52.5 -38.5t-64 -14.5
z" />
    <glyph glyph-name="otilde" unicode="&#xf5;" horiz-adv-x="1217" 
d="M602 -31q-104 0 -205 30.5t-181 93.5t-129.5 160t-49.5 230q0 125 45.5 220.5t123.5 160t182.5 97t221.5 32.5q120 0 224 -32.5t181 -96.5t121 -158t44 -217q0 -122 -42 -218.5t-118.5 -163.5t-183 -102.5t-234.5 -35.5zM610 -8q60 0 95.5 43t53.5 113.5t23.5 160.5
t5.5 183q0 59 -2.5 117t-9.5 111.5t-19 99t-31.5 79.5t-47.5 53t-66 19q-40 0 -69 -20t-49 -55t-32.5 -81.5t-19.5 -99t-9.5 -109t-2.5 -110.5q0 -92 5 -182.5t23 -162t54 -115.5t98 -44zM206 1120q9 26 24 62t35 74.5t46 77t56 68.5t64 49t72 19q55 0 97 -16.5t78.5 -36
t72 -35.5t78.5 -16q53 0 95.5 28t70.5 99l27 -8q-8 -27 -21 -64t-31 -76t-42 -77t-53 -68t-63.5 -48.5t-74.5 -18.5q-55 0 -98 16.5t-81 36.5t-74 36.5t-77 16.5q-49 0 -94.5 -30t-79.5 -99z" />
    <glyph glyph-name="uacute" unicode="&#xfa;" horiz-adv-x="1292" 
d="M442 -27q-70 0 -126 17.5t-95.5 57t-60.5 103.5t-21 156v504q0 32 -14 59.5t-39 44.5q-19 13 -47 21t-55 10v10l512 25l6 -8v-686q0 -100 38 -147.5t103 -47.5q31 0 57 7.5t45.5 19.5t33.5 27t22 30v637q0 31 -12 57t-33 43q-16 13 -50 21t-69 10v12l514 25l8 -8v-811
q0 -34 14 -59t37 -42q9 -7 22 -12t27 -8t28 -5t26 -3v-13l-502 -28l-8 8v133h-6q-26 -29 -60.5 -58t-78.5 -51.5t-98 -36.5t-118 -14zM481 1087l155 312q15 31 34.5 59t42.5 49.5t50 34t58 12.5t57.5 -10.5t45.5 -28.5t29.5 -42t10.5 -52q0 -56 -37.5 -97t-103.5 -79
q-26 -15 -62 -33.5t-79 -41t-91 -47.5t-96 -52z" />
    <glyph glyph-name="ugrave" unicode="&#xf9;" horiz-adv-x="1292" 
d="M442 -27q-70 0 -126 17.5t-95.5 57t-60.5 103.5t-21 156v504q0 32 -14 59.5t-39 44.5q-19 13 -47 21t-55 10v10l512 25l6 -8v-686q0 -100 38 -147.5t103 -47.5q31 0 57 7.5t45.5 19.5t33.5 27t22 30v637q0 31 -12 57t-33 43q-16 13 -50 21t-69 10v12l514 25l8 -8v-811
q0 -34 14 -59t37 -42q9 -7 22 -12t27 -8t28 -5t26 -3v-13l-502 -28l-8 8v133h-6q-26 -29 -60.5 -58t-78.5 -51.5t-98 -36.5t-118 -14zM801 1071q-48 27 -96 52t-91 47.5t-79.5 41t-61.5 33.5q-66 38 -103.5 79t-37.5 97q0 28 10.5 52t29.5 42t45 28.5t58 10.5q31 0 58 -12.5
t50 -34t42.5 -49.5t34.5 -59l155 -312l-14 -16v0z" />
    <glyph glyph-name="ucircumflex" unicode="&#xfb;" horiz-adv-x="1292" 
d="M442 -27q-70 0 -126 17.5t-95.5 57t-60.5 103.5t-21 156v504q0 32 -14 59.5t-39 44.5q-19 13 -47 21t-55 10v10l512 25l6 -8v-686q0 -100 38 -147.5t103 -47.5q31 0 57 7.5t45.5 19.5t33.5 27t22 30v637q0 31 -12 57t-33 43q-16 13 -50 21t-69 10v12l514 25l8 -8v-811
q0 -34 14 -59t37 -42q9 -7 22 -12t27 -8t28 -5t26 -3v-13l-502 -28l-8 8v133h-6q-26 -29 -60.5 -58t-78.5 -51.5t-98 -36.5t-118 -14zM651 1303l-336 -216l-20 15q31 54 65 110.5t66 108.5t59.5 96t46.5 74q8 12 18 20t24.5 12.5t34 6.5t46.5 2q54 0 80 -9t39 -28
q17 -26 44.5 -69.5t60 -96.5t67.5 -111.5t67 -115.5l-22 -17z" />
    <glyph glyph-name="udieresis" unicode="&#xfc;" horiz-adv-x="1292" 
d="M442 -27q-70 0 -126 17.5t-95.5 57t-60.5 103.5t-21 156v504q0 32 -14 59.5t-39 44.5q-19 13 -47 21t-55 10v10l512 25l6 -8v-686q0 -100 38 -147.5t103 -47.5q31 0 57 7.5t45.5 19.5t33.5 27t22 30v637q0 31 -12 57t-33 43q-16 13 -50 21t-69 10v12l514 25l8 -8v-811
q0 -34 14 -59t37 -42q9 -7 22 -12t27 -8t28 -5t26 -3v-13l-502 -28l-8 8v133h-6q-26 -29 -60.5 -58t-78.5 -51.5t-98 -36.5t-118 -14zM391 1116q-35 0 -65 14.5t-52.5 38.5t-35.5 56t-13 67t13 67t35.5 56t52.5 38.5t65 14.5q34 0 64 -14.5t52.5 -38.5t36 -56t13.5 -67
t-13.5 -67t-36 -56t-52.5 -38.5t-64 -14.5zM871 1116q-35 0 -65 14.5t-52.5 38.5t-35.5 56t-13 67t13 67t35.5 56t52.5 38.5t65 14.5q34 0 64 -14.5t52.5 -38.5t36 -56t13.5 -67t-13.5 -67t-36 -56t-52.5 -38.5t-64 -14.5z" />
    <glyph glyph-name="dagger" unicode="&#x2020;" horiz-adv-x="887" 
d="M434 193q-6 90 -16 195t-21.5 213.5t-23.5 214t-23 194.5q-1 5 -2 14.5t-3.5 19t-6 16.5t-8.5 7q-8 0 -14 -14t-17 -29q-10 -15 -22 -33.5t-27 -35.5t-34 -28.5t-42 -11.5q-53 0 -89 32.5t-36 90.5q0 18 7 34t18.5 28t27 19t33.5 7q29 0 55 -20.5t35 -58.5q12 6 26 14
t30 15.5t32.5 12.5t32.5 5q19 0 42 -7.5t40 -25.5q-7 33 -21 65.5t-28.5 65.5t-25.5 66.5t-11 68.5q0 21 6 41.5t18.5 37t31.5 26.5t44 10t44 -10t32 -26.5t19 -37t6 -41.5q0 -35 -11 -68t-25.5 -65.5t-29.5 -65.5t-22 -67q36 33 82 33q34 0 66.5 -15.5t55.5 -29.5
q11 35 36.5 56t56.5 21q18 0 34 -7t27.5 -19t18 -28t6.5 -34q0 -29 -10 -52t-27.5 -38.5t-40.5 -24t-49 -8.5q-23 0 -41.5 11t-33 27t-26 34t-20.5 33t-17.5 31t-17.5 16q-12 0 -14.5 -13t-5.5 -44q-7 -59 -14.5 -129.5t-15.5 -145t-16 -150.5t-14.5 -147t-12.5 -134
t-9 -111h-19v0z" />
    <glyph glyph-name="degree" unicode="&#xb0;" horiz-adv-x="799" 
d="M395 848q-71 0 -131 19t-104 56.5t-69 93t-25 128.5q0 67 27 124t72.5 98t105 64t124.5 23q70 0 131.5 -18.5t107.5 -56t72.5 -95.5t26.5 -137q0 -63 -26.5 -117.5t-72.5 -95t-107.5 -63.5t-131.5 -23zM401 868q32 0 55.5 22t39 59.5t23 87.5t7.5 106q0 59 -6 111.5
t-20.5 92t-39.5 62.5t-63 23t-62.5 -24t-38.5 -63.5t-20 -89.5t-6 -102q0 -54 6 -105.5t20.5 -91.5t40 -64t64.5 -24z" />
    <glyph glyph-name="yen" unicode="&#xa5;" horiz-adv-x="1212" 
d="M223 14q14 1 35 3t43 4.5t41.5 6t30.5 7.5q28 9 45.5 35.5t17.5 60.5v174h-309v43h309v152h-309v43h301l-278 526q-25 50 -53 81.5t-60 49.5q-23 14 -51 20.5t-54 8.5v14h736v-14q-23 -2 -52 -5t-54.5 -9.5t-42.5 -16.5t-17 -24q0 -6 12 -34t33 -71t49.5 -99t61 -119
t67.5 -130.5t70 -132.5q32 56 66 116.5t66.5 119.5t61.5 113t50.5 98t34.5 74.5t13 41.5q0 20 -15.5 34t-39.5 23t-54 14t-60 7v14h399v-14q-66 -11 -111.5 -47.5t-77.5 -87.5t-70.5 -116t-80.5 -137t-85 -148.5t-83 -149.5h317v-43h-321v-152h321v-43h-321v-164
q0 -32 15.5 -59t43.5 -39q12 -5 30 -10t38 -9t39 -6.5t33 -3.5v-14h-781v14z" />
    <glyph glyph-name="mu" unicode="&#xb5;" horiz-adv-x="1313" 
d="M182 -463q-21 0 -39.5 8t-33 23t-23 35.5t-8.5 46.5q0 30 7 68t15.5 76.5t17 74t11.5 59.5q6 50 8 98.5t2 102.5v832h363v-699q0 -51 9.5 -86.5t26.5 -57t39 -31t48 -9.5q27 0 54.5 9.5t51.5 24t42.5 32t27.5 32.5v785h358v-766q0 -60 17.5 -83.5t37.5 -23.5
q29 0 51 13.5t36.5 35.5t23 50t10.5 57h25q-5 -72 -28.5 -121.5t-61 -81t-85.5 -45.5t-100 -14q-112 0 -182.5 40t-95.5 115h-6q-37 -44 -73 -74t-73.5 -48.5t-77.5 -26.5t-85 -8q-105 0 -177 35t-127 118h-4v-106q0 -48 16 -96.5t34.5 -95t34.5 -92t16 -87.5
q0 -59 -30.5 -89t-72.5 -30z" />
    <glyph glyph-name="mu" unicode="&#x3bc;" horiz-adv-x="1313" 
d="M182 -463q-21 0 -39.5 8t-33 23t-23 35.5t-8.5 46.5q0 30 7 68t15.5 76.5t17 74t11.5 59.5q6 50 8 98.5t2 102.5v832h363v-699q0 -51 9.5 -86.5t26.5 -57t39 -31t48 -9.5q27 0 54.5 9.5t51.5 24t42.5 32t27.5 32.5v785h358v-766q0 -60 17.5 -83.5t37.5 -23.5
q29 0 51 13.5t36.5 35.5t23 50t10.5 57h25q-5 -72 -28.5 -121.5t-61 -81t-85.5 -45.5t-100 -14q-112 0 -182.5 40t-95.5 115h-6q-37 -44 -73 -74t-73.5 -48.5t-77.5 -26.5t-85 -8q-105 0 -177 35t-127 118h-4v-106q0 -48 16 -96.5t34.5 -95t34.5 -92t16 -87.5
q0 -59 -30.5 -89t-72.5 -30z" />
    <glyph glyph-name="ordfeminine" unicode="&#xaa;" horiz-adv-x="799" 
d="M260 655q-51 0 -86 10.5t-56.5 29.5t-31.5 44.5t-10 55.5q0 34 9 59t25 42.5t36.5 29.5t43.5 20q28 10 65.5 19.5t74 19t66 18t40.5 17.5v108q0 15 -1 36.5t-7.5 40.5t-20.5 32.5t-40 13.5q-23 0 -39 -5t-25 -13q1 -8 5.5 -21t8.5 -28.5t7.5 -32.5t3.5 -33
q0 -11 -7 -24.5t-21.5 -25.5t-35 -20t-47.5 -8q-26 0 -44.5 8.5t-30.5 22t-17.5 30.5t-5.5 34q0 31 25.5 56.5t63.5 42.5t83.5 26.5t85.5 9.5q49 0 98.5 -6t89 -25t64 -56t24.5 -98q0 -42 -1.5 -88t-3 -88t-2.5 -75t-1 -48q0 -21 11 -39t34 -18q14 0 24.5 9t17 24.5t10 35
t3.5 40.5h23q-2 -88 -43 -134.5t-125 -46.5q-38 0 -65 6.5t-46 18t-30.5 26.5t-18.5 33q-14 -16 -30.5 -31.5t-37.5 -27.5t-48.5 -19.5t-63.5 -7.5zM365 725q24 0 40 10.5t27 26.5l6 237q-32 -12 -58 -25.5t-44 -32.5t-27.5 -46t-9.5 -66q0 -54 17.5 -79t48.5 -25zM88 551
h623v-82h-623v82z" />
    <glyph glyph-name="ordmasculine" unicode="&#xba;" horiz-adv-x="778" 
d="M385 655q-62 0 -122.5 18.5t-108.5 56.5t-77.5 96.5t-29.5 138.5q0 74 27.5 131t74 95.5t109 58.5t133.5 20q72 0 134 -20t107.5 -58t72 -95t26.5 -130t-25 -131t-71 -98t-109.5 -61.5t-140.5 -21.5zM391 674q35 0 56 25t32.5 66t15 94.5t3.5 109.5q0 53 -4 103.5
t-15 90.5t-32.5 64t-55.5 24q-36 0 -57.5 -25.5t-32.5 -65.5t-14.5 -90t-3.5 -99q0 -56 3 -109t13.5 -95t32 -67.5t59.5 -25.5zM78 551h622v-82h-622v82z" />
    <glyph glyph-name="ae" unicode="&#xe6;" horiz-adv-x="1606" 
d="M350 -31q-84 0 -143 17.5t-96 49t-53.5 74t-16.5 93.5q0 57 15.5 97.5t42 70t61.5 49t73 33.5q31 11 69.5 22t80 21.5t82.5 21t76.5 20.5t62 20t39.5 20v186q0 26 -2 61.5t-13 68t-34.5 55t-67.5 22.5q-38 0 -64 -9.5t-40 -21.5q2 -14 9 -37t14 -50t12.5 -56.5t5.5 -55.5
q0 -18 -12.5 -40.5t-36.5 -42t-58.5 -33t-79.5 -13.5q-44 0 -74.5 14t-49.5 36.5t-28 50t-9 55.5q0 52 42 93.5t106 71t139 45t141 15.5q43 0 86.5 -3t84.5 -12t79 -25t71 -42q53 38 125.5 60t151.5 22q117 0 200.5 -37t136 -97t77 -137t24.5 -157v-12h-580v-59
q0 -91 15 -168t48 -133.5t85 -88.5t127 -32q94 0 171.5 43.5t133.5 150.5l23 -16q-29 -59 -71 -110t-96.5 -89t-120.5 -60t-143 -22q-154 0 -275.5 47.5t-199.5 147.5q-32 -42 -67.5 -77.5t-77.5 -61.5t-91.5 -41t-109.5 -15zM524 78q41 0 67.5 17.5t45.5 45.5l8 408
q-53 -21 -95.5 -44.5t-72.5 -56.5t-46.5 -78.5t-16.5 -109.5q0 -91 29 -136.5t81 -45.5zM1241 584q0 40 -0.5 84t-3.5 86.5t-9.5 81.5t-19.5 68.5t-33 47t-49 17.5q-35 0 -58.5 -32t-37.5 -85.5t-21 -124t-10 -147.5z" />
    <glyph glyph-name="oslash" unicode="&#xf8;" horiz-adv-x="1217" 
d="M78 -27l127 127q-76 63 -122 158t-46 225q0 125 45.5 220.5t123.5 160t182.5 97t221.5 32.5q110 0 206 -27t171 -81l119 121l27 -25l-117 -119q75 -63 119.5 -157t44.5 -216t-42 -218.5t-118.5 -163.5t-183 -102.5t-234.5 -35.5q-99 0 -193.5 26.5t-172.5 82.5l-130 -129
zM610 -8q60 0 95.5 43t53.5 113.5t23.5 160.5t5.5 183q0 18 -0.5 38.5t-1 41.5t-1 41.5t-1.5 37.5l-348 -391q9 -57 21 -106t31.5 -85t48.5 -56.5t73 -20.5zM780 698q-5 61 -18 111t-33.5 86t-49.5 56t-67 20q-40 0 -69 -20t-49 -55t-32.5 -81.5t-19.5 -99t-9.5 -109
t-2.5 -110.5v-45.5t0.5 -49t1 -48.5t2.5 -44z" />
    <glyph glyph-name="questiondown" unicode="&#xbf;" horiz-adv-x="1114" 
d="M732.024 549.052q-131.992 -13.999 -200.487 -85.9951q-68.4961 -71.9951 -68.4961 -191.988q0 -61.9961 9.99902 -113.992q10 -51.9971 32.498 -88.9951q22.499 -36.998 58.4971 -57.4961q35.9971 -20.499 87.9941 -20.499t88.4951 19.499
q36.4971 19.499 58.4961 44.4971q-27.998 36.998 -50.9971 84.9951q-22.998 47.9971 -22.998 104.993q0 86.9951 48.4971 136.492q48.4971 49.4961 132.491 49.4961q45.9971 0 79.4951 -14.499t54.9971 -39.4971q21.498 -24.999 31.498 -58.4961
q9.99902 -33.498 9.99902 -71.4961q0 -57.9961 -35.4971 -109.493q-35.498 -51.4971 -95.9941 -89.4951q-60.4971 -37.9971 -140.992 -59.9961q-80.4951 -21.998 -170.489 -21.998q-122.992 0 -222.486 26.998t-169.989 78.4951q-70.4961 51.4971 -108.994 126.492
q-38.4971 74.9951 -38.4971 169.989q0 100.994 41.9971 181.489q41.998 80.4951 119.493 138.991q77.4951 58.4971 185.488 94.4941q107.993 35.998 239.985 47.9971l10.999 111.993h23.999zM697.026 1424q40.998 0 77.9951 -14.999q36.998 -14.999 64.4961 -41.9971
q27.499 -26.998 43.498 -63.4961t15.999 -78.4951q0 -41.998 -15.999 -78.4951q-15.999 -36.498 -43.498 -63.4961q-27.498 -26.999 -64.4961 -41.998q-36.9971 -14.999 -77.9951 -14.999q-41.9971 0 -78.4951 14.999q-36.4971 14.999 -64.4961 41.998
q-27.998 26.998 -43.9971 63.4961q-15.999 36.4971 -15.999 78.4951q0 41.9971 15.999 78.4951t43.9971 63.4961q27.999 26.998 64.4961 41.9971q36.498 14.999 78.4951 14.999z" />
    <glyph glyph-name="exclamdown" unicode="&#xa1;" horiz-adv-x="676" 
d="M350.02 926.028q28.999 -138.991 61.9961 -249.484q32.998 -110.493 60.9971 -201.487q27.998 -90.9951 45.9971 -167.99t17.999 -148.99q0 -39.998 -12.999 -75.4961q-13 -35.498 -38.498 -61.9961t-62.4961 -41.9971t-84.9951 -15.499t-84.9951 15.499
q-36.9971 15.499 -62.4961 41.9971q-25.498 26.498 -38.4971 61.9961t-12.999 75.4961q0 71.9951 18.498 149.49q18.499 77.4951 46.9971 168.99q28.499 91.4941 61.9971 201.487t63.4961 247.984h19.998zM338.021 1424q41.9971 0 78.4951 -14.999t64.4961 -41.9971
t43.9971 -63.4961t15.999 -78.4951q0 -41.998 -15.999 -78.4951q-15.999 -36.498 -43.9971 -63.4961q-27.998 -26.999 -64.4961 -41.998t-78.4951 -14.999t-78.4951 14.999t-64.4961 41.998q-27.998 26.998 -43.9971 63.4961q-15.999 36.4971 -15.999 78.4951
q0 41.9971 15.999 78.4951t43.9971 63.4961t64.4961 41.9971t78.4951 14.999z" />
    <glyph glyph-name="logicalnot" unicode="&#xac;" horiz-adv-x="1167" 
d="M915 502h-825v119h959v-541h-134v422z" />
    <glyph glyph-name="florin" unicode="&#x192;" horiz-adv-x="1176" 
d="M-104 -395q-44 0 -89.5 10.5t-82.5 35.5t-60.5 67t-23.5 104q0 31 12.5 58t33 47t47.5 31t56 11q69 0 113.5 -37.5t44.5 -115.5q0 -28 -11 -52t-28 -44.5t-39 -36t-43 -25.5q18 -35 76 -35q189 0 284 457q20 94 34 170t25 142.5t20 128t20 126.5h-217l8 43h215
q14 83 32.5 149.5t44 121.5t59 100t77.5 84q69 61 167.5 97t239.5 36q53 0 106.5 -14.5t96 -43.5t69.5 -71.5t27 -99.5q0 -29 -9 -55t-27.5 -46.5t-45.5 -32.5t-63 -12q-32 0 -61.5 8.5t-52 25.5t-35.5 43.5t-13 61.5q0 25 10.5 50t27 48.5t36.5 44.5t39 36
q-8 11 -35.5 23.5t-69.5 12.5q-48 0 -83 -28.5t-60.5 -84.5t-45.5 -139.5t-38 -193.5l-20 -121h258l-11 -43h-254q-15 -86 -26 -155t-21.5 -129t-21 -114.5t-23.5 -111.5q-26 -117 -87.5 -217.5t-164.5 -175.5q-39 -29 -85.5 -54.5t-99.5 -44.5t-111 -29.5t-121 -10.5z" />
    <glyph glyph-name="cent" unicode="&#xa2;" horiz-adv-x="1010" 
d="M311 -223l84 358q-158 48 -245 168.5t-87 314.5q0 97 36 186.5t102.5 158.5t162.5 110t216 41h23t22 -2l61 262l41 -8l-59 -256q63 -9 115 -29t89.5 -49.5t58.5 -67.5t21 -81q0 -31 -8.5 -58.5t-26 -48.5t-43.5 -33t-61 -12q-29 0 -53.5 9.5t-43.5 26.5t-29.5 41.5
t-10.5 53.5q0 33 6 59t13 46.5t13 36.5t7 30q-3 11 -21.5 23t-34.5 20l-178 -747q13 -23 33.5 -40.5t45 -29.5t52 -18t54.5 -6q105 0 171.5 44.5t104.5 131.5l23 -13q-24 -60 -62 -112.5t-87.5 -91.5t-110.5 -61.5t-130 -22.5q-15 0 -34 1t-38.5 3t-37.5 4.5t-31 5.5
l-84 -356zM618 1087q-8 2 -15 2.5t-15 0.5q-37 0 -70 -29t-57.5 -86.5t-38.5 -142.5t-14 -197q0 -72 11 -140.5t34 -117.5z" />
    <glyph glyph-name="sterling" unicode="&#xa3;" horiz-adv-x="1556" 
d="M106 -201q-66 0 -111.5 13t-74 37t-41 57.5t-12.5 75.5q0 52 29 104t79.5 94t119.5 68t149 26q83 0 155 -11.5t140 -31.5q2 26 -3 61t-8 73h-362v43h358q-2 20 -5 44t-5.5 47.5t-4.5 45.5t-3 37h-328v43h326q-3 177 42 325t130 254.5t206 166t269 59.5q115 0 200 -28.5
t140.5 -75.5t83 -108.5t27.5 -127.5q0 -73 -27 -135t-78.5 -107t-127.5 -70.5t-173 -25.5q-63 0 -109.5 17t-77.5 48t-46 73t-15 93q0 46 11 91.5t32 94.5l21 -4q-35 -75 -35 -149q0 -102 50 -158.5t138 -56.5q43 0 78.5 16t61 50t39.5 86.5t14 125.5q0 64 -12.5 123.5
t-38.5 105t-65 72.5t-93 27q-85 0 -140.5 -37t-88 -110.5t-45.5 -183.5t-13 -255q0 -22 -1 -48.5t-3 -52.5t-5 -51t-7 -44h336v-43h-344q-10 -45 -31 -90.5t-49 -83.5h407v-43h-430q-28 -42 -64 -81t-71 -73q66 -25 130.5 -51.5t126.5 -49t122 -37t117 -14.5
q94 0 151.5 22.5t91.5 59.5t49 85t23 100l25 -4q-7 -56 -21.5 -115.5t-38.5 -115t-60.5 -104.5t-87.5 -85.5t-119.5 -58t-156.5 -21.5q-65 0 -128 13t-123.5 34t-119 47t-112.5 51q-32 -36 -72 -67t-87 -53.5t-98.5 -35t-105.5 -12.5zM104 -162q94 0 179.5 39.5t150.5 108.5
q-38 17 -81 33t-88.5 28t-91.5 19.5t-91 7.5q-77 0 -121.5 -33t-44.5 -84q0 -56 48.5 -87.5t139.5 -31.5z" />
    <glyph glyph-name="section" unicode="&#xa7;" horiz-adv-x="1126" 
d="M514 -465q-55 0 -98.5 13.5t-77.5 36t-58 50t-39.5 56t-22.5 55t-7 45.5q0 37 9.5 72t30.5 61t54 42t80 16q34 0 60.5 -14t45.5 -35.5t29 -47.5t10 -51q0 -35 -16 -61.5t-35 -48.5t-35 -40t-16 -36q0 -42 26 -65t68 -23q28 0 53.5 13.5t45 38.5t30.5 60.5t11 79.5
q0 37 -11.5 72t-31.5 69t-46.5 67.5t-56.5 68.5q-32 37 -61 70t-59 68.5t-64.5 75.5t-77.5 91q-39 46 -66 85.5t-43.5 76t-24 72.5t-7.5 75q0 56 23.5 104.5t62.5 86.5t88.5 65t101.5 41q-19 25 -36 57t-29.5 66.5t-19.5 71.5t-7 73q0 60 23.5 115t69.5 96.5t115 66.5
t161 25q55 0 97.5 -13.5t75 -36t55 -50t36 -56t20 -55t6.5 -45.5q0 -38 -9.5 -72t-30.5 -60.5t-54 -42t-80 -15.5q-34 0 -61 12.5t-45.5 33t-28.5 46t-10 51.5q0 34 15.5 61.5t33.5 50t33.5 41t15.5 36.5q0 42 -22.5 66t-67.5 24q-66 0 -103.5 -51t-37.5 -144
q0 -37 10.5 -69.5t29.5 -65t46 -66.5t61 -73t63 -73t59 -68.5t63.5 -73.5t76.5 -90q39 -46 66.5 -86t44 -77t24 -73t7.5 -74q0 -55 -24 -102.5t-64 -84.5t-90.5 -63t-104.5 -38q21 -26 38.5 -58.5t31 -68.5t21 -74t7.5 -76q0 -60 -21.5 -115t-65 -96.5t-111 -66.5
t-158.5 -25zM754 137q48 20 68 60.5t20 99.5q0 25 -8.5 54.5t-22.5 59.5t-32.5 58t-37.5 51q-44 52 -90 105.5t-89.5 104.5t-83.5 98t-72 87q-47 -23 -67 -60.5t-20 -94.5q0 -26 9.5 -57t25 -62.5t34.5 -61.5t38 -53q43 -51 87.5 -103.5t87.5 -103t82 -97t71 -85.5z" />
    <glyph glyph-name="paragraph" unicode="&#xb6;" horiz-adv-x="1309" 
d="M653 578h-61q-91 0 -161.5 18.5t-123 50t-88.5 72.5t-58.5 86t-32 91t-9.5 87q0 38 8 84t27.5 92.5t52 89.5t81.5 76.5t116.5 53.5t156.5 20h674v-45h-291v-1610h-57v1610h-176v-1610h-58v834z" />
    <glyph glyph-name="germandbls" unicode="&#xdf;" horiz-adv-x="1343" 
d="M903 -29q-90 0 -152 17t-100 46.5t-54.5 67.5t-16.5 80q0 28 8.5 56.5t25.5 52t44 38.5t65 15q71 0 107 -37.5t36 -93.5q0 -24 -7 -42.5t-15.5 -34t-15.5 -29.5t-7 -29t5 -30t15.5 -27t26.5 -19.5t37 -7.5q30 0 56 12.5t45.5 35t31 53.5t11.5 67q0 33 -9 65.5t-33 64
t-66 63t-107 63.5q-62 30 -109 58.5t-78.5 60.5t-47 69t-15.5 84q0 41 11.5 73t32.5 61t51.5 59t68.5 67q40 41 58.5 106.5t18.5 153.5q0 69 -9 124.5t-26 94.5t-42.5 59.5t-59.5 20.5q-41 0 -71.5 -23t-51 -74t-31 -133t-10.5 -200v-22.5t0.5 -53t0.5 -108.5t0.5 -187.5
t0.5 -290.5v-417h-499v14q27 2 45.5 5t40.5 10q29 9 42 33.5t13 58.5v764h-172v37h172v63q0 253 139 401q63 69 171 106.5t247 37.5q79 0 151.5 -18t128 -52t88.5 -83.5t33 -112.5q0 -50 -14.5 -90t-39.5 -70.5t-59 -53.5t-73 -40q-38 -16 -73.5 -28.5t-63.5 -25.5
t-45 -28.5t-17 -38.5q0 -22 24.5 -43t68 -46t102.5 -54.5t129 -67.5q75 -42 124 -82.5t77.5 -84t39.5 -91.5t11 -105q0 -82 -32 -146t-88 -108t-131.5 -67t-162.5 -23z" />
    <glyph glyph-name="AE" unicode="&#xc6;" horiz-adv-x="2120" 
d="M-74 10q15 1 32.5 4t35.5 8.5t35.5 12t31.5 14.5q27 14 54.5 43t54.5 68t54.5 84.5t54.5 91.5l598 1030q-13 4 -40 7.5t-57 5.5t-58 3t-44 2v15h1290v-367h-22q-26 49 -62 104t-76.5 102.5t-83.5 82t-84 43.5q-37 8 -72 9t-83 1h-121v-637h72q42 0 71.5 5.5t50.5 14.5
t34.5 19.5t23.5 20.5q16 16 33.5 40.5t34 53.5t30.5 60.5t23 60.5h22v-584h-22q-9 30 -24 63.5t-32 65t-34.5 57t-30.5 39.5q-11 12 -25 22.5t-35 19t-50.5 13.5t-69.5 5h-72v-535q0 -51 5 -81.5t21.5 -46.5t47.5 -20.5t82 -4.5q42 0 79.5 1t69.5 5.5t58 14.5t45 28
q63 62 135.5 155.5t144.5 198.5h21l-27 -428h-1329v14q21 1 45.5 3.5t47.5 4.5t41.5 5t27.5 6q37 12 49 36t12 58v475h-457l-207 -366q-15 -27 -23 -46.5t-12 -34t-4.5 -25t-0.5 -19.5q0 -26 25 -43.5t60 -29t72 -17.5t62 -7v-14h-529v10zM940 641v721h-25q-13 -22 -38 -65
t-58 -100.5t-72.5 -126.5t-81 -142t-83 -146.5t-78.5 -140.5h436z" />
    <glyph glyph-name="Oslash" unicode="&#xd8;" horiz-adv-x="1636" 
d="M53 -41l205 211q-48 47 -87.5 103t-68 121t-44 137.5t-15.5 152.5q0 92 18.5 174t51.5 153.5t79 131.5t101 108q99 88 231.5 134.5t294.5 46.5q150 0 279.5 -40t228.5 -120l180 186l33 -28l-180 -187q50 -47 92.5 -104t74 -124t49 -143.5t17.5 -162.5t-17.5 -166
t-49.5 -152t-77 -134.5t-101 -113.5q-97 -88 -229 -132t-308 -44q-158 0 -290.5 44t-231.5 132l-205 -211zM819 -8q88 0 147 53.5t94.5 148.5t50.5 225t15 283q0 75 -3.5 157.5t-12.5 150.5l-582 -641q11 -76 34 -144.5t59 -120t85 -82t113 -30.5zM1102 1061
q-12 69 -34 131.5t-56.5 110.5t-82 76t-110.5 28q-80 0 -138 -48t-96 -139.5t-56.5 -224t-18.5 -301.5q0 -68 3 -140.5t9 -131.5z" />
    <glyph glyph-name="guillemotleft" unicode="&#xab;" horiz-adv-x="1192" 
d="M633 27q-72 47 -141.5 93t-133.5 88.5t-120 80t-101 67.5q-17 11 -27.5 19t-16.5 18.5t-8.5 25.5t-2.5 40q0 22 2 36.5t7.5 24.5t15 18.5t24.5 18.5q39 27 96 65.5t124 83t139 92.5t141 93l14 -12l-260 -420l260 -422zM1085 27q-72 47 -141.5 93t-133 88.5t-119.5 80
t-101 67.5q-17 11 -27.5 19t-16.5 18.5t-8.5 25.5t-2.5 40q0 22 2 36.5t7.5 24.5t15 18.5t24.5 18.5q39 27 96 65.5t123.5 83t138.5 92.5t141 93l15 -12l-260 -420l260 -422z" />
    <glyph glyph-name="guillemotright" unicode="&#xbb;" horiz-adv-x="1192" 
d="M94 37l260 422l-260 420l15 12q69 -45 141 -93t138.5 -92.5t123.5 -83t96 -65.5q15 -10 24.5 -18.5t15 -18.5t7.5 -24.5t2 -36.5q0 -25 -2.5 -40t-8.5 -25.5t-16.5 -18.5t-27.5 -19q-45 -30 -101 -67.5t-120 -80t-133.5 -88.5t-141.5 -93zM547 37l260 422l-260 420l14 12
q69 -45 141 -93t138.5 -92.5t124 -83t96.5 -65.5q15 -10 24.5 -18.5t15 -18.5t7.5 -24.5t2 -36.5q0 -25 -2.5 -40t-8.5 -25.5t-16.5 -18.5t-27.5 -19q-45 -30 -101 -67.5t-120 -80t-133.5 -88.5t-141.5 -93z" />
    <glyph glyph-name="nonbreakingspace" unicode="&#xa0;" horiz-adv-x="201" 
 />
    <glyph glyph-name="Agrave" unicode="&#xc0;" horiz-adv-x="1430" 
d="M-74 14q28 3 58.5 8.5t56.5 22.5q38 25 66.5 69t50.5 97q12 30 35.5 90t55 140.5t68 175t74.5 192t75 193t69 177.5t56.5 145.5t37.5 96.5h186q18 -45 47 -120t64.5 -168t75 -197t78.5 -208t76 -201t66.5 -175.5t50 -132t27.5 -69.5q13 -31 31 -58t53 -49
q28 -17 56.5 -21.5t54.5 -7.5v-14h-838v14q26 2 62.5 6.5t70 12.5t57 21t23.5 32q0 12 -2.5 23.5t-5.5 19.5l-129 369h-422l-92 -269q-14 -40 -19.5 -73.5t-2.5 -53.5q4 -27 32.5 -43t66 -25.5t77 -13.5t65.5 -6v-14h-512v14zM721 537l-199 516l-194 -516h393zM862 1462
q-48 27 -96 52t-91 47.5t-79.5 41t-61.5 33.5q-66 38 -103.5 79t-37.5 97q0 28 10.5 52t29.5 42t45 28.5t58 10.5q31 0 58 -12.5t50 -34t42.5 -49.5t34.5 -59l155 -312l-14 -16v0z" />
    <glyph glyph-name="Atilde" unicode="&#xc3;" horiz-adv-x="1430" 
d="M-74 14q28 3 58.5 8.5t56.5 22.5q38 25 66.5 69t50.5 97q12 30 35.5 90t55 140.5t68 175t74.5 192t75 193t69 177.5t56.5 145.5t37.5 96.5h186q18 -45 47 -120t64.5 -168t75 -197t78.5 -208t76 -201t66.5 -175.5t50 -132t27.5 -69.5q13 -31 31 -58t53 -49
q28 -17 56.5 -21.5t54.5 -7.5v-14h-838v14q26 2 62.5 6.5t70 12.5t57 21t23.5 32q0 12 -2.5 23.5t-5.5 19.5l-129 369h-422l-92 -269q-14 -40 -19.5 -73.5t-2.5 -53.5q4 -27 32.5 -43t66 -25.5t77 -13.5t65.5 -6v-14h-512v14zM721 537l-199 516l-194 -516h393zM290 1511
q9 26 24 62t35 74.5t46 77t56 68.5t64 49t72 19q55 0 97 -16.5t78.5 -36t72 -35.5t78.5 -16q53 0 95.5 28t70.5 99l27 -8q-8 -27 -21 -64t-31 -76t-42 -77t-53 -68t-63.5 -48.5t-74.5 -18.5q-55 0 -98 16.5t-81 36.5t-74 36.5t-77 16.5q-49 0 -94.5 -30t-79.5 -99z" />
    <glyph glyph-name="Otilde" unicode="&#xd5;" horiz-adv-x="1636" 
d="M811 -33q-164 0 -301 48.5t-238 142.5q-50 47 -92 104t-72.5 123t-47.5 141t-17 158q0 92 18.5 174t51.5 153.5t79 131.5t101 108q99 88 231.5 134.5t294.5 46.5q161 0 297 -45t236 -136q51 -47 95.5 -104.5t76.5 -125.5t50.5 -146t18.5 -166q0 -86 -17.5 -166
t-49.5 -152t-77 -134.5t-101 -113.5q-97 -88 -229 -132t-308 -44zM819 -8q88 0 147 53.5t94.5 148.5t50.5 225t15 283q0 90 -5.5 177.5t-18.5 166t-35.5 144.5t-56.5 114.5t-81.5 75.5t-109.5 27q-80 0 -138 -48t-96 -139.5t-56.5 -224t-18.5 -301.5q0 -148 15 -276.5
t51 -223t95.5 -148.5t147.5 -54zM415 1511q9 26 24 62t35 74.5t46 77t56 68.5t64 49t72 19q55 0 97 -16.5t78.5 -36t72 -35.5t78.5 -16q53 0 95.5 28t70.5 99l27 -8q-8 -27 -21 -64t-31 -76t-42 -77t-53 -68t-63.5 -48.5t-74.5 -18.5q-55 0 -98 16.5t-81 36.5t-74 36.5
t-77 16.5q-49 0 -94.5 -30t-79.5 -99z" />
    <glyph glyph-name="OE" unicode="&#x152;" horiz-adv-x="2243" 
d="M811 0q-161 0 -301.5 42t-244 126.5t-163 213t-59.5 302.5q0 169 56.5 302t159 224.5t245.5 140t315 48.5h1272v-367h-23q-26 49 -61.5 104t-76 102.5t-83.5 82t-84 43.5q-37 8 -72 9t-83 1h-121v-637h72q42 0 71.5 5.5t50.5 14.5t34.5 19.5t23.5 20.5q16 16 33.5 40.5
t34 53.5t30.5 60.5t23 60.5h22v-584h-22q-9 30 -24 63.5t-32 65t-34.5 57t-30.5 39.5q-11 12 -25 22.5t-35 19t-50.5 13.5t-69.5 5h-72v-535q0 -51 5 -81.5t21.5 -46.5t47 -20.5t81.5 -4.5q42 0 80 1t70 5.5t58 14.5t44 28q63 62 136 155.5t145 198.5h20l-26 -428h-1358z
M819 25q121 0 187 92q23 31 34.5 97t16.5 148.5t5.5 174t0.5 174.5q0 38 0.5 91.5t-0.5 113.5t-4 121.5t-9.5 115t-17 95t-26.5 61.5q-28 34 -71.5 49.5t-115.5 15.5q-160 0 -234.5 -171t-74.5 -509q0 -148 15 -271t51 -211.5t95.5 -137.5t147.5 -49z" />
    <glyph glyph-name="oe" unicode="&#x153;" horiz-adv-x="1786" 
d="M602 -31q-104 0 -205 30.5t-181 93.5t-129.5 160t-49.5 230q0 125 45.5 220.5t123.5 160t182.5 97t221.5 32.5q107 0 202 -26t169 -78q69 51 155 77.5t185 26.5q117 0 200.5 -37t136 -97t77 -137t24.5 -157v-12h-579v-59q0 -91 15 -168t47.5 -133.5t84.5 -88.5t127 -32
q94 0 172 43.5t133 150.5l23 -16q-29 -59 -71 -110t-96 -89t-120.5 -60t-142.5 -22q-112 0 -206.5 26t-168.5 79q-74 -53 -168.5 -79t-206.5 -26zM610 -8q60 0 95.5 43t53.5 113.5t23.5 160.5t5.5 183q0 59 -2.5 117t-9.5 111.5t-19 99t-31.5 79.5t-47.5 53t-66 19
q-40 0 -69 -20t-49 -55t-32.5 -81.5t-19.5 -99t-9.5 -109t-2.5 -110.5q0 -92 5 -182.5t23 -162t54 -115.5t98 -44zM1421 584q0 40 -0.5 84t-3.5 86.5t-9.5 81.5t-19.5 68.5t-32.5 47t-48.5 17.5q-36 0 -59.5 -32t-37.5 -85.5t-21 -124t-9 -147.5z" />
    <glyph glyph-name="divide" unicode="&#xf7;" horiz-adv-x="1167" 
d="M584 104q-29 0 -54.5 11t-44.5 30t-30 44.5t-11 54.5q0 28 11 53t30 43.5t44.5 29.5t54.5 11t54.5 -11t44 -29.5t29.5 -43.5t11 -53q0 -29 -11 -54.5t-29.5 -44.5t-44 -30t-54.5 -11zM584 682q-29 0 -54.5 10.5t-44.5 29.5t-30 43.5t-11 53.5t11 54t30 43.5t44.5 29
t54.5 10.5t54.5 -10.5t44 -29t29.5 -43.5t11 -54t-11 -53.5t-29.5 -43.5t-44 -29.5t-54.5 -10.5zM102 592h963v-119h-963v119z" />
    <glyph glyph-name="e.ordn" horiz-adv-x="825" 
d="M457 569q-102 0 -173 28.5t-115.5 77t-64.5 113.5t-20 138q0 66 22.5 128t67 110t111.5 77t157 29q91 0 152.5 -25.5t98 -68t52 -97.5t15.5 -114v-15h-463q1 -70 14.5 -127.5t42 -99t73.5 -64t108 -22.5q28 0 58.5 8.5t59.5 24.5t54.5 39.5t44.5 52.5l16 -12
q-21 -36 -51 -69t-68.5 -58t-86.5 -39.5t-105 -14.5zM547 975q0 45 -4 94t-15 89.5t-32.5 66.5t-55.5 26q-37 0 -62.5 -23.5t-42 -62.5t-25 -89t-11.5 -103z" />
    <glyph glyph-name="ydieresis" unicode="&#xff;" horiz-adv-x="993" 
d="M137 -467q-27 0 -59 9t-60.5 30t-47.5 54.5t-19 82.5q0 28 11 55t31 48t47.5 34t61.5 13q21 0 45 -6t45 -20.5t34.5 -38.5t13.5 -60q0 -17 -2 -38t-4.5 -40.5t-5 -35t-3.5 -19.5q39 11 76 43t69.5 75.5t59.5 95.5t47 103q-9 19 -30 66.5t-50 113t-63 144t-68.5 158.5
t-68 156.5t-60.5 138.5t-45.5 104.5t-23.5 54.5q-19 40 -50 67t-84 33v13h623v-13q-16 -1 -37.5 -3.5t-41 -7.5t-33 -14t-13.5 -22q0 -5 4.5 -17.5t9.5 -25.5q4 -10 19.5 -47.5t37 -90t46.5 -113t48 -116.5t42 -101.5t29 -67.5q12 26 28 65t34.5 84t37.5 91.5t35.5 89.5
t30 77.5t20.5 55.5q9 26 15.5 51.5t2.5 38.5q-8 32 -55.5 48.5t-126.5 24.5v13h375v-13q-24 -1 -44 -6.5t-37 -19t-32 -35.5t-30 -55q-21 -47 -48.5 -108.5t-58 -131.5t-63.5 -145.5t-65 -149.5t-62.5 -143.5t-55.5 -128.5q-48 -111 -97.5 -203t-103 -157.5t-111 -101.5
t-120.5 -36zM331 1116q-35 0 -65 14.5t-52.5 38.5t-35.5 56t-13 67t13 67t35.5 56t52.5 38.5t65 14.5q34 0 64 -14.5t52.5 -38.5t36 -56t13.5 -67t-13.5 -67t-36 -56t-52.5 -38.5t-64 -14.5zM811 1116q-35 0 -65 14.5t-52.5 38.5t-35.5 56t-13 67t13 67t35.5 56t52.5 38.5
t65 14.5q34 0 64 -14.5t52.5 -38.5t36 -56t13.5 -67t-13.5 -67t-36 -56t-52.5 -38.5t-64 -14.5z" />
    <glyph glyph-name="Ydieresis" unicode="&#x178;" horiz-adv-x="1483" 
d="M297 14q21 1 46.5 3.5t49.5 4.5t43.5 5t28.5 6q37 12 49 36t12 58v326q0 34 -2 58.5t-9 48t-19 50t-33 64.5q-12 22 -36 65.5t-53 97t-61 112t-60.5 110.5t-51 92.5t-33.5 58.5q-28 47 -61 84.5t-68 59.5q-28 17 -56 22.5t-57 7.5v15h883v-15q-27 -2 -65 -5.5
t-72.5 -10.5t-59 -17.5t-24.5 -25.5q0 -5 6.5 -22.5t18.5 -43.5t28.5 -59.5t36.5 -71.5q5 -11 21.5 -42.5t39.5 -75t51 -95t55.5 -102t53 -96.5t45.5 -78q9 14 26 44.5t38.5 70.5t45.5 86t48 91t45.5 86.5t38.5 72.5q51 97 70.5 153t19.5 72q0 21 -24 33.5t-59.5 19.5
t-76.5 10.5t-76 5.5v15h521v-15q-38 -5 -70.5 -8t-58.5 -18q-44 -26 -75 -64.5t-57 -85.5q-36 -63 -69 -121.5t-66 -117.5t-68 -123t-75 -137q-26 -48 -40.5 -82.5t-21.5 -66t-8.5 -66t-1.5 -82.5v-281q0 -34 13.5 -60t48.5 -38q9 -3 29 -6t44 -5t48.5 -4.5t42.5 -3.5v-14
h-879v14zM612 1507q-35 0 -65 14.5t-52.5 38.5t-35.5 56t-13 67t13 67t35.5 56t52.5 38.5t65 14.5q34 0 64 -14.5t52.5 -38.5t36 -56t13.5 -67t-13.5 -67t-36 -56t-52.5 -38.5t-64 -14.5zM1092 1507q-35 0 -65 14.5t-52.5 38.5t-35.5 56t-13 67t13 67t35.5 56t52.5 38.5
t65 14.5q34 0 64 -14.5t52.5 -38.5t36 -56t13.5 -67t-13.5 -67t-36 -56t-52.5 -38.5t-64 -14.5z" />
    <glyph glyph-name="fraction" unicode="&#x2044;" horiz-adv-x="672" 
d="M-248 -391l1030 1931l58 -29l-1033 -1931z" />
    <glyph glyph-name="fraction" unicode="&#x2215;" horiz-adv-x="672" 
d="M-248 -391l1030 1931l58 -29l-1033 -1931z" />
    <glyph glyph-name="Euro" unicode="&#x20ac;" horiz-adv-x="1280" 
d="M784 -29q-118 0 -219 33.5t-178 98.5t-127 161t-67 221h-152v43h149q-3 35 -2.5 72.5t2.5 71.5h-149v43h156q16 116 69 217t138.5 176t200 118.5t253.5 43.5q82 0 153 -19.5t123.5 -56t82.5 -88.5t30 -117q0 -52 -12.5 -86.5t-32.5 -55.5t-45.5 -29.5t-50.5 -8.5
q-65 0 -102 35t-37 86q0 30 14.5 57.5t31.5 53t31.5 49.5t14.5 47q-4 20 -20 39.5t-42.5 35.5t-61.5 25.5t-77 9.5q-65 0 -112 -35.5t-80 -103t-52 -167t-26 -226.5h399v-43h-401v-38v-40t0.5 -37t1.5 -29h358v-43h-356q4 -89 26 -166.5t60 -134.5t92 -90t123 -33
q115 0 194.5 63.5t135.5 180.5l20 -12q-29 -65 -68 -123.5t-93.5 -102.5t-127 -70t-168.5 -26z" />
    <glyph glyph-name="guilsinglleft" unicode="&#x2039;" horiz-adv-x="739" 
d="M633 27q-72 47 -141.5 93t-133.5 88.5t-120 80t-101 67.5q-17 11 -27.5 19t-16.5 18.5t-8.5 25.5t-2.5 40q0 22 2 36.5t7.5 24.5t15 18.5t24.5 18.5q39 27 96 65.5t124 83t139 92.5t141 93l14 -12l-260 -420l260 -422l-12 -10v0z" />
    <glyph glyph-name="guilsinglright" unicode="&#x203a;" horiz-adv-x="739" 
d="M94 37l260 422l-260 420l15 12q69 -45 141 -93t138.5 -92.5t123.5 -83t96 -65.5q15 -10 24.5 -18.5t15 -18.5t7.5 -24.5t2 -36.5q0 -25 -2.5 -40t-8.5 -25.5t-16.5 -18.5t-27.5 -19q-45 -30 -101 -67.5t-120 -80t-133.5 -88.5t-141.5 -93z" />
    <glyph glyph-name="daggerdbl" unicode="&#x2021;" horiz-adv-x="887" 
d="M444 10q-22 0 -40.5 8.5t-31.5 22.5t-20.5 31.5t-7.5 36.5q0 34 12.5 60t28.5 48t30.5 41t18.5 39q-7 -6 -21.5 -13.5t-32 -14t-34.5 -11t-29 -4.5q-35 0 -49 6t-26 14q-8 -45 -32 -68.5t-58 -23.5q-17 0 -32 8t-26 20.5t-17.5 29t-6.5 34.5q0 42 25.5 73.5t78.5 31.5
q30 0 47 -16t30 -35.5t25 -35.5t33 -16q17 0 25.5 22t17.5 54q6 19 17 60.5t23 90.5t23.5 99t18.5 86h19q5 -23 12.5 -54t15.5 -64.5t16.5 -67.5t16.5 -63.5t14 -52.5t9 -34q9 -32 18 -54t25 -22q21 0 33.5 16t25 35.5t29.5 35.5t47 16q52 0 78 -31.5t26 -73.5
q0 -18 -6.5 -34.5t-17.5 -29t-26 -20.5t-32 -8q-34 0 -58.5 22.5t-33.5 67.5q-12 -6 -30 -12t-44 -6q-11 0 -28 4.5t-34.5 11t-32 14t-21.5 13.5q4 -22 19 -41.5t30.5 -41t28 -46.5t12.5 -59q0 -19 -7.5 -36.5t-20.5 -31.5t-32 -22.5t-41 -8.5zM434 752q-8 35 -20 85.5
t-25 100.5t-24 91t-15 58q-9 32 -18 54t-25 22q-21 0 -33.5 -16t-25 -35t-29.5 -35t-47 -16q-26 0 -45.5 8.5t-32.5 23t-19.5 33t-6.5 39.5q0 18 6.5 34.5t17.5 29t26 20.5t32 8q34 0 58 -22.5t34 -67.5q12 7 29.5 13t43.5 6q12 0 29 -4.5t34.5 -11t32 -14t21.5 -13.5
q-5 22 -19.5 41.5t-30 41t-28 46.5t-12.5 59q0 18 7.5 36t20.5 32t31.5 22.5t40.5 8.5t41 -8.5t32 -22.5t20.5 -32t7.5 -36q0 -34 -12.5 -60t-28.5 -48t-30.5 -41t-18.5 -39q7 6 21.5 13.5t32 14t34.5 11t28 4.5q35 0 49.5 -6.5t26.5 -14.5q8 45 32 68.5t58 23.5q17 0 32 -8
t26 -20.5t17.5 -29t6.5 -34.5q0 -21 -6.5 -39.5t-19.5 -33t-32.5 -23t-45.5 -8.5q-30 0 -47 16t-30 35t-25 35t-33 16q-17 0 -25.5 -22t-17.5 -54q-6 -19 -17 -60.5t-23 -90.5t-23.5 -98.5t-18.5 -85.5h-19z" />
    <glyph glyph-name="quotesinglbase" unicode="&#x201a;" horiz-adv-x="551" 
d="M55 -334q45 16 94.5 49t92 75t71.5 89.5t33 91.5h-98q-56 0 -93.5 18.5t-59.5 45.5t-31 57.5t-9 54.5q0 23 10.5 53t32.5 56.5t55 44.5t78 18q64 0 107 -23t68.5 -61t36 -86.5t10.5 -99.5q0 -79 -36.5 -144t-93 -116t-124.5 -87.5t-131 -59.5z" />
    <glyph glyph-name="quotedblbase" unicode="&#x201e;" horiz-adv-x="1022" 
d="M55 -334q45 16 94.5 49t92 75t71.5 89.5t33 91.5h-98q-56 0 -93.5 18.5t-59.5 45.5t-31 57.5t-9 54.5q0 23 10.5 53t32.5 56.5t55 44.5t78 18q64 0 107 -23t68.5 -61t36 -86.5t10.5 -99.5q0 -79 -36.5 -144t-93 -116t-124.5 -87.5t-131 -59.5zM526 -334q45 16 94.5 49
t92 75t71.5 89.5t33 91.5h-98q-56 0 -93.5 18.5t-59.5 45.5t-31 57.5t-9 54.5q0 23 10.5 53t32.5 56.5t55 44.5t78 18q64 0 107 -23t68.5 -61t36 -86.5t10.5 -99.5q0 -79 -36.5 -144t-93 -116t-124.5 -87.5t-131 -59.5z" />
    <glyph glyph-name="perthousand" unicode="&#x2030;" horiz-adv-x="2677" 
d="M455 555q-86 0 -157.5 23t-122.5 68t-79 110.5t-28 150.5q0 78 30.5 145t83 116t123 76.5t150.5 27.5q84 0 156.5 -22t125.5 -67t83 -113.5t30 -160.5q0 -74 -30 -138.5t-83 -112.5t-125.5 -75.5t-156.5 -27.5zM461 580q32 0 57 24t42 67t25.5 103t8.5 131
q0 74 -6.5 136.5t-22.5 108.5t-42 71.5t-66 25.5t-66.5 -26.5t-42.5 -72t-22.5 -106t-6.5 -127.5q0 -69 6.5 -130t22.5 -106.5t43.5 -72t69.5 -26.5zM1346 -27q-86 0 -157.5 23t-122.5 68t-79.5 110.5t-28.5 151.5q0 78 30.5 145t83.5 115.5t123.5 76t150.5 27.5
q84 0 156.5 -22t125.5 -67t83 -113t30 -160q0 -74 -30 -138.5t-83 -112.5t-125.5 -76t-156.5 -28zM1352 -2q32 0 57 24t42 67.5t25.5 103t8.5 131.5q0 73 -6.5 136t-22.5 108.5t-42 71.5t-66 26t-66.5 -27t-42.5 -72.5t-22.5 -105.5t-6.5 -127q0 -69 6.5 -130t22.5 -107
t43.5 -72.5t69.5 -26.5zM2214 -27q-86 0 -157 23t-122 68t-79.5 110.5t-28.5 151.5q0 78 30.5 145t83 115.5t123 76t150.5 27.5q84 0 156.5 -22t125.5 -67t83 -113t30 -160q0 -74 -30 -138.5t-83 -112.5t-125.5 -76t-156.5 -28zM2220 -2q32 0 57 24t42 67.5t25.5 103
t8.5 131.5q0 73 -6.5 136t-22.5 108.5t-42 71.5t-66 26t-66.5 -27t-42 -72.5t-22 -105.5t-6.5 -127q0 -69 6 -130t22 -107t43.5 -72.5t69.5 -26.5zM432 -170l875 1583l59 -27l-879 -1583z" />
    <glyph glyph-name="Acircumflex" unicode="&#xc2;" horiz-adv-x="1430" 
d="M-74 14q28 3 58.5 8.5t56.5 22.5q38 25 66.5 69t50.5 97q12 30 35.5 90t55 140.5t68 175t74.5 192t75 193t69 177.5t56.5 145.5t37.5 96.5h186q18 -45 47 -120t64.5 -168t75 -197t78.5 -208t76 -201t66.5 -175.5t50 -132t27.5 -69.5q13 -31 31 -58t53 -49
q28 -17 56.5 -21.5t54.5 -7.5v-14h-838v14q26 2 62.5 6.5t70 12.5t57 21t23.5 32q0 12 -2.5 23.5t-5.5 19.5l-129 369h-422l-92 -269q-14 -40 -19.5 -73.5t-2.5 -53.5q4 -27 32.5 -43t66 -25.5t77 -13.5t65.5 -6v-14h-512v14zM721 537l-199 516l-194 -516h393zM696 1694
l-336 -216l-20 15q31 54 65 110.5t66 108.5t59.5 96t46.5 74q8 12 18 20t24.5 12.5t34 6.5t46.5 2q54 0 80 -9t39 -28q17 -26 44.5 -69.5t60 -96.5t67.5 -111.5t67 -115.5l-22 -17z" />
    <glyph glyph-name="Ecircumflex" unicode="&#xca;" horiz-adv-x="1421" 
d="M18 14q22 1 46.5 3.5t47 4.5t41 5t27.5 6q37 12 49.5 36t12.5 58v1137q0 34 -12.5 61t-49.5 39q-12 4 -31.5 7t-42 5.5t-46 4t-42.5 3.5v15h1252v-367h-23q-26 49 -61.5 104t-76 102.5t-83.5 82t-84 43.5q-37 8 -72.5 9t-83.5 1h-120v-637h71q42 0 72 5.5t51 14.5
t34.5 19.5t23.5 20.5q16 16 33.5 40.5t34 53.5t30.5 60.5t22 60.5h23v-584h-23q-8 30 -23 63.5t-32.5 65t-34.5 57t-30 39.5q-11 12 -25.5 22.5t-35.5 19t-50 13.5t-70 5h-71v-535q0 -51 5 -81.5t21.5 -46.5t47 -20.5t81.5 -4.5q42 0 80 1t70 5.5t58 14.5t44 28
q63 62 135.5 155.5t145.5 198.5h20l-26 -428h-1330v14zM713 1694l-336 -216l-20 15q31 54 65 110.5t66 108.5t59.5 96t46.5 74q8 12 18 20t24.5 12.5t34 6.5t46.5 2q54 0 80 -9t39 -28q17 -26 44.5 -69.5t60 -96.5t67.5 -111.5t67 -115.5l-22 -17z" />
    <glyph glyph-name="Aacute" unicode="&#xc1;" horiz-adv-x="1430" 
d="M-74 14q28 3 58.5 8.5t56.5 22.5q38 25 66.5 69t50.5 97q12 30 35.5 90t55 140.5t68 175t74.5 192t75 193t69 177.5t56.5 145.5t37.5 96.5h186q18 -45 47 -120t64.5 -168t75 -197t78.5 -208t76 -201t66.5 -175.5t50 -132t27.5 -69.5q13 -31 31 -58t53 -49
q28 -17 56.5 -21.5t54.5 -7.5v-14h-838v14q26 2 62.5 6.5t70 12.5t57 21t23.5 32q0 12 -2.5 23.5t-5.5 19.5l-129 369h-422l-92 -269q-14 -40 -19.5 -73.5t-2.5 -53.5q4 -27 32.5 -43t66 -25.5t77 -13.5t65.5 -6v-14h-512v14zM721 537l-199 516l-194 -516h393zM520 1478
l155 312q15 31 34.5 59t42.5 49.5t50 34t58 12.5t57.5 -10.5t45.5 -28.5t29.5 -42t10.5 -52q0 -56 -37.5 -97t-103.5 -79q-26 -15 -62 -33.5t-79 -41t-91 -47.5t-96 -52z" />
    <glyph glyph-name="Edieresis" unicode="&#xcb;" horiz-adv-x="1421" 
d="M18 14q22 1 46.5 3.5t47 4.5t41 5t27.5 6q37 12 49.5 36t12.5 58v1137q0 34 -12.5 61t-49.5 39q-12 4 -31.5 7t-42 5.5t-46 4t-42.5 3.5v15h1252v-367h-23q-26 49 -61.5 104t-76 102.5t-83.5 82t-84 43.5q-37 8 -72.5 9t-83.5 1h-120v-637h71q42 0 72 5.5t51 14.5
t34.5 19.5t23.5 20.5q16 16 33.5 40.5t34 53.5t30.5 60.5t22 60.5h23v-584h-23q-8 30 -23 63.5t-32.5 65t-34.5 57t-30 39.5q-11 12 -25.5 22.5t-35.5 19t-50 13.5t-70 5h-71v-535q0 -51 5 -81.5t21.5 -46.5t47 -20.5t81.5 -4.5q42 0 80 1t70 5.5t58 14.5t44 28
q63 62 135.5 155.5t145.5 198.5h20l-26 -428h-1330v14zM481 1507q-35 0 -65 14.5t-52.5 38.5t-35.5 56t-13 67t13 67t35.5 56t52.5 38.5t65 14.5q34 0 64 -14.5t52.5 -38.5t36 -56t13.5 -67t-13.5 -67t-36 -56t-52.5 -38.5t-64 -14.5zM961 1507q-35 0 -65 14.5t-52.5 38.5
t-35.5 56t-13 67t13 67t35.5 56t52.5 38.5t65 14.5q34 0 64 -14.5t52.5 -38.5t36 -56t13.5 -67t-13.5 -67t-36 -56t-52.5 -38.5t-64 -14.5z" />
    <glyph glyph-name="Egrave" unicode="&#xc8;" horiz-adv-x="1421" 
d="M18 14q22 1 46.5 3.5t47 4.5t41 5t27.5 6q37 12 49.5 36t12.5 58v1137q0 34 -12.5 61t-49.5 39q-12 4 -31.5 7t-42 5.5t-46 4t-42.5 3.5v15h1252v-367h-23q-26 49 -61.5 104t-76 102.5t-83.5 82t-84 43.5q-37 8 -72.5 9t-83.5 1h-120v-637h71q42 0 72 5.5t51 14.5
t34.5 19.5t23.5 20.5q16 16 33.5 40.5t34 53.5t30.5 60.5t22 60.5h23v-584h-23q-8 30 -23 63.5t-32.5 65t-34.5 57t-30 39.5q-11 12 -25.5 22.5t-35.5 19t-50 13.5t-70 5h-71v-535q0 -51 5 -81.5t21.5 -46.5t47 -20.5t81.5 -4.5q42 0 80 1t70 5.5t58 14.5t44 28
q63 62 135.5 155.5t145.5 198.5h20l-26 -428h-1330v14zM930 1462q-48 27 -96 52t-91 47.5t-79.5 41t-61.5 33.5q-66 38 -103.5 79t-37.5 97q0 28 10.5 52t29.5 42t45 28.5t58 10.5q31 0 58 -12.5t50 -34t42.5 -49.5t34.5 -59l155 -312l-14 -16v0z" />
    <glyph glyph-name="Iacute" unicode="&#xcd;" horiz-adv-x="915" 
d="M23 14q21 1 45.5 3.5t47 4.5t41 5t27.5 6q37 12 49.5 36t12.5 58v1137q0 34 -12.5 61t-49.5 39q-12 4 -31.5 7t-42 5.5t-45.5 4t-42 3.5v15h870v-15q-13 -2 -35 -3.5t-46 -3.5t-46 -4.5t-35 -6.5q-37 -11 -49 -38.5t-12 -61.5v-1135q0 -34 13 -60t48 -38q9 -3 29 -6
t43.5 -5t47.5 -4.5t42 -3.5v-14h-870v14zM276 1478l155 312q15 31 34.5 59t42.5 49.5t50 34t58 12.5t57.5 -10.5t45.5 -28.5t29.5 -42t10.5 -52q0 -56 -37.5 -97t-103.5 -79q-26 -15 -62 -33.5t-79 -41t-91 -47.5t-96 -52z" />
    <glyph glyph-name="Icircumflex" unicode="&#xce;" horiz-adv-x="915" 
d="M23 14q21 1 45.5 3.5t47 4.5t41 5t27.5 6q37 12 49.5 36t12.5 58v1137q0 34 -12.5 61t-49.5 39q-12 4 -31.5 7t-42 5.5t-45.5 4t-42 3.5v15h870v-15q-13 -2 -35 -3.5t-46 -3.5t-46 -4.5t-35 -6.5q-37 -11 -49 -38.5t-12 -61.5v-1135q0 -34 13 -60t48 -38q9 -3 29 -6
t43.5 -5t47.5 -4.5t42 -3.5v-14h-870v14zM454 1694l-336 -216l-20 15q31 54 65 110.5t66 108.5t59.5 96t46.5 74q8 12 18 20t24.5 12.5t34 6.5t46.5 2q54 0 80 -9t39 -28q17 -26 44.5 -69.5t60 -96.5t67.5 -111.5t67 -115.5l-22 -17z" />
    <glyph glyph-name="Idieresis" unicode="&#xcf;" horiz-adv-x="915" 
d="M23 14q21 1 45.5 3.5t47 4.5t41 5t27.5 6q37 12 49.5 36t12.5 58v1137q0 34 -12.5 61t-49.5 39q-12 4 -31.5 7t-42 5.5t-45.5 4t-42 3.5v15h870v-15q-13 -2 -35 -3.5t-46 -3.5t-46 -4.5t-35 -6.5q-37 -11 -49 -38.5t-12 -61.5v-1135q0 -34 13 -60t48 -38q9 -3 29 -6
t43.5 -5t47.5 -4.5t42 -3.5v-14h-870v14zM218 1507q-35 0 -65 14.5t-52.5 38.5t-35.5 56t-13 67t13 67t35.5 56t52.5 38.5t65 14.5q34 0 64 -14.5t52.5 -38.5t36 -56t13.5 -67t-13.5 -67t-36 -56t-52.5 -38.5t-64 -14.5zM698 1507q-35 0 -65 14.5t-52.5 38.5t-35.5 56
t-13 67t13 67t35.5 56t52.5 38.5t65 14.5q34 0 64 -14.5t52.5 -38.5t36 -56t13.5 -67t-13.5 -67t-36 -56t-52.5 -38.5t-64 -14.5z" />
    <glyph glyph-name="Igrave" unicode="&#xcc;" horiz-adv-x="915" 
d="M23 14q21 1 45.5 3.5t47 4.5t41 5t27.5 6q37 12 49.5 36t12.5 58v1137q0 34 -12.5 61t-49.5 39q-12 4 -31.5 7t-42 5.5t-45.5 4t-42 3.5v15h870v-15q-13 -2 -35 -3.5t-46 -3.5t-46 -4.5t-35 -6.5q-37 -11 -49 -38.5t-12 -61.5v-1135q0 -34 13 -60t48 -38q9 -3 29 -6
t43.5 -5t47.5 -4.5t42 -3.5v-14h-870v14zM642 1462q-48 27 -96 52t-91 47.5t-79.5 41t-61.5 33.5q-66 38 -103.5 79t-37.5 97q0 28 10.5 52t29.5 42t45 28.5t58 10.5q31 0 58 -12.5t50 -34t42.5 -49.5t34.5 -59l155 -312l-14 -16v0z" />
    <glyph glyph-name="Oacute" unicode="&#xd3;" horiz-adv-x="1636" 
d="M811 -33q-164 0 -301 48.5t-238 142.5q-50 47 -92 104t-72.5 123t-47.5 141t-17 158q0 92 18.5 174t51.5 153.5t79 131.5t101 108q99 88 231.5 134.5t294.5 46.5q161 0 297 -45t236 -136q51 -47 95.5 -104.5t76.5 -125.5t50.5 -146t18.5 -166q0 -86 -17.5 -166
t-49.5 -152t-77 -134.5t-101 -113.5q-97 -88 -229 -132t-308 -44zM819 -8q88 0 147 53.5t94.5 148.5t50.5 225t15 283q0 90 -5.5 177.5t-18.5 166t-35.5 144.5t-56.5 114.5t-81.5 75.5t-109.5 27q-80 0 -138 -48t-96 -139.5t-56.5 -224t-18.5 -301.5q0 -148 15 -276.5
t51 -223t95.5 -148.5t147.5 -54zM600 1478l155 312q15 31 34.5 59t42.5 49.5t50 34t58 12.5t57.5 -10.5t45.5 -28.5t29.5 -42t10.5 -52q0 -56 -37.5 -97t-103.5 -79q-26 -15 -62 -33.5t-79 -41t-91 -47.5t-96 -52z" />
    <glyph glyph-name="Ocircumflex" unicode="&#xd4;" horiz-adv-x="1636" 
d="M811 -33q-164 0 -301 48.5t-238 142.5q-50 47 -92 104t-72.5 123t-47.5 141t-17 158q0 92 18.5 174t51.5 153.5t79 131.5t101 108q99 88 231.5 134.5t294.5 46.5q161 0 297 -45t236 -136q51 -47 95.5 -104.5t76.5 -125.5t50.5 -146t18.5 -166q0 -86 -17.5 -166
t-49.5 -152t-77 -134.5t-101 -113.5q-97 -88 -229 -132t-308 -44zM819 -8q88 0 147 53.5t94.5 148.5t50.5 225t15 283q0 90 -5.5 177.5t-18.5 166t-35.5 144.5t-56.5 114.5t-81.5 75.5t-109.5 27q-80 0 -138 -48t-96 -139.5t-56.5 -224t-18.5 -301.5q0 -148 15 -276.5
t51 -223t95.5 -148.5t147.5 -54zM821 1694l-336 -216l-20 15q31 54 65 110.5t66 108.5t59.5 96t46.5 74q8 12 18 20t24.5 12.5t34 6.5t46.5 2q54 0 80 -9t39 -28q17 -26 44.5 -69.5t60 -96.5t67.5 -111.5t67 -115.5l-22 -17z" />
    <glyph glyph-name="apple" unicode="&#xf8ff;" horiz-adv-x="1264" 
d="M774 -4q-31 0 -58.5 11.5t-48.5 32t-33.5 49t-12.5 61.5q0 24 5.5 45t12.5 43t12.5 47t5.5 57v23l-14 10q-11 -2 -20.5 -2h-20.5q-32 0 -61 10t-54 27l-26 -2q-22 -32 -30 -64t-13 -61q-6 -33 -17 -63.5t-30 -54.5t-47 -38t-66 -14q-31 0 -59.5 12t-50.5 33t-35 49.5
t-13 62.5q0 33 13 61t36 49t54 32.5t67 11.5h30t36.5 2t41 7.5t44.5 17.5l6 28q-9 20 -14.5 42.5t-5.5 45.5q0 27 6 51l-11 27q-14 5 -27.5 5.5t-27.5 0.5q-21 0 -38.5 -2t-33 -5t-30 -5t-29.5 -2q-34 0 -63 12.5t-50 34t-33 49.5t-12 60q0 31 12 59.5t33 50.5t49.5 34.5
t61.5 12.5q28 0 49.5 -7.5t38.5 -19.5t29 -27.5t20 -31.5q9 -18 15 -38.5t14 -42.5t19.5 -44t29.5 -41l31 2q28 29 64.5 45.5t76.5 16.5l23 14q0 41 -11 71t-24 55.5t-24 50.5t-11 57q0 34 12.5 61.5t34 47t49.5 30t60 10.5q34 0 61.5 -12.5t47.5 -34t31 -49.5t11 -59
q0 -33 -9 -55.5t-24 -39t-34 -30t-39 -29t-39.5 -35.5t-34.5 -49l8 -25q35 -18 61 -48t37 -70l25 -13q28 10 49 25t37.5 31t32 31.5t33 28t39 20.5t51.5 8q31 0 58 -12.5t47 -33.5t32 -50t12 -62q0 -32 -12 -60t-32.5 -48.5t-48.5 -32t-60 -11.5q-36 0 -62 13.5t-51 31
t-54 34.5t-71 24l-18 -17q-7 -37 -28 -68t-52 -54l-2 -21q24 -32 52 -49t56 -31q23 -11 43.5 -25.5t36 -33.5t24.5 -43t9 -53q0 -31 -12.5 -59t-34.5 -49.5t-51 -34.5t-62 -13zM602 426q30 0 55 11t43.5 30.5t28.5 45.5t10 56q0 29 -10 54.5t-28.5 44.5t-43.5 30t-55 11
q-29 0 -54 -11t-43.5 -30t-29 -44.5t-10.5 -54.5q0 -30 10.5 -56t29 -45.5t43.5 -30.5t54 -11z" />
    <glyph glyph-name="Ograve" unicode="&#xd2;" horiz-adv-x="1636" 
d="M811 -33q-164 0 -301 48.5t-238 142.5q-50 47 -92 104t-72.5 123t-47.5 141t-17 158q0 92 18.5 174t51.5 153.5t79 131.5t101 108q99 88 231.5 134.5t294.5 46.5q161 0 297 -45t236 -136q51 -47 95.5 -104.5t76.5 -125.5t50.5 -146t18.5 -166q0 -86 -17.5 -166
t-49.5 -152t-77 -134.5t-101 -113.5q-97 -88 -229 -132t-308 -44zM819 -8q88 0 147 53.5t94.5 148.5t50.5 225t15 283q0 90 -5.5 177.5t-18.5 166t-35.5 144.5t-56.5 114.5t-81.5 75.5t-109.5 27q-80 0 -138 -48t-96 -139.5t-56.5 -224t-18.5 -301.5q0 -148 15 -276.5
t51 -223t95.5 -148.5t147.5 -54zM1004 1462q-48 27 -96 52t-91 47.5t-79.5 41t-61.5 33.5q-66 38 -103.5 79t-37.5 97q0 28 10.5 52t29.5 42t45 28.5t58 10.5q31 0 58 -12.5t50 -34t42.5 -49.5t34.5 -59l155 -312l-14 -16v0z" />
    <glyph glyph-name="Uacute" unicode="&#xda;" horiz-adv-x="1583" 
d="M860 -33q-142 0 -260.5 27t-204 87t-133 155t-47.5 231v797q0 34 -12 61t-49 39q-12 4 -30.5 7t-39.5 5.5t-43 4t-41 3.5v15h846v-15q-13 -2 -32.5 -3.5t-39.5 -3.5t-39.5 -4.5t-32.5 -6.5q-37 -11 -49 -38.5t-12 -61.5v-758q0 -105 19.5 -180.5t60 -123.5t101 -70.5
t143.5 -22.5q81 0 152.5 22t125.5 70.5t85.5 126t31.5 188.5v547q0 60 -2.5 105.5t-8.5 79t-17 56.5t-29 37q-17 14 -50 21.5t-68.5 11.5t-66.5 5t-45 3v15h574v-15q-13 -2 -37 -3t-51 -4.5t-53 -10.5t-44 -20q-35 -26 -50 -93.5t-15 -185.5v-580q0 -133 -43 -230.5
t-116.5 -162t-171 -96t-206.5 -31.5zM742 1478l155 312q15 31 34.5 59t42.5 49.5t50 34t58 12.5t57.5 -10.5t45.5 -28.5t29.5 -42t10.5 -52q0 -56 -37.5 -97t-103.5 -79q-26 -15 -62 -33.5t-79 -41t-91 -47.5t-96 -52z" />
    <glyph glyph-name="Ucircumflex" unicode="&#xdb;" horiz-adv-x="1583" 
d="M860 -33q-142 0 -260.5 27t-204 87t-133 155t-47.5 231v797q0 34 -12 61t-49 39q-12 4 -30.5 7t-39.5 5.5t-43 4t-41 3.5v15h846v-15q-13 -2 -32.5 -3.5t-39.5 -3.5t-39.5 -4.5t-32.5 -6.5q-37 -11 -49 -38.5t-12 -61.5v-758q0 -105 19.5 -180.5t60 -123.5t101 -70.5
t143.5 -22.5q81 0 152.5 22t125.5 70.5t85.5 126t31.5 188.5v547q0 60 -2.5 105.5t-8.5 79t-17 56.5t-29 37q-17 14 -50 21.5t-68.5 11.5t-66.5 5t-45 3v15h574v-15q-13 -2 -37 -3t-51 -4.5t-53 -10.5t-44 -20q-35 -26 -50 -93.5t-15 -185.5v-580q0 -133 -43 -230.5
t-116.5 -162t-171 -96t-206.5 -31.5zM889 1694l-336 -216l-20 15q31 54 65 110.5t66 108.5t59.5 96t46.5 74q8 12 18 20t24.5 12.5t34 6.5t46.5 2q54 0 80 -9t39 -28q17 -26 44.5 -69.5t60 -96.5t67.5 -111.5t67 -115.5l-22 -17z" />
    <glyph glyph-name="Ugrave" unicode="&#xd9;" horiz-adv-x="1583" 
d="M860 -33q-142 0 -260.5 27t-204 87t-133 155t-47.5 231v797q0 34 -12 61t-49 39q-12 4 -30.5 7t-39.5 5.5t-43 4t-41 3.5v15h846v-15q-13 -2 -32.5 -3.5t-39.5 -3.5t-39.5 -4.5t-32.5 -6.5q-37 -11 -49 -38.5t-12 -61.5v-758q0 -105 19.5 -180.5t60 -123.5t101 -70.5
t143.5 -22.5q81 0 152.5 22t125.5 70.5t85.5 126t31.5 188.5v547q0 60 -2.5 105.5t-8.5 79t-17 56.5t-29 37q-17 14 -50 21.5t-68.5 11.5t-66.5 5t-45 3v15h574v-15q-13 -2 -37 -3t-51 -4.5t-53 -10.5t-44 -20q-35 -26 -50 -93.5t-15 -185.5v-580q0 -133 -43 -230.5
t-116.5 -162t-171 -96t-206.5 -31.5zM1092 1462q-48 27 -96 52t-91 47.5t-79.5 41t-61.5 33.5q-66 38 -103.5 79t-37.5 97q0 28 10.5 52t29.5 42t45 28.5t58 10.5q31 0 58 -12.5t50 -34t42.5 -49.5t34.5 -59l155 -312l-14 -16v0z" />
    <glyph glyph-name="dotlessi" unicode="&#x131;" horiz-adv-x="670" 
d="M27 14q26 2 47 3.5t41 9.5q28 11 40.5 34.5t12.5 55.5v694q0 68 -51 102q-9 6 -24 11.5t-32 9.5t-34 6.5t-31 3.5v12l522 25l8 -8v-850q0 -65 56 -92q21 -11 42 -12.5t46 -4.5v-14h-643v14z" />
    <glyph glyph-name="R.salt" horiz-adv-x="1610" 
d="M25 14q13 1 36 2.5t46 4t43.5 5.5t29.5 7q37 14 49.5 43.5t12.5 64.5v1104q0 25 -2.5 44t-10 33.5t-21 24.5t-34.5 19q-12 4 -31 7t-40 5t-42 3t-36 3v15h915q120 0 217 -19t166 -58t106 -99.5t37 -143.5q0 -84 -32.5 -145.5t-88.5 -105.5t-131 -72t-159 -45v-15
q73 -3 127.5 -18.5t96 -46t73 -77.5t57.5 -112q12 -31 26 -70.5t27 -77.5t22.5 -69t14.5 -45q25 -74 60.5 -109.5t64.5 -41.5q31 -7 63 -10t60 -5v-14h-653q-12 56 -24.5 107.5t-27 101t-31 98t-34.5 99.5q-26 70 -47 119.5t-47 81t-61.5 45.5t-90.5 14h-65v-519
q0 -34 13.5 -63.5t47.5 -44.5q9 -4 27.5 -7.5t39.5 -7t41.5 -6.5t34.5 -4v-14h-845v14zM698 694q68 0 126 16t101 56t67 107.5t24 170.5q0 155 -70.5 241.5t-212.5 86.5h-67v-678h32z" />
    <glyph glyph-name="currency" unicode="&#xa4;" horiz-adv-x="1280" 
d="M784 -29q-118 0 -219 33.5t-178 98.5t-127 161t-67 221h-152v43h149q-3 35 -2.5 72.5t2.5 71.5h-149v43h156q16 116 69 217t138.5 176t200 118.5t253.5 43.5q82 0 153 -19.5t123.5 -56t82.5 -88.5t30 -117q0 -52 -12.5 -86.5t-32.5 -55.5t-45.5 -29.5t-50.5 -8.5
q-65 0 -102 35t-37 86q0 30 14.5 57.5t31.5 53t31.5 49.5t14.5 47q-4 20 -20 39.5t-42.5 35.5t-61.5 25.5t-77 9.5q-65 0 -112 -35.5t-80 -103t-52 -167t-26 -226.5h399v-43h-401v-38v-40t0.5 -37t1.5 -29h358v-43h-356q4 -89 26 -166.5t60 -134.5t92 -90t123 -33
q115 0 194.5 63.5t135.5 180.5l20 -12q-29 -65 -68 -123.5t-93.5 -102.5t-127 -70t-168.5 -26z" />
    <glyph glyph-name="lessequal" unicode="&#x2264;" horiz-adv-x="1167" 
d="M131 604v103l905 399v-127l-747 -324l747 -323v-127zM102 113h963v-113h-963v113z" />
    <glyph glyph-name="greaterequal" unicode="&#x2265;" horiz-adv-x="1167" 
d="M131 332l748 323l-748 324v127l905 -399v-103l-905 -399v127zM102 113h963v-113h-963v113z" />
    <glyph glyph-name="quotesingle" unicode="'" horiz-adv-x="463" 
d="M219 926q-10 34 -24.5 73.5t-30 81t-31 82.5t-28 78.5t-20 68.5t-7.5 52q0 74 43.5 110.5t109.5 36.5q33 0 61 -9t49 -27.5t32.5 -46t11.5 -64.5q0 -30 -16.5 -83t-40 -115t-48 -125t-40.5 -113h-21v0z" />
    <glyph glyph-name="fi" horiz-adv-x="1325" 
d="M27 14q26 2 47 5.5t41 11.5q53 20 53 90v809h-197v37h197v26q0 125 34 217t105 160q32 31 80 60t108 51.5t129 35.5t144 13q94 0 169.5 -20.5t128.5 -55t81.5 -79.5t28.5 -95q0 -26 -10.5 -55t-31 -54.5t-51.5 -42t-71 -16.5q-35 0 -65.5 9t-54 27.5t-37 45.5t-13.5 63
q0 20 4.5 41.5t10.5 44t10.5 46t4.5 49.5q0 32 -24 50.5t-80 18.5q-115 0 -177 -110t-67 -322v-108h279q96 0 194.5 7t176.5 19l8 -8v-854q0 -32 13.5 -56t41.5 -36q22 -12 42.5 -17t45.5 -8v-14h-608v14q56 3 80 23q15 14 20.5 34.5t5.5 49.5v708q0 67 -49 101h-248v-801
q0 -23 3.5 -40t11.5 -30q12 -20 36.5 -29t59.5 -16v-14h-610v14z" />
    <glyph glyph-name="fl" horiz-adv-x="1325" 
d="M27 14q26 2 47 5.5t41 11.5q53 20 53 90v809h-197v37h197v26q0 125 34 217.5t105 161.5q32 32 73.5 61t92.5 50.5t111.5 34t130.5 12.5q26 0 53 -2.5t53 -7.5t49 -12.5t41 -16.5l260 37l9 -8v-1395q0 -34 9.5 -59t37.5 -37q21 -10 43.5 -11t50.5 -4v-14h-602v14
q54 3 80 21q15 12 19.5 33.5t4.5 52.5v1038q-12 7 -25.5 18.5t-25.5 27.5t-19.5 36.5t-7.5 46.5q0 48 24 81t52 54q-18 42 -49 62t-70 20q-78 0 -126 -95t-52 -294v-149h209v-37h-207v-801q0 -26 5 -47t24 -37q12 -11 32.5 -18.5t51.5 -12.5v-14h-612v14z" />
    <glyph glyph-name="ampersand.salt" horiz-adv-x="1806" 
d="M754 -35q-149 0 -272.5 32t-213 92t-139 145.5t-49.5 191.5q0 63 20.5 113.5t56 91t82 72t97.5 57.5q-29 19 -60 43.5t-56.5 57t-42.5 75t-17 96.5q0 58 24 110t69 92t108.5 63.5t142.5 23.5q82 0 141 -22t99.5 -60t65.5 -88.5t40 -108.5l-14 -8q-16 18 -42 36.5
t-59.5 33.5t-74.5 24t-87 9q-68 0 -115 -21t-77 -53t-43.5 -71.5t-13.5 -76.5q0 -95 41 -139q58 34 120.5 57t124.5 23q84 0 125 -34t41 -87q0 -21 -8 -41t-24 -35.5t-40 -25.5t-55 -10q-48 0 -90 13.5t-78 33t-66 40.5t-55 35q-17 -21 -26.5 -58.5t-9.5 -84.5
q0 -79 43 -142.5t120.5 -107.5t185.5 -68t238 -24q151 0 264 28.5t187.5 77t111.5 113t37 137.5q0 59 -26.5 106t-71 79.5t-103.5 49.5t-124 17q-51 0 -95.5 -14.5t-77 -40.5t-51 -62.5t-18.5 -80.5q0 -46 16 -81.5t42 -59.5t59.5 -36t68.5 -12q36 0 70 14.5t51 43.5
q-37 1 -71 7.5t-60.5 19.5t-42.5 33.5t-16 51.5q0 39 13.5 64t33.5 39.5t43 20t41 5.5q30 0 58.5 -9t50.5 -27t35.5 -44.5t13.5 -60.5q0 -38 -13.5 -71t-39 -57t-63 -38t-85.5 -14q-59 0 -112.5 17.5t-93.5 52t-63.5 85.5t-23.5 119q0 98 33.5 165t88 108t123 59t138.5 18
q21 0 53 -1.5t65 -3.5t63 -3.5t48 -1.5q52 0 89.5 17t62.5 45t37 62t12 69q0 24 -10.5 51.5t-31.5 50.5t-52.5 38t-73.5 15q-22 0 -40 -6t-31 -15t-20 -19.5t-7 -18.5q28 -4 53.5 -12.5t45 -22.5t31 -33t11.5 -43q0 -32 -9.5 -54t-26 -36.5t-38.5 -21t-47 -6.5
q-28 0 -55.5 8t-49 25.5t-35 45.5t-13.5 68q0 35 15.5 65t44.5 52t70.5 34.5t94.5 12.5q61 0 107.5 -20t78 -54.5t47.5 -81t15 -100.5q0 -173 -103.5 -251.5t-300.5 -70.5q46 -14 89 -40t76 -64.5t53 -88t20 -110.5q0 -67 -20.5 -138t-63 -137t-108.5 -125t-157.5 -103
t-209.5 -69.5t-264 -25.5z" />
    <glyph glyph-name="copyrightsound" unicode="&#x2117;" horiz-adv-x="1946" 
d="M571 66q12 1 30 3t36 5t33.5 6.5t23.5 5.5q28 9 37.5 26t9.5 35v730q0 18 -9.5 36.5t-37.5 26.5q-15 4 -32 8t-34.5 7.5t-34 6t-28.5 3.5v14h559q165 0 253.5 -61.5t88.5 -169.5q0 -74 -28.5 -130t-81 -93.5t-127 -56.5t-166.5 -19h-78v-302q0 -18 9 -35.5t34 -25.5
q7 -2 25.5 -5.5t40.5 -6.5t45 -5t39 -3v-15h-607v15zM975 -371q-124 0 -238.5 31.5t-214 89.5t-181 139t-139.5 179t-90 211t-32 235q0 121 31.5 233t89.5 210t139.5 178.5t181 138.5t214 89.5t239.5 31.5q123 0 237 -31.5t213 -89.5t180.5 -138.5t139 -178.5t89.5 -210
t32 -233q0 -122 -32 -235t-89.5 -211t-139 -179t-180.5 -139t-213 -89.5t-237 -31.5zM975 -295q111 0 213 29t191 81.5t161 126t124 163.5t80 193.5t28 215.5q0 110 -28 212.5t-80 192t-124 163t-161 125.5t-191 81t-213 29q-112 0 -214.5 -29t-191.5 -81t-162 -125.5
t-124.5 -163t-80 -192t-28.5 -212.5q0 -112 28.5 -215.5t80 -193.5t124.5 -163.5t162 -126t191.5 -81.5t214.5 -29zM1016 469q51 0 85.5 19t56 52t31 77.5t9.5 95.5q0 45 -8 89t-26 78.5t-48 56t-74 21.5h-57v-489h31z" />
    <glyph glyph-name="quotedbl" unicode="&#x22;" horiz-adv-x="864" 
d="M219 926q-10 34 -24.5 73.5t-30 81t-31 82.5t-28 78.5t-20 68.5t-7.5 52q0 74 43.5 110.5t109.5 36.5q33 0 61 -9t49 -27.5t32.5 -46t11.5 -64.5q0 -30 -16.5 -83t-40 -115t-48 -125t-40.5 -113h-21zM621 926q-10 34 -24.5 73.5t-30.5 81t-31.5 82.5t-28 78.5t-20 68.5
t-7.5 52q0 37 11.5 64.5t32.5 46t49 27.5t61 9q66 0 109.5 -36.5t43.5 -110.5q0 -30 -16.5 -83t-40 -115t-48 -125t-40.5 -113h-20z" />
    <glyph glyph-name="glyph244" horiz-adv-x="0" 
 />
    <glyph glyph-name="DEL" horiz-adv-x="0" 
 />
    <glyph glyph-name="exclam" unicode="!" horiz-adv-x="676" 
d="M326 471q-29 139 -62 249.5t-61 201.5t-46 168t-18 149q0 40 13 75.5t38.5 62t62.5 42t85 15.5t85 -15.5t62.5 -42t38.5 -62t13 -75.5q0 -72 -18.5 -149.5t-47 -169t-62 -201.5t-63.5 -248h-20zM338 -27q-42 0 -78.5 15t-64.5 42t-44 63.5t-16 78.5t16 78.5t44 63.5
t64.5 42t78.5 15t78.5 -15t64.5 -42t44 -63.5t16 -78.5t-16 -78.5t-44 -63.5t-64.5 -42t-78.5 -15z" />
    <glyph glyph-name="ampersand" unicode="&#x26;" horiz-adv-x="1624" 
d="M465 -33q-87 0 -165.5 20t-137.5 61t-94 105t-35 152q0 77 27.5 137.5t80 110.5t129.5 92t176 82q-41 56 -70.5 103t-48.5 89.5t-27.5 84.5t-8.5 88q0 85 36 148t99 104.5t147.5 62t182.5 20.5q65 0 118.5 -16.5t92 -47.5t59.5 -76.5t21 -102.5q0 -45 -20.5 -88
t-55.5 -82.5t-82.5 -76.5t-102.5 -71q73 -109 156.5 -224t165.5 -218q38 48 76 100.5t68.5 102.5t49.5 93.5t19 74.5q0 16 -16 25.5t-45.5 16.5t-72 13.5t-95.5 17.5v15h557v-15q-88 -9 -150.5 -25t-93.5 -55q-18 -23 -48.5 -69t-67.5 -101.5t-78.5 -115t-82.5 -109.5
q37 -44 77.5 -88t78 -83t70.5 -70.5t55 -49.5q23 -18 40.5 -32t38.5 -24.5t50.5 -17.5t75.5 -12v-16h-602l-127 152q-37 -37 -87 -70.5t-106 -59t-114.5 -40.5t-112.5 -15zM653 94q76 0 127.5 26t83.5 58q-58 74 -119 152.5t-116 150.5t-99.5 131t-68.5 93
q-31 -53 -50.5 -125t-19.5 -168q0 -75 22 -134.5t59 -100t84 -62t97 -21.5zM772 889q84 54 121 118.5t37 151.5q0 60 -11.5 105.5t-32 75.5t-48 45.5t-58.5 15.5q-66 0 -106.5 -51.5t-40.5 -147.5q0 -35 11.5 -72.5t30.5 -77.5t44 -81t53 -82z" />
    </font>
</defs>
</svg>
